<?xml version="1.0" encoding="UTF-8"?>
<svg id="Layer_1" data-name="Layer 1" xmlns="http://www.w3.org/2000/svg" viewBox="0 0 313.7 34.79">
  <defs>
    <style>
      .cls-1 {
        fill: none;
        stroke: #f2c820;
      }

      .cls-2 {
        fill: #fff;
      }

      .cls-3 {
        fill: #f2c820;
      }

      .cls-4 {
        fill: #1f1f1f;
      }

      .cls-5 {
        fill: #f7f7ff;
      }
    </style>
  </defs>
  <path class="cls-3" d="M302.1,31.55h-6.92V9.18h6.92v3.62h-.14c.13-.44,.47-.99,1.04-1.66,.58-.67,1.38-1.27,2.4-1.8,1.02-.54,2.24-.82,3.68-.82,1.04,0,1.97,.15,2.81,.46,.85,.29,1.46,.58,1.82,.87l-2.72,5.67c-.24-.29-.68-.59-1.34-.9-.64-.31-1.43-.46-2.4-.46-1.14,0-2.1,.32-2.86,.95-.76,.62-1.33,1.38-1.72,2.29-.38,.89-.57,1.73-.57,2.51v11.63Z"/>
  <path class="cls-3" d="M276.85,21.91c.05,1.02,.33,1.93,.82,2.72,.49,.8,1.2,1.43,2.12,1.88,.95,.45,2.07,.68,3.38,.68,1.18,0,2.22-.15,3.11-.44,.91-.29,1.67-.64,2.29-1.06,.64-.44,1.11-.85,1.42-1.25l2.86,4.25c-.51,.64-1.19,1.23-2.04,1.77-.83,.53-1.91,.94-3.21,1.25-1.29,.33-2.91,.49-4.85,.49-2.45,0-4.6-.48-6.46-1.44s-3.3-2.35-4.33-4.17c-1.04-1.82-1.55-3.98-1.55-6.49,0-2.18,.46-4.14,1.39-5.89,.93-1.76,2.27-3.15,4.03-4.17,1.78-1.02,3.91-1.53,6.4-1.53,2.34,0,4.37,.45,6.08,1.36,1.73,.89,3.06,2.2,4.01,3.92,.94,1.73,1.42,3.83,1.42,6.32,0,.15,0,.45-.03,.9,0,.44-.02,.73-.05,.87h-16.79Zm10.38-4.28c-.02-.58-.2-1.21-.54-1.88-.33-.67-.85-1.24-1.55-1.72-.71-.47-1.65-.71-2.83-.71s-2.15,.23-2.92,.68c-.74,.45-1.31,1.02-1.69,1.69-.38,.65-.6,1.3-.65,1.93h10.19Z"/>
  <path class="cls-3" d="M253.41,9.18h4.03V0h6.87V9.18h5.29v5.75h-5.29v8.09c0,1.07,.17,1.91,.52,2.51,.35,.58,.89,.87,1.64,.87,.56,0,1.03-.11,1.39-.33,.36-.24,.58-.4,.65-.49l2.45,4.96c-.11,.11-.46,.3-1.06,.57-.58,.27-1.33,.52-2.26,.74-.91,.24-1.93,.35-3.08,.35-2.05,0-3.75-.59-5.1-1.77-1.34-1.2-2.02-3.05-2.02-5.56V14.93h-4.03v-5.75Z"/>
  <path class="cls-3" d="M244.93,8.53c1.34,0,2.59,.13,3.73,.38,1.15,.24,2.11,.51,2.89,.82,.8,.31,1.33,.57,1.58,.79l-2.37,4.17c-.36-.29-1.02-.64-1.96-1.04-.93-.4-1.96-.6-3.11-.6-1.04,0-1.91,.18-2.62,.54-.71,.35-1.06,.87-1.06,1.58s.38,1.27,1.14,1.69,1.83,.78,3.19,1.09c1.15,.24,2.27,.6,3.38,1.09,1.11,.47,2.02,1.16,2.75,2.07,.73,.89,1.09,2.08,1.09,3.57s-.32,2.7-.95,3.68c-.62,.96-1.44,1.73-2.48,2.29-1.04,.56-2.17,.96-3.41,1.2-1.24,.24-2.46,.35-3.68,.35-1.58,0-2.97-.15-4.17-.46-1.2-.29-2.19-.63-2.97-1.01-.76-.4-1.31-.74-1.64-1.01l2.37-4.63c.47,.42,1.24,.88,2.32,1.39,1.09,.49,2.26,.74,3.51,.74s2.33-.23,3.08-.68c.76-.45,1.14-1.06,1.14-1.83,0-.56-.18-1.02-.54-1.36-.36-.36-.86-.66-1.5-.9-.64-.24-1.38-.45-2.23-.63-.78-.16-1.58-.4-2.4-.71-.82-.33-1.58-.75-2.29-1.28-.71-.53-1.28-1.18-1.72-1.96-.44-.8-.65-1.75-.65-2.86,0-1.42,.45-2.6,1.36-3.54,.91-.96,2.09-1.69,3.54-2.18,1.45-.51,3.01-.76,4.66-.76Z"/>
  <path class="cls-3" d="M225.79,31.55v-3.9c-.16,.4-.58,.96-1.25,1.69-.67,.73-1.58,1.39-2.73,1.99-1.13,.58-2.45,.87-3.98,.87-2.14,0-4.04-.51-5.69-1.53-1.65-1.04-2.95-2.44-3.9-4.22-.93-1.8-1.39-3.82-1.39-6.08s.46-4.27,1.39-6.05c.95-1.8,2.24-3.22,3.9-4.25,1.65-1.04,3.55-1.55,5.69-1.55,1.49,0,2.78,.25,3.87,.76,1.11,.49,2,1.07,2.67,1.74,.69,.65,1.13,1.24,1.33,1.77v-3.62h6.87V31.55h-6.79Zm-12.15-11.17c0,1.25,.28,2.36,.85,3.32,.56,.94,1.31,1.68,2.23,2.21,.93,.53,1.93,.79,3.02,.79,1.14,0,2.16-.26,3.05-.79,.89-.54,1.59-1.29,2.1-2.23,.53-.96,.79-2.06,.79-3.3s-.26-2.33-.79-3.27c-.51-.96-1.21-1.72-2.1-2.26-.89-.54-1.91-.82-3.05-.82s-2.1,.27-3.02,.82c-.93,.53-1.67,1.27-2.23,2.23-.56,.94-.85,2.04-.85,3.3Z"/>
  <path class="cls-3" d="M197.12,8.53c1.67,0,3.12,.35,4.36,1.06,1.25,.71,2.23,1.8,2.92,3.27,.71,1.45,1.06,3.32,1.06,5.61v13.08h-6.81v-11.96c0-1.89-.28-3.36-.85-4.41-.54-1.05-1.59-1.58-3.13-1.58-.87,0-1.67,.24-2.4,.71-.73,.45-1.31,1.13-1.74,2.02-.42,.89-.63,1.98-.63,3.27v11.96h-6.38v-11.96c0-1.89-.32-3.36-.95-4.41-.63-1.05-1.64-1.58-3.02-1.58-.89,0-1.7,.23-2.43,.68-.71,.45-1.27,1.13-1.69,2.02-.4,.87-.6,1.97-.6,3.3v11.96h-6.87V9.18h6.87v3.27c.2-.56,.65-1.14,1.36-1.74,.73-.6,1.63-1.11,2.7-1.53,1.07-.44,2.22-.65,3.46-.65,1.35,0,2.46,.23,3.35,.68,.89,.45,1.61,1.04,2.15,1.74,.56,.69,.99,1.42,1.28,2.18,.26-.71,.75-1.42,1.5-2.13,.74-.71,1.68-1.3,2.81-1.77,1.13-.47,2.35-.71,3.68-.71Z"/>
  <path class="cls-3" d="M157.51,30.87v-3.86c-.14,.41-.54,.97-1.21,1.68-.65,.71-1.55,1.36-2.69,1.93-1.12,.58-2.46,.86-4,.86-2.02,0-3.84-.47-5.45-1.4-1.62-.93-2.89-2.23-3.82-3.89-.93-1.66-1.4-3.58-1.4-5.75s.47-4.09,1.4-5.75c.93-1.66,2.2-2.96,3.82-3.89,1.61-.95,3.43-1.42,5.45-1.42,1.51,0,2.82,.25,3.93,.76,1.11,.51,1.99,1.09,2.66,1.75,.68,.66,1.11,1.24,1.26,1.73v-3.64h5.58V30.87h-5.53Zm-13.01-10.43c0,1.34,.31,2.51,.92,3.51,.62,1,1.41,1.77,2.4,2.31,1,.54,2.07,.81,3.21,.81,1.23,0,2.32-.28,3.27-.84,.97-.56,1.72-1.33,2.27-2.31,.56-1,.84-2.16,.84-3.48s-.28-2.47-.84-3.46c-.54-1-1.3-1.78-2.27-2.34-.95-.58-2.04-.86-3.27-.86-1.14,0-2.21,.28-3.21,.84-.98,.54-1.78,1.31-2.4,2.31-.62,1-.92,2.17-.92,3.51Z"/>
  <path class="cls-4" d="M159.5,20.75c0,4.97-4.03,9-9,9s-9-4.03-9-9,4.03-9,9-9,9,4.03,9,9Z"/>
  <path class="cls-2" d="M146.37,24.49c.46-.59,1.24-.75,1.75-.35l.64,.49c.51,.4,.56,1.2,.1,1.79l-6.04,7.8c-.46,.59-1.24,.75-1.76,.35l-.64-.49c-.51-.4-.56-1.2-.1-1.79l6.04-7.8Z"/>
  <path class="cls-5" d="M156.5,20.65c0,3.31-2.69,6-6,6s-6-2.69-6-6,2.69-6,6-6,6,2.69,6,6Z"/>
  <path class="cls-3" d="M151.63,23.33c-.5,.46-1.11,.62-1.36,.35l-.31-.34c-.25-.27-.05-.87,.46-1.33l6.63-6.12c.5-.46,1.11-.62,1.36-.35l.31,.34c.25,.27,.05,.87-.45,1.33l-6.63,6.12Z"/>
  <path class="cls-3" d="M151.15,22.86c.23,.2,.25,.55,.06,.77l-.25,.28c-.2,.22-.54,.24-.77,.04l-3.01-2.67c-.23-.2-.25-.55-.06-.77l.25-.28c.2-.22,.54-.24,.77-.04l3.01,2.67Z"/>
  <path class="cls-2" d="M118.82,9.18h4.03V0h6.87V9.18h5.29v5.75h-5.29v8.09c0,1.07,.17,1.91,.52,2.51,.35,.58,.89,.87,1.63,.87,.56,0,1.03-.11,1.39-.33,.36-.24,.58-.4,.65-.49l2.45,4.96c-.11,.11-.46,.3-1.06,.57-.58,.27-1.33,.52-2.26,.74-.91,.24-1.94,.35-3.08,.35-2.05,0-3.75-.59-5.1-1.77-1.34-1.2-2.02-3.05-2.02-5.56V14.93h-4.03v-5.75Z"/>
  <path class="cls-2" d="M110.34,8.53c1.35,0,2.59,.13,3.73,.38,1.14,.24,2.11,.51,2.89,.82,.8,.31,1.33,.57,1.58,.79l-2.37,4.17c-.36-.29-1.02-.64-1.96-1.04-.93-.4-1.96-.6-3.11-.6-1.04,0-1.91,.18-2.62,.54-.71,.35-1.06,.87-1.06,1.58s.38,1.27,1.14,1.69,1.83,.78,3.19,1.09c1.15,.24,2.27,.6,3.38,1.09,1.11,.47,2.03,1.16,2.75,2.07,.73,.89,1.09,2.08,1.09,3.57s-.32,2.7-.95,3.68c-.62,.96-1.44,1.73-2.48,2.29-1.04,.56-2.17,.96-3.41,1.2-1.24,.24-2.46,.35-3.68,.35-1.58,0-2.97-.15-4.17-.46-1.2-.29-2.19-.63-2.97-1.01-.76-.4-1.31-.74-1.64-1.01l2.37-4.63c.47,.42,1.24,.88,2.32,1.39,1.09,.49,2.26,.74,3.51,.74s2.33-.23,3.08-.68c.76-.45,1.14-1.06,1.14-1.83,0-.56-.18-1.02-.54-1.36-.36-.36-.86-.66-1.5-.9-.64-.24-1.38-.45-2.24-.63-.78-.16-1.58-.4-2.4-.71-.82-.33-1.58-.75-2.29-1.28-.71-.53-1.28-1.18-1.72-1.96-.44-.8-.65-1.75-.65-2.86,0-1.42,.45-2.6,1.36-3.54,.91-.96,2.09-1.69,3.54-2.18,1.45-.51,3.01-.76,4.66-.76Z"/>
  <path class="cls-2" d="M81.25,19.89c0,2,.4,3.6,1.2,4.8,.8,1.18,2.09,1.77,3.87,1.77s3.1-.59,3.9-1.77c.8-1.2,1.2-2.8,1.2-4.8V9.18h6.81v11.5c0,2.31-.46,4.33-1.39,6.08-.93,1.73-2.28,3.07-4.06,4.03-1.76,.94-3.92,1.42-6.46,1.42s-4.68-.47-6.46-1.42c-1.76-.96-3.11-2.31-4.03-4.03-.93-1.74-1.39-3.77-1.39-6.08V9.18h6.81v10.71Z"/>
  <path class="cls-2" d="M63.24,31.55h-6.92V9.18h6.92v3.62h-.14c.13-.44,.47-.99,1.04-1.66,.58-.67,1.38-1.27,2.4-1.8,1.02-.55,2.24-.82,3.68-.82,1.04,0,1.97,.15,2.81,.46,.85,.29,1.46,.58,1.83,.87l-2.72,5.67c-.24-.29-.68-.59-1.34-.9-.64-.31-1.43-.46-2.4-.46-1.15,0-2.1,.32-2.86,.95-.76,.62-1.33,1.38-1.72,2.29-.38,.89-.57,1.73-.57,2.51v11.64Z"/>
  <path class="cls-2" d="M38.5,9.18h4.03V0h6.87V9.18h5.29v5.75h-5.29v8.09c0,1.07,.17,1.91,.52,2.51,.34,.58,.89,.87,1.63,.87,.56,0,1.03-.11,1.39-.33,.36-.24,.58-.4,.65-.49l2.45,4.96c-.11,.11-.46,.3-1.06,.57-.58,.27-1.34,.52-2.26,.74-.91,.24-1.93,.35-3.08,.35-2.05,0-3.75-.59-5.1-1.77-1.34-1.2-2.02-3.05-2.02-5.56V14.93h-4.03v-5.75Z"/>
  <g>
    <path class="cls-3" d="M15,33.5c-.2,0-.4-.05-.57-.16C5.81,28.27,2.54,20.99,1.31,15.78-.02,10.15,.68,5.74,.71,5.56c.07-.44,.36-.84,.78-.96,.42-.12,.83-.02,1.12,.3,.18,.12,1.54,.96,5.21,.48,4.4-.58,6.33-2.5,6.35-2.52,.22-.23,.51-.35,.82-.35s.61,.13,.82,.36c.01,.01,1.95,1.94,6.34,2.51,3.67,.48,5.03-.35,5.21-.48,.29-.32,.7-.42,1.12-.3,.43,.12,.71,.52,.78,.96,.01,.07,.28,1.75,.19,4.32-.01,.34-.17,.66-.43,.87l-13.71,11.06c-.46,.37-1.11,.33-1.52-.09l-4.85-4.93c-.45-.45-.45-1.19,0-1.65,.45-.45,1.17-.45,1.62,0l4.13,4.2,12.49-10.08c.01-.68,0-1.28-.03-1.78-1.11,.32-2.8,.51-5.3,.19-3.56-.47-5.78-1.72-6.88-2.52-1.1,.8-3.32,2.05-6.88,2.52-2.5,.33-4.19,.13-5.29-.19-.09,1.67-.06,4.55,.73,7.83,1.6,6.68,5.45,11.94,11.45,15.66,5.74-3.55,9.51-8.54,11.23-14.83,.17-.62,.8-.98,1.41-.81,.61,.17,.97,.81,.8,1.43-1.91,7.01-6.36,12.74-12.87,16.57-.18,.1-.38,.16-.57,.16Z"/>
    <path class="cls-1" d="M15,33.5c-.2,0-.4-.05-.57-.16C5.81,28.27,2.54,20.99,1.31,15.78-.02,10.15,.68,5.74,.71,5.56c.07-.44,.36-.84,.78-.96,.42-.12,.83-.02,1.12,.3,.18,.12,1.54,.96,5.21,.48,4.4-.58,6.33-2.5,6.35-2.52,.22-.23,.51-.35,.82-.35s.61,.13,.82,.36c.01,.01,1.95,1.94,6.34,2.51,3.67,.48,5.03-.35,5.21-.48,.29-.32,.7-.42,1.12-.3,.43,.12,.71,.52,.78,.96,.01,.07,.28,1.75,.19,4.32-.01,.34-.17,.66-.43,.87l-13.71,11.06c-.46,.37-1.11,.33-1.52-.09l-4.85-4.93c-.45-.45-.45-1.19,0-1.65,.45-.45,1.17-.45,1.62,0l4.13,4.2,12.49-10.08c.01-.68,0-1.28-.03-1.78-1.11,.32-2.8,.51-5.3,.19-3.56-.47-5.78-1.72-6.88-2.52-1.1,.8-3.32,2.05-6.88,2.52-2.5,.33-4.19,.13-5.29-.19-.09,1.67-.06,4.55,.73,7.83,1.6,6.68,5.45,11.94,11.45,15.66,5.74-3.55,9.51-8.54,11.23-14.83,.17-.62,.8-.98,1.41-.81,.61,.17,.97,.81,.8,1.43-1.91,7.01-6.36,12.74-12.87,16.57-.18,.1-.38,.16-.57,.16Z"/>
  </g>
</svg>