<svg xmlns="http://www.w3.org/2000/svg" viewBox="-7.084258416803872 -7.822060445459877 15.097418505971024 16.645518977467606" data-version="1.2.2" data-reactroot=""><g id="meta" data-scale-x="0.007621083515252625" data-scale-y="-0.007621563985073858" data-offset-x="-7.312890922261451" data-offset-y="-8.594811612455514" data-bounds-x-min="-6.855599880218506" data-bounds-x-max="7.784501552581787" data-bounds-y-min="-8.594799995422363" data-bounds-y-max="7.593401908874512"/><g transform="scale(1,-1)"><g id="floor"><style>
                    text {
                        font-family: Open Sans;
                        text-anchor: middle;
                        alignment-baseline: central;
                        fill: #0A0A14;
                        stroke: #FFFFFF;
                        stroke-width: 0.2em;
                        paint-order: stroke;
                    }
                    #fixtures text {
                        alignment-baseline: middle;
                        fill: #9DC4F8;
                        stroke: none;
                    }
                    polygon {
                        stroke: none;
                    }
                </style><g id="roomShapes"><g id="5b51314c9a" class="roomShape"><polygon points="5.0699,-1.1554 1.0104,-1.1554 1.0104,-1.0513 0.8961,-1.0513 0.8961,-1.2126 0.8961,-6.7704 -2.5464,-6.7704 -2.5464,-2.9499 -2.6607,-2.9499 -2.6607,-6.439 -6.7413,-6.439 -6.7413,-0.9329 -4.5106,-0.9329 -3.6153,-0.9329 -3.6153,0.031 -3.6153,3.6071 -3.6153,4.5975 -2.6905,4.5975 -2.6905,3.6125 -2.6905,2.2551 -2.6905,1.4452 -2.0238,1.4452 -2.0238,0.6696 -2.5756,0.6696 -2.5756,0.5553 0.8961,0.5553 0.8961,0.3988 1.0104,0.3988 1.0104,0.6124 1.0104,2.2551 1.0104,3.6125 1.0104,4.8337 7.6702,4.8337 7.6702,2.6203 6.8558,2.6203 6.8558,0.8864 7.6702,0.8864 7.6702,-1.1554" fill="#EFF9FF"/></g><g id="9feda3504a" class="roomShape"><polygon points="5.0128,-8.4805 1.0104,-8.4805 1.0104,-1.2697 5.0128,-1.2697" fill="#EFF9FF"/></g><g id="9d1b906afa" class="roomShape"><polygon points="-1.1491,3.6697 -2.5762,3.6697 -2.5762,4.6546 -2.5762,5.2752 -2.5762,7.4791 0.8961,7.4791 0.8961,3.6697" fill="#EFF9FF"/></g><g id="1e06b49e6a" class="roomShape"><polygon points="-3.7296,3.6643 -6.7413,3.6643 -6.7413,7.4791 -3.7296,7.4791 -3.7296,5.2752 -3.7296,4.6546" fill="#EFF9FF"/></g><g id="16c9ccbeea" class="roomShape"><polygon points="-3.7296,0.0881 -4.5106,0.0881 -6.7413,0.0881 -6.7413,3.55 -3.7296,3.55" fill="#EFF9FF"/></g><g id="297784324a" class="roomShape"><polygon points="-1.9095,0.6696 -1.9095,2.198 0.8961,2.198 0.8961,0.6696" fill="#EFF9FF"/></g><g id="73ec9eefea" class="roomShape"><polygon points="0.8961,2.3123 -1.092,2.3123 -1.092,3.5554 0.8961,3.5554" fill="#EFF9FF"/></g><g id="38be265d1a" class="roomShape"><polygon points="-3.6153,5.3324 -3.6153,7.4791 -2.6905,7.4791 -2.6905,5.3324" fill="#EFF9FF"/></g><g id="f06b17e2da" class="roomShape"><polygon points="-4.5678,-0.8186 -6.7413,-0.8186 -6.7413,-0.0262 -4.5678,-0.0262" fill="#EFF9FF"/></g><g id="92be17e00a" class="roomShape"><polygon points="-1.2063,2.3123 -2.5762,2.3123 -2.5762,3.5554 -1.2063,3.5554" fill="#EFF9FF"/></g><g id="96dcfde4fa" class="roomShape"><polygon points="6.9701,1.0007 6.9701,2.506 7.6702,2.506 7.6702,1.0007" fill="#EFF9FF"/><g class="pattern"><defs><pattern id="diagonalStripes_96dcfde4fa" width="1" height="1" patternUnits="userSpaceOnUse" patternTransform="scale(0.112, 0.112)"><rect width="400%" x="-100%" y="-100%" height="400%" fill="#EFF9FF"/><line x1="-0.4" y1="0.2" x2="1.4" y2="2" stroke="#0D4599" stroke-width="0.08"/><line x1="-0.4" y1="1.2" x2="1.4" y2="3" stroke="#0D4599" stroke-width="0.08"/><line x1="-0.4" y1="-0.8" x2="1.4" y2="1" stroke="#0D4599" stroke-width="0.08"/></pattern></defs><polygon points="6.9701,1.0007 6.9701,2.506 7.6702,2.506 7.6702,1.0007" fill="url(#diagonalStripes_96dcfde4fa)" stroke="none"/></g></g><g id="124f264f8a" class="roomShape"><polygon points="-3.7296,-0.8186 -4.4535,-0.8186 -4.4535,-0.0262 -3.7296,-0.0262" fill="#EFF9FF"/></g><g id="b17c07509a" class="roomShape"><polygon points="-2.6905,4.7118 -3.6153,4.7118 -3.6153,5.2181 -2.6905,5.2181" fill="#EFF9FF"/></g><g id="d79a78bc0a" class="roomShape"><polygon points="-2.5762,1.5595 -2.5762,2.198 -2.0238,2.198 -2.0238,1.5595" fill="#EFF9FF"/></g></g><g id="spiralStaircases"/><g id="walls"><g id="null-d1c1dcba0a" class="wall"><polygon points="-2.6607,-2.9499 -2.6036,-2.9499 -2.5464,-2.9499 -2.5464,-6.4961 -2.6036,-6.4961 -2.6607,-6.439" fill="#0D4599"/></g><g id="null-9f1f44f7ea" class="wall"><polygon points="1.0104,-1.1554 0.9532,-1.2126 0.8961,-1.2126 0.8961,-1.0513 0.9532,-1.0513 1.0104,-1.0513" fill="#0D4599"/></g><g id="null-1d43dd601a" class="wall"><polygon points="-3.6153,7.4791 -3.6724,7.5362 -3.6724,7.5934 -2.6334,7.5934 -2.6334,7.5362 -2.6905,7.4791" fill="#0D4599"/></g><g id="null-c8b36065ea" class="wall"><polygon points="-4.5106,-0.9329 -4.5106,-0.8758 -4.4535,-0.8186 -3.7296,-0.8186 -3.6724,-0.8758 -3.6153,-0.9329" fill="#0D4599"/></g><g id="null-cabae04f0a" class="wall"><polygon points="-3.6153,-0.9329 -3.6724,-0.8758 -3.7296,-0.8186 -3.7296,-0.0262 -3.6724,0.031 -3.6153,0.031" fill="#0D4599"/></g><g id="null-d7c31c157a" class="wall"><polygon points="-2.6905,5.3324 -2.6334,5.2752 -2.6905,5.2181 -3.6153,5.2181 -3.6724,5.2752 -3.6153,5.3324" fill="#0D4599"/></g><g id="null-9c7044a5fa" class="wall"><polygon points="-3.7296,3.55 -3.6724,3.6071 -3.6153,3.6071 -3.6153,0.031 -3.6724,0.031 -3.7296,0.0881" fill="#0D4599"/></g><g id="null-97531c847a" class="wall"><polygon points="7.6702,2.506 7.7274,2.5632 7.7845,2.5632 7.7845,0.9435 7.7274,0.9435 7.6702,1.0007" fill="#0D4599"/></g><g id="null-5974f0c41a" class="wall"><polygon points="0.8961,7.4791 0.9532,7.5362 1.0104,7.5934 1.0104,4.948 0.9532,4.8909 0.8961,4.8909" fill="#0D4599"/></g><g id="null-f4c5ca667a" class="wall"><polygon points="-6.7413,-6.439 -6.7985,-6.4961 -6.8556,-6.5533 -6.8556,-0.8758 -6.7985,-0.8758 -6.7413,-0.9329" fill="#0D4599"/></g><g id="null-621ec9127a" class="wall"><polygon points="-3.7296,3.6643 -3.6724,3.6071 -3.7296,3.55 -6.7413,3.55 -6.7985,3.6071 -6.7413,3.6643" fill="#0D4599"/></g><g id="null-de14bc356a" class="wall"><polygon points="1.0104,-1.2697 0.9532,-1.2126 1.0104,-1.1554 5.0699,-1.1554 5.0699,-1.2126 5.0128,-1.2697" fill="#0D4599"/></g><g id="null-f5d4ab814a" class="wall"><polygon points="-4.5106,0.0881 -4.5106,0.031 -4.5678,-0.0262 -6.7413,-0.0262 -6.7985,0.031 -6.7413,0.0881" fill="#0D4599"/></g><g id="null-8401580eaa" class="wall"><polygon points="-1.9095,1.5024 -1.9666,1.5024 -2.0238,1.5595 -2.0238,2.198 -1.9666,2.2551 -1.9095,2.198" fill="#0D4599"/></g><g id="null-1b5d50244a" class="wall"><polygon points="0.8961,0.6696 0.9532,0.6124 0.8961,0.5553 -1.9666,0.5553 -1.9666,0.6124 -1.9095,0.6696" fill="#0D4599"/></g><g id="null-08eb8e5eca" class="wall"><polygon points="-1.9666,2.3123 -1.9666,2.2551 -2.0238,2.198 -2.5762,2.198 -2.6334,2.2551 -2.5762,2.3123" fill="#0D4599"/></g><g id="null-815349c14a" class="wall"><polygon points="-6.7413,3.6643 -6.7985,3.6071 -6.8556,3.6071 -6.8556,7.5934 -6.7985,7.5362 -6.7413,7.4791" fill="#0D4599"/></g><g id="null-6d7521cf3a" class="wall"><polygon points="-1.2063,3.5554 -1.1491,3.6125 -1.092,3.5554 -1.092,2.3123 -1.1491,2.2551 -1.2063,2.3123" fill="#0D4599"/></g><g id="null-ecdefdb8ca" class="wall"><polygon points="-4.5678,-0.0262 -4.5106,0.031 -4.4535,-0.0262 -4.4535,-0.8186 -4.5106,-0.8758 -4.5678,-0.8186" fill="#0D4599"/></g><g id="null-353602bdca" class="wall"><polygon points="-6.7413,-0.9329 -6.7985,-0.8758 -6.7413,-0.8186 -4.5678,-0.8186 -4.5106,-0.8758 -4.5106,-0.9329" fill="#0D4599"/></g><g id="null-4f15051a2a" class="wall"><polygon points="-2.6607,-6.439 -2.6036,-6.4961 -2.6607,-6.5533 -6.8556,-6.5533 -6.7985,-6.4961 -6.7413,-6.439" fill="#0D4599"/></g><g id="null-e5f95b89fa" class="wall"><polygon points="5.0128,-1.2697 5.0699,-1.2126 5.1271,-1.2697 5.1271,-8.5948 5.0699,-8.5376 5.0128,-8.4805" fill="#0D4599"/></g><g id="null-bd40c5dcea" class="wall"><polygon points="5.0128,-8.4805 5.0699,-8.5376 5.1271,-8.5948 0.8961,-8.5948 0.9532,-8.5376 1.0104,-8.4805" fill="#0D4599"/></g><g id="null-3d979e984a" class="wall"><polygon points="7.6702,2.6203 7.7274,2.5632 7.6702,2.506 6.9701,2.506 6.9129,2.5632 6.8558,2.6203" fill="#0D4599"/></g><g id="null-305772cffa" class="wall"><polygon points="-1.2063,2.3123 -1.1491,2.2551 -1.1491,2.198 -1.9095,2.198 -1.9666,2.2551 -1.9666,2.3123" fill="#0D4599"/></g><g id="null-4a0662e58a" class="wall"><polygon points="1.0104,4.8337 0.9532,4.8909 1.0104,4.948 7.7845,4.948 7.7274,4.8909 7.6702,4.8337" fill="#0D4599"/></g><g id="null-a85363a55a" class="wall"><polygon points="1.0104,2.2551 0.9532,2.2551 0.8961,2.3123 0.8961,3.5554 0.9532,3.6125 1.0104,3.6125" fill="#0D4599"/></g><g id="null-7db343ef9a" class="wall"><polygon points="7.6702,4.8337 7.7274,4.8909 7.7845,4.948 7.7845,2.5632 7.7274,2.5632 7.6702,2.6203" fill="#0D4599"/></g><g id="null-06cb66e54a" class="wall"><polygon points="6.8558,0.8864 6.9129,0.9435 6.9701,1.0007 7.6702,1.0007 7.7274,0.9435 7.6702,0.8864" fill="#0D4599"/></g><g id="null-f07f0dde9a" class="wall"><polygon points="1.0104,3.6125 0.9532,3.6125 0.8961,3.6697 0.8961,4.8909 0.9532,4.8909 1.0104,4.8337" fill="#0D4599"/></g><g id="null-0acf3a3eca" class="wall"><polygon points="-3.6153,4.5975 -3.6724,4.6546 -3.6153,4.7118 -2.6905,4.7118 -2.6334,4.6546 -2.6905,4.5975" fill="#0D4599"/></g><g id="null-c66162796a" class="wall"><polygon points="1.0104,0.6124 0.9532,0.6124 0.8961,0.6696 0.8961,2.198 0.9532,2.2551 1.0104,2.2551" fill="#0D4599"/></g><g id="null-3944d503ea" class="wall"><polygon points="-2.5762,3.5554 -2.6334,3.6125 -2.5762,3.6697 -1.1491,3.6697 -1.1491,3.6125 -1.2063,3.5554" fill="#0D4599"/></g><g id="null-28874f6e7a" class="wall"><polygon points="6.9701,1.0007 6.9129,0.9435 6.8558,0.8864 6.8558,2.6203 6.9129,2.5632 6.9701,2.506" fill="#0D4599"/></g><g id="null-0fafafd3ca" class="wall"><polygon points="0.8961,-6.7704 0.9532,-6.8275 0.8961,-6.8847 -2.6607,-6.8847 -2.6036,-6.8275 -2.5464,-6.7704" fill="#0D4599"/></g><g id="null-82e03c76ba" class="wall"><polygon points="-6.7413,0.0881 -6.7985,0.031 -6.8556,0.031 -6.8556,3.6071 -6.7985,3.6071 -6.7413,3.55" fill="#0D4599"/></g><g id="null-ebf19a0d4a" class="wall"><polygon points="-6.7413,-0.8186 -6.7985,-0.8758 -6.8556,-0.8758 -6.8556,0.031 -6.7985,0.031 -6.7413,-0.0262" fill="#0D4599"/></g><g id="null-99f4f1627a" class="wall"><polygon points="-1.092,3.5554 -1.1491,3.6125 -1.1491,3.6697 0.8961,3.6697 0.9532,3.6125 0.8961,3.5554" fill="#0D4599"/></g><g id="null-36e83458fa" class="wall"><polygon points="-6.7413,7.4791 -6.7985,7.5362 -6.8556,7.5934 -3.6724,7.5934 -3.6724,7.5362 -3.7296,7.4791" fill="#0D4599"/></g><g id="null-13c238ddca" class="wall"><polygon points="-3.7296,0.0881 -3.6724,0.031 -3.7296,-0.0262 -4.4535,-0.0262 -4.5106,0.031 -4.5106,0.0881" fill="#0D4599"/></g><g id="null-d3faa4445a" class="wall"><polygon points="-3.7296,5.2752 -3.6724,5.2752 -3.6153,5.2181 -3.6153,4.7118 -3.6724,4.6546 -3.7296,4.6546" fill="#0D4599"/></g><g id="null-61a7cdb59a" class="wall"><polygon points="7.6702,0.8864 7.7274,0.9435 7.7845,0.9435 7.7845,-1.2697 7.7274,-1.2126 7.6702,-1.1554" fill="#0D4599"/></g><g id="null-a57ff1f06a" class="wall"><polygon points="-1.9095,0.6696 -1.9666,0.6124 -2.0238,0.6696 -2.0238,1.4452 -1.9666,1.5024 -1.9095,1.5024" fill="#0D4599"/></g><g id="null-249bdbebba" class="wall"><polygon points="-3.7296,7.4791 -3.6724,7.5362 -3.6153,7.4791 -3.6153,5.3324 -3.6724,5.2752 -3.7296,5.2752" fill="#0D4599"/></g><g id="null-5c7a5b8e9a" class="wall"><polygon points="0.8961,-1.2126 0.9532,-1.2126 1.0104,-1.2697 1.0104,-6.8275 0.9532,-6.8275 0.8961,-6.7704" fill="#0D4599"/></g><g id="null-7e4983638a" class="wall"><polygon points="-2.5762,4.6546 -2.6334,4.6546 -2.6905,4.7118 -2.6905,5.2181 -2.6334,5.2752 -2.5762,5.2752" fill="#0D4599"/></g><g id="null-a29ed47fca" class="wall"><polygon points="-2.5762,7.4791 -2.6334,7.5362 -2.6334,7.5934 1.0104,7.5934 0.9532,7.5362 0.8961,7.4791" fill="#0D4599"/></g><g id="null-a5c726edfa" class="wall"><polygon points="7.6702,-1.1554 7.7274,-1.2126 7.7845,-1.2697 5.1271,-1.2697 5.0699,-1.2126 5.0699,-1.1554" fill="#0D4599"/></g><g id="null-82c2dbf6fa" class="wall"><polygon points="-2.6905,7.4791 -2.6334,7.5362 -2.5762,7.4791 -2.5762,5.2752 -2.6334,5.2752 -2.6905,5.3324" fill="#0D4599"/></g><g id="null-9539ab7d8a" class="wall"><polygon points="-2.6905,1.4452 -2.6334,1.5024 -2.5762,1.5595 -2.0238,1.5595 -1.9666,1.5024 -2.0238,1.4452" fill="#0D4599"/></g><g id="null-ddc24655fa" class="wall"><polygon points="1.0104,0.3988 0.9532,0.3988 0.8961,0.3988 0.8961,0.5553 0.9532,0.6124 1.0104,0.6124" fill="#0D4599"/></g><g id="null-b1c06553ca" class="wall"><polygon points="-2.0238,0.6696 -1.9666,0.6124 -1.9666,0.5553 -2.5756,0.5553 -2.5756,0.6124 -2.5756,0.6696" fill="#0D4599"/></g><g id="null-f742dd751a" class="wall"><polygon points="-2.6905,4.5975 -2.6334,4.6546 -2.5762,4.6546 -2.5762,3.6697 -2.6334,3.6125 -2.6905,3.6125" fill="#0D4599"/></g><g id="null-f5e4e87f0a" class="wall"><polygon points="-3.7296,4.6546 -3.6724,4.6546 -3.6153,4.5975 -3.6153,3.6071 -3.6724,3.6071 -3.7296,3.6643" fill="#0D4599"/></g><g id="null-92c5826b2a" class="wall"><polygon points="-1.1491,2.198 -1.1491,2.2551 -1.092,2.3123 0.8961,2.3123 0.9532,2.2551 0.8961,2.198" fill="#0D4599"/></g><g id="null-20e71f326a" class="wall"><polygon points="-2.6905,2.2551 -2.6334,2.2551 -2.5762,2.198 -2.5762,1.5595 -2.6334,1.5024 -2.6905,1.4452" fill="#0D4599"/></g><g id="null-7fba5dfcda" class="wall"><polygon points="-2.5464,-6.7704 -2.6036,-6.8275 -2.6607,-6.8847 -2.6607,-6.5533 -2.6036,-6.4961 -2.5464,-6.4961" fill="#0D4599"/></g><g id="null-61cc01b07a" class="wall"><polygon points="-2.6905,3.6125 -2.6334,3.6125 -2.5762,3.5554 -2.5762,2.3123 -2.6334,2.2551 -2.6905,2.2551" fill="#0D4599"/></g><g id="null-cac3a0f78a" class="wall"><polygon points="1.0104,-8.4805 0.9532,-8.5376 0.8961,-8.5948 0.8961,-6.8847 0.9532,-6.8275 1.0104,-6.8275" fill="#0D4599"/></g></g><g id="doors"><g id="1e354bbd8a" class="door"><polygon points="-3.6152,-0.7162 -3.6152,-0.1136 -3.7295,-0.1136 -3.7295,-0.7162" fill="#ffffff"/><polygon points="-3.6229,-0.7086 -3.6229,-0.1212 -3.7219,-0.1212 -3.7219,-0.7086 -3.6229,-0.7086 -3.6152,-0.7162 -3.7295,-0.7162 -3.7295,-0.1136 -3.6152,-0.1136 -3.6152,-0.7162" fill="#9eafcd"/></g><g id="57f6c359ea" class="door"><polygon points="-3.7295,1.1271 -3.7295,0.2017 -3.6152,0.2017 -3.6152,1.1271" fill="#ffffff"/><polygon points="-3.7219,1.1195 -3.7219,0.2093 -3.6229,0.2093 -3.6229,1.1195 -3.7219,1.1195 -3.7295,1.1271 -3.6152,1.1271 -3.6152,0.2017 -3.7295,0.2017 -3.7295,1.1271" fill="#9eafcd"/></g><g id="0bdc6c24aa" class="door"><polygon points="-5.4368,0.0882 -6.081,0.0881 -6.081,-0.0262 -5.4368,-0.0261" fill="#ffffff"/><polygon points="-5.4444,0.0805 -6.0734,0.0805 -6.0734,-0.0185 -5.4444,-0.0185 -5.4444,0.0805 -5.4368,0.0882 -5.4368,-0.0261 -6.081,-0.0262 -6.081,0.0881 -5.4368,0.0882" fill="#9eafcd"/></g><g id="90a59a2e4a" class="door"><polygon points="-2.7833,-6.4389 -3.6995,-6.4389 -3.6995,-6.5532 -2.7833,-6.5532" fill="#ffffff"/><polygon points="-2.7909,-6.4466 -3.6919,-6.4466 -3.6919,-6.5456 -2.7909,-6.5456 -2.7909,-6.4466 -2.7833,-6.4389 -2.7833,-6.5532 -3.6995,-6.5532 -3.6995,-6.4389 -2.7833,-6.4389" fill="#9eafcd"/></g><g id="dcb1b7ad8a" class="door"><polygon points="4.7116,-8.4804 2.2111,-8.4804 2.2111,-8.5947 4.7116,-8.5947" fill="#ffffff"/><polygon points="4.7039,-8.4881 2.2187,-8.4881 2.2187,-8.5871 4.7039,-8.5871 4.7039,-8.4881 4.7116,-8.4804 4.7116,-8.5947 2.2111,-8.5947 2.2111,-8.4804 4.7116,-8.4804" fill="#9eafcd"/></g><g id="bb8e06691a" class="door"><polygon points="1.9188,4.8338 3.4284,4.8338 3.4284,4.9481 1.9188,4.9481" fill="#ffffff"/><polygon points="1.9264,4.8414 3.4208,4.8414 3.4208,4.9404 1.9264,4.9404 1.9264,4.8414 1.9188,4.8338 1.9188,4.9481 3.4284,4.9481 3.4284,4.8338 1.9188,4.8338" fill="#9eafcd"/></g><g id="b209c7bf4a" class="door"><polygon points="-3.4588,4.5975 -2.8458,4.5975 -2.8458,4.7118 -3.4588,4.7118" fill="#ffffff"/><polygon points="-3.4512,4.6051 -2.8534,4.6051 -2.8534,4.7041 -3.4512,4.7041 -3.4512,4.6051 -3.4588,4.5975 -3.4588,4.7118 -2.8458,4.7118 -2.8458,4.5975 -3.4588,4.5975" fill="#9eafcd"/></g><g id="7ea8e3472a" class="door"><polygon points="-1.8519,3.5554 -1.3455,3.5554 -1.3455,3.6697 -1.8519,3.6697" fill="#ffffff"/><polygon points="-1.8443,3.563 -1.3531,3.563 -1.3531,3.662 -1.8443,3.662 -1.8443,3.563 -1.8519,3.5554 -1.8519,3.6697 -1.3455,3.6697 -1.3455,3.5554 -1.8519,3.5554" fill="#9eafcd"/></g><g id="96acc3063a" class="door"><polygon points="0.1891,3.5554 0.7948,3.5554 0.7948,3.6697 0.1891,3.6697" fill="#ffffff"/><polygon points="0.1967,3.563 0.7871,3.563 0.7871,3.662 0.1967,3.662 0.1967,3.563 0.1891,3.5554 0.1891,3.6697 0.7948,3.6697 0.7948,3.5554 0.1891,3.5554" fill="#9eafcd"/></g><g id="328389baea" class="door"><polygon points="-1.9094,0.7591 -1.9094,1.3564 -2.0237,1.3564 -2.0237,0.7591" fill="#ffffff"/><polygon points="-1.9171,0.7667 -1.9171,1.3487 -2.0161,1.3487 -2.0161,0.7667 -1.9171,0.7667 -1.9094,0.7591 -2.0237,0.7591 -2.0237,1.3564 -1.9094,1.3564 -1.9094,0.7591" fill="#9eafcd"/></g><g id="e04e21878a" class="door"><polygon points="-3.7295,7.2344 -3.7295,5.814 -3.6152,5.814 -3.6152,7.2344" fill="#ffffff"/><polygon points="-3.7219,7.2268 -3.7219,5.8216 -3.6229,5.8216 -3.6229,7.2268 -3.7219,7.2268 -3.7295,7.2344 -3.6152,7.2344 -3.6152,5.814 -3.7295,5.814 -3.7295,7.2344" fill="#9eafcd"/></g><g id="525f06a88a" class="door"><polygon points="1.0104,-5.8087 1.0104,-5.0217 0.8961,-5.0217 0.8961,-5.8087" fill="#ffffff"/><polygon points="1.0027,-5.8011 1.0027,-5.0293 0.9037,-5.0293 0.9037,-5.8011 1.0027,-5.8011 1.0104,-5.8087 0.8961,-5.8087 0.8961,-5.0217 1.0104,-5.0217 1.0104,-5.8087" fill="#9eafcd"/></g><g id="7adb23890a" class="door"><polygon points="6.097,-1.1554 5.1947,-1.1554 5.1947,-1.2697 6.097,-1.2697" fill="#ffffff"/><polygon points="6.0893,-1.1631 5.2023,-1.1631 5.2023,-1.2621 6.0893,-1.2621 6.0893,-1.1631 6.097,-1.1554 6.097,-1.2697 5.1947,-1.2697 5.1947,-1.1554 6.097,-1.1554" fill="#9eafcd"/></g><g id="f93c0e8ffa" class="door"><polygon points="-2.5304,1.4453 -2.1357,1.4453 -2.1357,1.5596 -2.5304,1.5596" fill="#ffffff"/><polygon points="-2.5228,1.4529 -2.1434,1.4529 -2.1434,1.5519 -2.5228,1.5519 -2.5228,1.4529 -2.5304,1.4453 -2.5304,1.5596 -2.1357,1.5596 -2.1357,1.4453 -2.5304,1.4453" fill="#9eafcd"/></g><g id="3dd84953da" class="door"><polygon points="-2.6905,4.5576 -2.6905,3.8138 -2.5762,3.8138 -2.5762,4.5576" fill="#ffffff"/><polygon points="-2.6829,4.55 -2.6829,3.8214 -2.5839,3.8214 -2.5839,4.55 -2.6829,4.55 -2.6905,4.5576 -2.5762,4.5576 -2.5762,3.8138 -2.6905,3.8138 -2.6905,4.5576" fill="#9eafcd"/></g><g id="e536489c1a" class="door"><polygon points="-3.7295,4.4948 -3.7295,3.8404 -3.6152,3.8404 -3.6152,4.4948" fill="#ffffff"/><polygon points="-3.7219,4.4872 -3.7219,3.848 -3.6229,3.848 -3.6229,4.4872 -3.7219,4.4872 -3.7295,4.4948 -3.6152,4.4948 -3.6152,3.8404 -3.7295,3.8404 -3.7295,4.4948" fill="#9eafcd"/></g><g id="a3362882da" class="door"><polygon points="1.0104,-7.8505 1.0104,-7.1101 0.8961,-7.1101 0.8961,-7.8505" fill="#ffffff"/><polygon points="1.0027,-7.8429 1.0027,-7.1177 0.9037,-7.1177 0.9037,-7.8429 1.0027,-7.8429 1.0104,-7.8505 0.8961,-7.8505 0.8961,-7.1101 1.0104,-7.1101 1.0104,-7.8505" fill="#9eafcd"/></g></g><g id="windows"><g id="ba0b07c4da" class="window"><polygon points="-5.9499,-6.4389 -5.9499,-6.5532 -4.1445,-6.5532 -4.1445,-6.4389" fill="#ffffff"/><polygon points="-5.9423,-6.4466 -5.9423,-6.5456 -4.1521,-6.5456 -4.1521,-6.4466 -5.9423,-6.4466 -5.9499,-6.4389 -4.1445,-6.4389 -4.1445,-6.5532 -5.9499,-6.5532 -5.9499,-6.4389" fill="#010101"/><polygon points="-5.828,-6.4466 -5.828,-6.5456 -4.2664,-6.5456 -4.2664,-6.4466 -5.828,-6.4466 -5.8356,-6.4389 -4.2588,-6.4389 -4.2588,-6.5532 -5.8356,-6.5532 -5.8356,-6.4389" fill="#010101"/><polygon points="-5.8356,-6.4923 -5.8356,-6.4999 -4.2588,-6.4999 -4.2588,-6.4923" fill="#010101"/></g><g id="ecc4961c1a" class="window"><polygon points="6.1284,4.8338 6.1284,4.9481 4.5727,4.9481 4.5727,4.8338" fill="#ffffff"/><polygon points="6.1207,4.8414 6.1207,4.9404 4.5803,4.9404 4.5803,4.8414 6.1207,4.8414 6.1284,4.8338 4.5727,4.8338 4.5727,4.9481 6.1284,4.9481 6.1284,4.8338" fill="#010101"/><polygon points="6.0064,4.8414 6.0064,4.9404 4.6946,4.9404 4.6946,4.8414 6.0064,4.8414 6.0141,4.8338 4.687,4.8338 4.687,4.9481 6.0141,4.9481 6.0141,4.8338" fill="#010101"/><polygon points="6.0141,4.8871 6.0141,4.8947 4.687,4.8947 4.687,4.8871" fill="#010101"/></g><g id="12af10375a" class="window"><polygon points="-1.2706,-6.7703 -1.2706,-6.8846 -0.4426,-6.8846 -0.4426,-6.7703" fill="#ffffff"/><polygon points="-1.263,-6.778 -1.263,-6.877 -0.4502,-6.877 -0.4502,-6.778 -1.263,-6.778 -1.2706,-6.7703 -0.4426,-6.7703 -0.4426,-6.8846 -1.2706,-6.8846 -1.2706,-6.7703" fill="#010101"/><polygon points="-1.1487,-6.778 -1.1487,-6.877 -0.5645,-6.877 -0.5645,-6.778 -1.1487,-6.778 -1.1563,-6.7703 -0.5569,-6.7703 -0.5569,-6.8846 -1.1563,-6.8846 -1.1563,-6.7703" fill="#010101"/><polygon points="-1.1563,-6.8237 -1.1563,-6.8313 -0.5569,-6.8313 -0.5569,-6.8237" fill="#010101"/></g><g id="cd01206aca" class="window"><polygon points="-6.7413,2.5022 -6.8556,2.5022 -6.8556,1.3333 -6.7413,1.3333" fill="#ffffff"/><polygon points="-6.749,2.4945 -6.848,2.4945 -6.848,1.3409 -6.749,1.3409 -6.749,2.4945 -6.7413,2.5022 -6.7413,1.3333 -6.8556,1.3333 -6.8556,2.5022 -6.7413,2.5022" fill="#010101"/><polygon points="-6.749,2.3802 -6.848,2.3802 -6.848,1.4552 -6.749,1.4552 -6.749,2.3802 -6.7413,2.3879 -6.7413,1.4476 -6.8556,1.4476 -6.8556,2.3879 -6.7413,2.3879" fill="#010101"/><polygon points="-6.7947,2.3879 -6.8023,2.3879 -6.8023,1.4476 -6.7947,1.4476" fill="#010101"/></g><g id="4f967b1bda" class="window"><polygon points="-4.3817,7.4791 -4.3817,7.5934 -5.6199,7.5934 -5.6199,7.4791" fill="#ffffff"/><polygon points="-4.3893,7.4867 -4.3893,7.5857 -5.6123,7.5857 -5.6123,7.4867 -4.3893,7.4867 -4.3817,7.4791 -5.6199,7.4791 -5.6199,7.5934 -4.3817,7.5934 -4.3817,7.4791" fill="#010101"/><polygon points="-4.5036,7.4867 -4.5036,7.5857 -5.498,7.5857 -5.498,7.4867 -4.5036,7.4867 -4.496,7.4791 -5.5056,7.4791 -5.5056,7.5934 -4.496,7.5934 -4.496,7.4791" fill="#010101"/><polygon points="-4.496,7.5324 -4.496,7.54 -5.5056,7.54 -5.5056,7.5324" fill="#010101"/></g><g id="d858af81aa" class="window"><polygon points="0.0815,7.4791 0.0815,7.5934 -1.4535,7.5934 -1.4535,7.4791" fill="#ffffff"/><polygon points="0.0739,7.4867 0.0739,7.5857 -1.4459,7.5857 -1.4459,7.4867 0.0739,7.4867 0.0815,7.4791 -1.4535,7.4791 -1.4535,7.5934 0.0815,7.5934 0.0815,7.4791" fill="#010101"/><polygon points="-0.0404,7.4867 -0.0404,7.5857 -1.3316,7.5857 -1.3316,7.4867 -0.0404,7.4867 -0.0328,7.4791 -1.3392,7.4791 -1.3392,7.5934 -0.0328,7.5934 -0.0328,7.4791" fill="#010101"/><polygon points="-0.0328,7.5324 -0.0328,7.54 -1.3392,7.54 -1.3392,7.5324" fill="#010101"/></g></g><g id="footprint"><polygon points="-6.8556,7.5934 1.0104,7.5934 1.0104,4.948 7.7845,4.948 7.7845,-1.2697 5.1271,-1.2697 5.1271,-8.5948 0.8961,-8.5948 0.8961,-6.8847 -2.6607,-6.8847 -2.6607,-6.5533 -6.8556,-6.5533" fill="none"/></g><g id="fixtures"/><g id="notes"><g id="a2fe17acea" class="note" data-room="73ec9eefea"><g class="virtualSpace"><polygon points="0.8961,3.5554 0.8961,2.3123 -1.092,2.3123 -1.092,3.5554" class="dimensionsArea" fill="none"/></g><g class="label" transform="translate(-0.098,2.7803) rotate(0)"><g transform="translate(0,0.4605)"><g transform="scale(1,-1)"><text style="font-size:0.239px">Primary </text></g></g><g transform="translate(0,0.15350000000000003)"><g transform="scale(1,-1)"><text style="font-size:0.239px">Bathroom</text></g></g></g><g class="dimensionLabel" transform="translate(-0.098,2.7803) rotate(0) translate(0,-0.128)"><g transform="scale(1,-1)"><text style="font-size:0.188px">6'6" x 4'1"</text></g></g></g><g id="be74b34fca" class="note" data-room="b17c07509a"><g class="label" transform="translate(-3.181,4.8544) rotate(0)"><g transform="translate(0,0.1535)"><g transform="scale(1,-1)"><text style="font-size:0.239px">Closet</text></g></g></g></g><g id="cd2e58ab7a" class="note" data-room="297784324a"><g class="virtualSpace"><polygon points="0.8961,2.198 0.8961,0.6696 -1.9095,0.6696 -1.9095,2.198" class="dimensionsArea" fill="none"/></g><g class="label" transform="translate(-0.5067,1.4338) rotate(0)"><g transform="translate(0,0.1535)"><g transform="scale(1,-1)"><text style="font-size:0.239px">Bathroom</text></g></g></g><g class="dimensionLabel" transform="translate(-0.5067,1.4338) rotate(0) translate(0,-0.128)"><g transform="scale(1,-1)"><text style="font-size:0.188px">9'2" x 5'0"</text></g></g></g><g id="c5b0db33ea" class="note" data-room="5b51314c9a"><g class="virtualSpace"><polygon points="0.8961,-3.2526 0.8961,-6.7704 -2.5464,-6.7704 -2.5464,-3.2526" class="dimensionsArea" fill="none"/></g><g class="label" transform="translate(-0.8252,-5.0115) rotate(0)"><g transform="translate(0,0.1535)"><g transform="scale(1,-1)"><text style="font-size:0.239px">Kitchen</text></g></g></g><g class="dimensionLabel" transform="translate(-0.8252,-5.0115) rotate(0) translate(0,-0.128)"><g transform="scale(1,-1)"><text style="font-size:0.188px">11'4" x 11'6"</text></g></g></g><g id="fe933fea0a" class="note" data-room="16c9ccbeea"><g class="virtualSpace"><polygon points="-3.7296,3.55 -3.7296,0.0881 -4.5106,0.0881 -6.7413,0.0881 -6.7413,3.55" class="dimensionsArea" fill="none"/></g><g class="label" transform="translate(-5.2355,1.819) rotate(0)"><g transform="translate(0,0.1535)"><g transform="scale(1,-1)"><text style="font-size:0.239px">Bedroom</text></g></g></g><g class="dimensionLabel" transform="translate(-5.2355,1.819) rotate(0) translate(0,-0.128)"><g transform="scale(1,-1)"><text style="font-size:0.188px">9'11" x 11'4"</text></g></g></g><g id="e750080bca" class="note" data-room="5b51314c9a"><g class="virtualSpace"><polygon points="0.8961,0.5553 0.8961,0.3988 0.8961,0.3988 0.8961,-1.0513 0.8961,-1.0513 0.8961,-1.2126 0.8961,-3.1383 -2.5464,-3.1383 -2.5464,-2.9499 -2.6607,-2.9499 -2.6607,-3.1383 -3.6153,-3.1383 -3.6153,-0.9329 -3.6153,-0.9329 -3.6153,0.5553 -1.7914,0.5553" class="dimensionsArea" fill="none"/></g><g class="label" transform="translate(-1.2136,-0.9814) rotate(0)"><g transform="translate(0,0.1535)"><g transform="scale(1,-1)"><text style="font-size:0.239px">Dining Room</text></g></g></g><g class="dimensionLabel" transform="translate(-1.2136,-0.9814) rotate(0) translate(0,-0.128)"><g transform="scale(1,-1)"><text style="font-size:0.188px">14'10" x 12'1"</text></g></g></g><g id="9b3321cc3a" class="note" data-room="1e06b49e6a"><g class="virtualSpace"><polygon points="-3.7296,7.4791 -3.7296,5.8336 -3.7296,3.6643 -6.7413,3.6643 -6.7413,7.4791" class="dimensionsArea" fill="none"/></g><g class="label" transform="translate(-5.2355,5.5717) rotate(0)"><g transform="translate(0,0.1535)"><g transform="scale(1,-1)"><text style="font-size:0.239px">Bedroom</text></g></g></g><g class="dimensionLabel" transform="translate(-5.2355,5.5717) rotate(0) translate(0,-0.128)"><g transform="scale(1,-1)"><text style="font-size:0.188px">9'11" x 12'6"</text></g></g></g><g id="ddcf49b55a" class="note" data-room="92be17e00a"><g class="virtualSpace"><polygon points="-1.2063,3.5554 -1.2063,2.3123 -2.5762,2.3123 -2.5762,3.5554" class="dimensionsArea" fill="none"/></g><g class="label" transform="translate(-1.8913,2.7803) rotate(0)"><g transform="translate(0,0.4605)"><g transform="scale(1,-1)"><text style="font-size:0.239px">Primary</text></g></g><g transform="translate(0,0.15350000000000003)"><g transform="scale(1,-1)"><text style="font-size:0.239px"> Closet</text></g></g></g><g class="dimensionLabel" transform="translate(-1.8913,2.7803) rotate(0) translate(0,-0.128)"><g transform="scale(1,-1)"><text style="font-size:0.188px">4'6" x 4'1"</text></g></g></g><g id="50bcf6459a" class="note" data-room="38be265d1a"><g class="virtualSpace"><polygon points="-2.6905,7.4791 -2.6905,5.3324 -3.6153,5.3324 -3.6153,7.4791" class="dimensionsArea" fill="none"/></g><g class="label" transform="translate(-3.1529,6.4057) rotate(270)"><g transform="translate(0,0.1535)"><g transform="scale(1,-1)"><text style="font-size:0.239px">Closet</text></g></g></g><g class="dimensionLabel" transform="translate(-3.1529,6.4057) rotate(270) translate(0,-0.128)"><g transform="scale(1,-1)"><text style="font-size:0.188px">3'0" x 7'1"</text></g></g></g><g id="5c927fda8a" class="note" data-room="96dcfde4fa"><g class="label" transform="translate(7.2359,1.7681) rotate(270)"><g transform="translate(0,0.1535)"><g transform="scale(1,-1)"><text style="font-size:0.239px">Fireplace</text></g></g></g></g><g id="ccf89e663a" class="note"><g class="label" transform="translate(-3.2602,-7.3557) rotate(0)"><g class="entryTriangle" transform="translate(0,0.5784462890625001)                      rotate(0)"><g><polygon points="-0.1667,-0.142 -0.1721,-0.1418 -0.1769,-0.1412 -0.1808,-0.1403 -0.184,-0.139 -0.1865,-0.1373 -0.1882,-0.1352 -0.1891,-0.1327 -0.1893,-0.1299 -0.1887,-0.1267 -0.1873,-0.1231 -0.1853,-0.1191 -0.1824,-0.1147 -0.0185,0.1159 -0.0155,0.1199 -0.0124,0.1232 -0.0093,0.1257 -0.0062,0.1275 -0.0031,0.1286 -0.0001,0.129 0.003,0.1286 0.0061,0.1275 0.0091,0.1257 0.0122,0.1232 0.0152,0.1199 0.0183,0.1159 0.1818,-0.1179 0.1842,-0.1217 0.1861,-0.1253 0.1872,-0.1284 0.1877,-0.1313 0.1875,-0.1338 0.1867,-0.136 0.1852,-0.1378 0.1831,-0.1393 0.1803,-0.1405 0.1768,-0.1413 0.1726,-0.1418 0.1678,-0.142" fill="#44d8b6"/></g></g><g transform="translate(0,0.1535)"><g transform="scale(1,-1)"><text style="font-size:0.239px">Entry</text></g></g></g></g><g id="5c0f2835ba" class="note" data-room="5b51314c9a"><g class="virtualSpace"><polygon points="-2.6607,-0.9329 -2.6607,-2.9499 -2.6607,-2.9499 -2.6607,-6.439 -6.7413,-6.439 -6.7413,-0.9329" class="dimensionsArea" fill="none"/></g><g class="label" transform="translate(-4.701,-3.686) rotate(0)"><g transform="translate(0,0.1535)"><g transform="scale(1,-1)"><text style="font-size:0.239px">Living Room</text></g></g></g><g class="dimensionLabel" transform="translate(-4.701,-3.686) rotate(0) translate(0,-0.128)"><g transform="scale(1,-1)"><text style="font-size:0.188px">13'5" x 18'1"</text></g></g></g><g id="58e844892a" class="note" data-room="f06b17e2da"><g class="virtualSpace"><polygon points="-4.5678,-0.0262 -4.5678,-0.8186 -6.7413,-0.8186 -6.7413,-0.0262" class="dimensionsArea" fill="none"/></g><g class="label" transform="translate(-5.6546,-0.4224) rotate(0)"><g transform="translate(0,0.1535)"><g transform="scale(1,-1)"><text style="font-size:0.239px">Closet</text></g></g></g><g class="dimensionLabel" transform="translate(-5.6546,-0.4224) rotate(0) translate(0,-0.128)"><g transform="scale(1,-1)"><text style="font-size:0.188px">7'2" x 2'7"</text></g></g></g><g id="98c143e52a" class="note" data-room="5b51314c9a"><g class="virtualSpace"><polygon points="7.6702,4.8337 7.6702,2.6203 6.8558,2.6203 6.8558,0.8864 7.6702,0.8864 7.6702,-1.1554 5.0699,-1.1554 1.0104,-1.1554 1.0104,-1.0513 1.0104,-1.0513 1.0104,0.3988 1.0104,0.3988 1.0104,0.6124 1.0104,2.2551 1.0104,3.6125 1.0104,4.8337" class="dimensionsArea" fill="none"/></g><g class="label" transform="translate(4.23,1.844) rotate(0)"><g transform="translate(0,0.1535)"><g transform="scale(1,-1)"><text style="font-size:0.239px">Family Room</text></g></g></g><g class="dimensionLabel" transform="translate(4.23,1.844) rotate(0) translate(0,-0.128)"><g transform="scale(1,-1)"><text style="font-size:0.188px">21'10" x 19'8"</text></g></g></g><g id="97efaa763a" class="note" data-room="9feda3504a"><g class="virtualSpace"><polygon points="5.0128,-1.2697 5.0128,-8.4805 1.0104,-8.4805 1.0104,-1.2697" class="dimensionsArea" fill="none"/></g><g class="label" transform="translate(3.0116,-4.8751) rotate(0)"><g transform="translate(0,0.1535)"><g transform="scale(1,-1)"><text style="font-size:0.239px">Garage</text></g></g></g><g class="dimensionLabel" transform="translate(3.0116,-4.8751) rotate(0) translate(0,-0.128)"><g transform="scale(1,-1)"><text style="font-size:0.188px">13'2" x 23'8"</text></g></g></g><g id="1d7121efca" class="note" data-room="124f264f8a"><g class="label" transform="translate(-3.8687,-0.4186) rotate(90)"><g transform="translate(0,0.1535)"><g transform="scale(1,-1)"><text style="font-size:0.239px">Closet</text></g></g></g></g><g id="ad69270eda" class="note" data-room="9d1b906afa"><g class="virtualSpace"><polygon points="0.8961,7.4791 0.8961,3.6697 -1.1491,3.6697 -2.5762,3.6697 -2.5762,4.6546 -2.5762,7.4791" class="dimensionsArea" fill="none"/></g><g class="label" transform="translate(-0.8401,5.5744) rotate(0)"><g transform="translate(0,0.1535)"><g transform="scale(1,-1)"><text style="font-size:0.239px">Primary Bedroom</text></g></g></g><g class="dimensionLabel" transform="translate(-0.8401,5.5744) rotate(0) translate(0,-0.128)"><g transform="scale(1,-1)"><text style="font-size:0.188px">11'5" x 12'6"</text></g></g></g></g></g></g></svg>