<?xml version="1.0" standalone="no"?>
<!DOCTYPE svg PUBLIC "-//W3C//DTD SVG 1.1//EN" "http://www.w3.org/Graphics/SVG/1.1/DTD/svg11.dtd" >
<svg xmlns="http://www.w3.org/2000/svg" xmlns:xlink="http://www.w3.org/1999/xlink" version="1.1">
<metadata>
Created by FontForge 20190801 at Wed Apr 12 09:05:17 2023
 By www-data
Copyright 2022 The Instrument Sans Project Authors (https://github.com/Instrument/instrument-sans)
</metadata>
<defs>
<font id="InstrumentSans-SemiBold" horiz-adv-x="621" >
  <font-face 
    font-family="Instrument Sans SemiBold"
    font-weight="600"
    font-stretch="normal"
    units-per-em="1000"
    panose-1="0 0 0 0 0 0 0 0 0 0"
    ascent="800"
    descent="-200"
    x-height="510"
    cap-height="720"
    bbox="-71 -332 2117 986"
    underline-thickness="38"
    underline-position="-199"
    unicode-range="U+0020-2212"
  />
<missing-glyph horiz-adv-x="665" 
d="M62 0v720h541v-720h-541zM192 103h281v514h-281v-514z" />
    <glyph glyph-name="f_f_i" unicode="ffi" horiz-adv-x="951" 
d="M107 0v557q0 84 46.5 128.5t139.5 44.5q21 0 35 -2t27 -6v-105q-7 3 -18 4.5t-25 1.5q-40 0 -59.5 -19.5t-19.5 -56.5v-547h-126zM434 0v557q0 84 47 128.5t140 44.5q20 0 34.5 -2t26.5 -6v-105q-7 3 -17.5 4.5t-24.5 1.5q-41 0 -60 -19.5t-19 -56.5v-547h-127zM761 0
v510h127v-510h-127zM15 411v99h785v-99h-785zM759 587v133h131v-133h-131z" />
    <glyph glyph-name="f_f_l" unicode="ffl" horiz-adv-x="955" 
d="M434 0v547q0 84 47 128.5t141 44.5h203v-107h-185q-41 0 -60 -19.5t-19 -56.5v-537h-127zM107 0v547q0 84 46.5 128.5t139.5 44.5q21 0 35 -2t27 -6v-105q-7 3 -18 4.5t-25 1.5q-40 0 -59.5 -19.5t-19.5 -56.5v-537h-126zM15 405v105h648v-105h-648zM761 0v720h127v-720
h-127z" />
    <glyph glyph-name="f_i" unicode="fi" horiz-adv-x="611" 
d="M107 0v557q0 84 46.5 128.5t139.5 44.5q21 0 35 -2t27 -6v-105q-7 3 -18 4.5t-25 1.5q-40 0 -59.5 -19.5t-19.5 -56.5v-547h-126zM434 0v510h127v-510h-127zM15 405v105h458v-105h-458zM432 587v133h131v-133h-131z" />
    <glyph glyph-name="f_l" unicode="fl" horiz-adv-x="627" 
d="M107 0v547q0 84 47 128.5t141 44.5h203v-107h-186q-40 0 -59.5 -19.5t-19.5 -56.5v-537h-126zM15 405v105h320v-105h-320zM434 0v720h127v-720h-127z" />
    <glyph glyph-name="w_w_w.liga" unicode="www" horiz-adv-x="2133" 
d="M172 0l-156 510h132l92 -383h-9l113 383h115l115 -383h-10l113 383h115l115 -383h-10l114 383h115l114 -383h-9l113 383h115l114 -383h-9l113 383h115l115 -383h-10l91 383h129l-156 -510h-118l-115 379h10l-115 -379h-113l-115 379h10l-116 -379h-113l-114 379h9
l-115 -379h-113l-115 379h10l-115 -379h-113l-115 379h10l-115 -379h-118z" />
    <glyph glyph-name="hyphen_greater.liga" unicode="&#x2d;&#x3e;" horiz-adv-x="850" 
d="M60 419h649l-73 -51l-335 335h161l341 -343l-342 -343h-160l335 335l73 -51h-649v118z" />
    <glyph glyph-name="less_hyphen.liga" unicode="&#x3c;&#x2d;" horiz-adv-x="850" 
d="M803 301h-648l72 51l335 -335h-160l-342 343l342 343h161l-336 -335l-72 51h648v-118z" />
    <glyph glyph-name=".notdef" horiz-adv-x="665" 
d="M62 0v720h541v-720h-541zM192 103h281v514h-281v-514z" />
    <glyph glyph-name="A" unicode="A" horiz-adv-x="733" 
d="M28 0l265 720h112l-249 -720h-128zM571 0l-248 720h118l264 -720h-134zM165 283h394v-104h-394v104z" />
    <glyph glyph-name="Aacute" unicode="&#xc1;" horiz-adv-x="733" 
d="M28 0l265 720h112l-249 -720h-128zM571 0l-248 720h118l264 -720h-134zM165 283h394v-104h-394v104zM390 793h-113l104 157h173z" />
    <glyph glyph-name="Abreve" unicode="&#x102;" horiz-adv-x="733" 
d="M28 0l265 720h112l-249 -720h-128zM571 0l-248 720h118l264 -720h-134zM165 283h394v-104h-394v104zM367 786q-50 0 -88.5 20.5t-60.5 58t-22 85.5h88q0 -34 22 -53.5t61 -19.5t60.5 19.5t21.5 53.5h89q0 -48 -22.5 -85t-60.5 -58t-88 -21z" />
    <glyph glyph-name="uni01CD" unicode="&#x1cd;" horiz-adv-x="733" 
d="M28 0l265 720h112l-249 -720h-128zM571 0l-248 720h118l264 -720h-134zM165 283h394v-104h-394v104zM300 793l-131 157h108l144 -130h-109l144 130h108l-131 -157h-133z" />
    <glyph glyph-name="Acircumflex" unicode="&#xc2;" horiz-adv-x="733" 
d="M28 0l265 720h112l-249 -720h-128zM571 0l-248 720h118l264 -720h-134zM165 283h394v-104h-394v104zM169 793l131 157h133l131 -157h-108l-144 130h109l-144 -130h-108z" />
    <glyph glyph-name="Adieresis" unicode="&#xc4;" horiz-adv-x="733" 
d="M28 0l265 720h112l-249 -720h-128zM571 0l-248 720h118l264 -720h-134zM165 283h394v-104h-394v104zM413 803v140h137v-140h-137zM183 803v140h137v-140h-137z" />
    <glyph glyph-name="Agrave" unicode="&#xc0;" horiz-adv-x="733" 
d="M28 0l265 720h112l-249 -720h-128zM571 0l-248 720h118l264 -720h-134zM165 283h394v-104h-394v104zM343 793l-163 157h173l104 -157h-114z" />
    <glyph glyph-name="Amacron" unicode="&#x100;" horiz-adv-x="733" 
d="M28 0l265 720h112l-249 -720h-128zM571 0l-248 720h118l264 -720h-134zM165 283h394v-104h-394v104zM186 835v92h360v-92h-360z" />
    <glyph glyph-name="Aogonek" unicode="&#x104;" horiz-adv-x="733" 
d="M28 0l265 720h112l-249 -720h-128zM571 0l-248 720h118l264 -720h-134zM165 283h394v-104h-394v104zM635 -216q-51 0 -78.5 24t-27.5 62q0 44 35 80.5t92 66.5l49 -17q-47 -36 -68 -62.5t-21 -51.5q0 -16 9 -25t22 -9q22 0 38 14l29 -60q-14 -11 -33 -16.5t-46 -5.5z" />
    <glyph glyph-name="Aring" unicode="&#xc5;" horiz-adv-x="733" 
d="M28 0l265 720h112l-249 -720h-128zM571 0l-248 720h118l264 -720h-134zM165 283h394v-104h-394v104zM367 771q-46 0 -77 31.5t-31 76.5q0 44 31 75.5t77 31.5t76.5 -31.5t30.5 -75.5q0 -45 -30.5 -76.5t-76.5 -31.5zM367 837q17 0 28.5 12.5t11.5 29.5t-11.5 29t-28.5 12
q-18 0 -29.5 -12t-11.5 -29t11.5 -29.5t29.5 -12.5z" />
    <glyph glyph-name="Atilde" unicode="&#xc3;" horiz-adv-x="733" 
d="M28 0l265 720h112l-249 -720h-128zM571 0l-248 720h118l264 -720h-134zM165 283h394v-104h-394v104zM442 802q-28 0 -48.5 8.5t-38 20t-34 20t-34.5 8.5q-21 0 -33.5 -14t-12.5 -37h-79q0 38 15.5 69t45 49.5t70.5 18.5q29 0 50 -8.5t37 -20t31.5 -20t33.5 -8.5
q22 0 34.5 14t12.5 37h79q0 -38 -15.5 -69t-44.5 -49.5t-69 -18.5z" />
    <glyph glyph-name="AE" unicode="&#xc6;" horiz-adv-x="967" 
d="M28 0l265 720h113l-250 -720h-128zM483 0v720h130v-720h-130zM545 0v103h372v-103h-372zM234 320v101h648v-101h-648zM337 617v103h570v-103h-570z" />
    <glyph glyph-name="B" unicode="B" horiz-adv-x="645" 
d="M164 0v96h201q55 0 85 30.5t30 83.5q0 55 -32 87t-89 32h-195v96h186q54 0 83 26t29 75q0 48 -27.5 73t-80.5 25h-190v96h214q97 0 155.5 -48.5t58.5 -131.5q0 -52 -24.5 -90.5t-65.5 -59.5t-93 -21l5 21q55 0 100 -24.5t71.5 -68.5t26.5 -102q0 -59 -27.5 -103t-77 -68
t-116.5 -24h-227zM62 0v720h130v-720h-130z" />
    <glyph glyph-name="C" unicode="C" horiz-adv-x="747" 
d="M391 -10q-77 0 -141.5 27.5t-112.5 77.5t-74 118t-26 149t26 148t73.5 116.5t112 76.5t142.5 27q86 0 155 -34t113.5 -95.5t54.5 -144.5h-128q-12 81 -65 124.5t-129 43.5q-67 0 -117 -32t-78 -90.5t-28 -138.5q0 -82 28 -141.5t79 -92.5t117 -33q74 0 127 43.5t67 123.5
h129q-12 -82 -56.5 -144t-113.5 -95.5t-155 -33.5z" />
    <glyph glyph-name="Cacute" unicode="&#x106;" horiz-adv-x="747" 
d="M391 -10q-77 0 -141.5 27.5t-112.5 77.5t-74 118t-26 149t26 148t73.5 116.5t112 76.5t142.5 27q86 0 155 -34t113.5 -95.5t54.5 -144.5h-128q-12 81 -65 124.5t-129 43.5q-67 0 -117 -32t-78 -90.5t-28 -138.5q0 -82 28 -141.5t79 -92.5t117 -33q74 0 127 43.5t67 123.5
h129q-12 -82 -56.5 -144t-113.5 -95.5t-155 -33.5zM409 793h-113l104 157h173z" />
    <glyph glyph-name="Ccaron" unicode="&#x10c;" horiz-adv-x="747" 
d="M391 -10q-77 0 -141.5 27.5t-112.5 77.5t-74 118t-26 149t26 148t73.5 116.5t112 76.5t142.5 27q86 0 155 -34t113.5 -95.5t54.5 -144.5h-128q-12 81 -65 124.5t-129 43.5q-67 0 -117 -32t-78 -90.5t-28 -138.5q0 -82 28 -141.5t79 -92.5t117 -33q74 0 127 43.5t67 123.5
h129q-12 -82 -56.5 -144t-113.5 -95.5t-155 -33.5zM320 793l-131 157h108l144 -130h-109l144 130h108l-131 -157h-133z" />
    <glyph glyph-name="Ccedilla" unicode="&#xc7;" horiz-adv-x="747" 
d="M391 -10q-77 0 -141.5 27.5t-112.5 77.5t-74 118t-26 149t26 148t73.5 116.5t112 76.5t142.5 27q86 0 155 -34t113.5 -95.5t54.5 -144.5h-128q-12 81 -65 124.5t-129 43.5q-67 0 -117 -32t-78 -90.5t-28 -138.5q0 -82 28 -141.5t79 -92.5t117 -33q74 0 127 43.5t67 123.5
h129q-12 -82 -56.5 -144t-113.5 -95.5t-155 -33.5zM379 -215q-59 0 -94 25t-37 69h84q2 -16 14.5 -23.5t31.5 -7.5q15 0 26.5 6.5t11.5 18.5q0 15 -18.5 24t-70.5 12l26 103h75l-13 -47q45 -10 66.5 -33.5t21.5 -57.5q0 -39 -33 -64t-91 -25z" />
    <glyph glyph-name="Cdotaccent" unicode="&#x10a;" horiz-adv-x="747" 
d="M391 -10q-77 0 -141.5 27.5t-112.5 77.5t-74 118t-26 149t26 148t73.5 116.5t112 76.5t142.5 27q86 0 155 -34t113.5 -95.5t54.5 -144.5h-128q-12 81 -65 124.5t-129 43.5q-67 0 -117 -32t-78 -90.5t-28 -138.5q0 -82 28 -141.5t79 -92.5t117 -33q74 0 127 43.5t67 123.5
h129q-12 -82 -56.5 -144t-113.5 -95.5t-155 -33.5zM318 804v139h137v-139h-137z" />
    <glyph glyph-name="D" unicode="D" horiz-adv-x="755" 
d="M141 0v104h186q82 0 140 33t88.5 92t30.5 135q0 75 -30.5 132t-88 88.5t-140.5 31.5h-184v104h184q118 0 206 -44t136.5 -124.5t48.5 -189.5t-49 -190.5t-136.5 -126.5t-204.5 -45h-187zM62 0v720h130v-720h-130z" />
    <glyph glyph-name="Eth" unicode="&#xd0;" horiz-adv-x="765" 
d="M7 310v103h383v-103h-383zM154 0v104h186q82 0 140 33t88.5 92t30.5 135q0 75 -30 132t-88 88.5t-141 31.5h-184v104h184q118 0 206 -44t136.5 -124.5t48.5 -189.5t-49 -190.5t-136.5 -126.5t-204.5 -45h-187zM75 0v720h130v-720h-130z" />
    <glyph glyph-name="Dcaron" unicode="&#x10e;" horiz-adv-x="755" 
d="M141 0v104h186q82 0 140 33t88.5 92t30.5 135q0 75 -30.5 132t-88 88.5t-140.5 31.5h-184v104h184q118 0 206 -44t136.5 -124.5t48.5 -189.5t-49 -190.5t-136.5 -126.5t-204.5 -45h-187zM62 0v720h130v-720h-130zM312 793l-131 157h108l144 -130h-109l144 130h108
l-131 -157h-133z" />
    <glyph glyph-name="Dcroat" unicode="&#x110;" horiz-adv-x="765" 
d="M7 310v103h383v-103h-383zM154 0v104h186q82 0 140 33t88.5 92t30.5 135q0 75 -30 132t-88 88.5t-141 31.5h-184v104h184q118 0 206 -44t136.5 -124.5t48.5 -189.5t-49 -190.5t-136.5 -126.5t-204.5 -45h-187zM75 0v720h130v-720h-130z" />
    <glyph glyph-name="E" unicode="E" horiz-adv-x="630" 
d="M62 0v720h130v-720h-130zM124 0v103h456v-103h-456zM124 320v101h421v-101h-421zM124 617v103h445v-103h-445z" />
    <glyph glyph-name="Eacute" unicode="&#xc9;" horiz-adv-x="630" 
d="M62 0v720h130v-720h-130zM124 0v103h456v-103h-456zM124 320v101h421v-101h-421zM124 617v103h445v-103h-445zM349 793h-113l104 157h173z" />
    <glyph glyph-name="Ecaron" unicode="&#x11a;" horiz-adv-x="630" 
d="M62 0v720h130v-720h-130zM124 0v103h456v-103h-456zM124 320v101h421v-101h-421zM124 617v103h445v-103h-445zM260 793l-131 157h108l144 -130h-109l144 130h108l-131 -157h-133z" />
    <glyph glyph-name="Ecircumflex" unicode="&#xca;" horiz-adv-x="630" 
d="M62 0v720h130v-720h-130zM124 0v103h456v-103h-456zM124 320v101h421v-101h-421zM124 617v103h445v-103h-445zM129 793l131 157h133l131 -157h-108l-144 130h109l-144 -130h-108z" />
    <glyph glyph-name="Edieresis" unicode="&#xcb;" horiz-adv-x="630" 
d="M62 0v720h130v-720h-130zM124 0v103h456v-103h-456zM124 320v101h421v-101h-421zM124 617v103h445v-103h-445zM373 803v140h137v-140h-137zM143 803v140h137v-140h-137z" />
    <glyph glyph-name="Edotaccent" unicode="&#x116;" horiz-adv-x="630" 
d="M62 0v720h130v-720h-130zM124 0v103h456v-103h-456zM124 320v101h421v-101h-421zM124 617v103h445v-103h-445zM258 804v139h137v-139h-137z" />
    <glyph glyph-name="Egrave" unicode="&#xc8;" horiz-adv-x="630" 
d="M62 0v720h130v-720h-130zM124 0v103h456v-103h-456zM124 320v101h421v-101h-421zM124 617v103h445v-103h-445zM303 793l-163 157h173l104 -157h-114z" />
    <glyph glyph-name="Emacron" unicode="&#x112;" horiz-adv-x="630" 
d="M62 0v720h130v-720h-130zM124 0v103h456v-103h-456zM124 320v101h421v-101h-421zM124 617v103h445v-103h-445zM146 835v92h360v-92h-360z" />
    <glyph glyph-name="Eogonek" unicode="&#x118;" horiz-adv-x="630" 
d="M62 0v720h130v-720h-130zM124 0v103h456v-103h-456zM124 320v101h421v-101h-421zM124 617v103h445v-103h-445zM473 -216q-51 0 -78.5 24t-27.5 62q0 44 35 80.5t92 66.5l49 -17q-47 -36 -68 -62.5t-21 -51.5q0 -16 9 -25t22 -9q22 0 38 14l29 -60q-14 -11 -33 -16.5
t-46 -5.5z" />
    <glyph glyph-name="F" unicode="F" horiz-adv-x="594" 
d="M62 0v720h130v-720h-130zM124 289v103h405v-103h-405zM124 617v103h429v-103h-429z" />
    <glyph glyph-name="G" unicode="G" horiz-adv-x="764" 
d="M407 -10q-114 0 -197 45.5t-128 128t-45 193.5t45 194.5t125 131t186 47.5q86 0 154.5 -31.5t111 -86t51.5 -126.5h-130q-10 64 -60 101t-125 37q-68 0 -119 -32t-79 -91t-28 -141q0 -84 28.5 -143.5t83 -90.5t133.5 -31q61 0 105 15.5t71 46.5l125 -49q-57 -58 -132 -88
t-176 -30zM585 108v210l31 -31h-203v102h302v-281h-130z" />
    <glyph glyph-name="Gbreve" unicode="&#x11e;" horiz-adv-x="764" 
d="M407 -10q-114 0 -197 45.5t-128 128t-45 193.5t45 194.5t125 131t186 47.5q86 0 154.5 -31.5t111 -86t51.5 -126.5h-130q-10 64 -60 101t-125 37q-68 0 -119 -32t-79 -91t-28 -141q0 -84 28.5 -143.5t83 -90.5t133.5 -31q61 0 105 15.5t71 46.5l125 -49q-57 -58 -132 -88
t-176 -30zM585 108v210l31 -31h-203v102h302v-281h-130zM392 786q-50 0 -88.5 20.5t-60.5 58t-22 85.5h88q0 -34 22 -53.5t61 -19.5t60.5 19.5t21.5 53.5h89q0 -48 -22.5 -85t-60.5 -58t-88 -21z" />
    <glyph glyph-name="uni0122" unicode="&#x122;" horiz-adv-x="764" 
d="M407 -10q-114 0 -197 45.5t-128 128t-45 193.5t45 194.5t125 131t186 47.5q86 0 154.5 -31.5t111 -86t51.5 -126.5h-130q-10 64 -60 101t-125 37q-68 0 -119 -32t-79 -91t-28 -141q0 -84 28.5 -143.5t83 -90.5t133.5 -31q61 0 105 15.5t71 46.5l125 -49q-57 -58 -132 -88
t-176 -30zM585 108v210l31 -31h-203v102h302v-281h-130zM323 -332v58q34 4 51.5 25t17.5 58l45 -10h-114v127h137v-104q0 -64 -36 -106t-101 -48z" />
    <glyph glyph-name="Gdotaccent" unicode="&#x120;" horiz-adv-x="764" 
d="M407 -10q-114 0 -197 45.5t-128 128t-45 193.5t45 194.5t125 131t186 47.5q86 0 154.5 -31.5t111 -86t51.5 -126.5h-130q-10 64 -60 101t-125 37q-68 0 -119 -32t-79 -91t-28 -141q0 -84 28.5 -143.5t83 -90.5t133.5 -31q61 0 105 15.5t71 46.5l125 -49q-57 -58 -132 -88
t-176 -30zM585 108v210l31 -31h-203v102h302v-281h-130zM324 804v139h137v-139h-137z" />
    <glyph glyph-name="H" unicode="H" horiz-adv-x="725" 
d="M62 0v720h130v-720h-130zM533 0v720h130v-720h-130zM124 426h468v-102h-468v102z" />
    <glyph glyph-name="Hbar" unicode="&#x126;" horiz-adv-x="747" 
d="M7 528v103h733v-103h-733zM73 0v720h130v-720h-130zM544 0v720h130v-720h-130zM135 426h468v-102h-468v102z" />
    <glyph glyph-name="I" unicode="I" horiz-adv-x="254" 
d="M62 0v720h130v-720h-130z" />
    <glyph glyph-name="IJ" unicode="&#x132;" horiz-adv-x="681" 
d="M62 0v720h130v-720h-130zM391 -10q-38 0 -73 5.5t-51 13.5v104q20 -8 48 -13.5t57 -5.5q62 0 91 23t29 78v525h130v-531q0 -100 -59 -149.5t-172 -49.5z" />
    <glyph glyph-name="Iacute" unicode="&#xcd;" horiz-adv-x="254" 
d="M62 0v720h130v-720h-130zM150 793h-113l104 157h173z" />
    <glyph glyph-name="Icircumflex" unicode="&#xce;" horiz-adv-x="254" 
d="M62 0v720h130v-720h-130zM-71 793l131 157h133l131 -157h-108l-144 130h109l-144 -130h-108z" />
    <glyph glyph-name="Idieresis" unicode="&#xcf;" horiz-adv-x="254" 
d="M62 0v720h130v-720h-130zM173 803v140h137v-140h-137zM-57 803v140h137v-140h-137z" />
    <glyph glyph-name="Idotaccent" unicode="&#x130;" horiz-adv-x="254" 
d="M62 0v720h130v-720h-130zM58 804v139h137v-139h-137z" />
    <glyph glyph-name="Igrave" unicode="&#xcc;" horiz-adv-x="254" 
d="M62 0v720h130v-720h-130zM103 793l-163 157h173l104 -157h-114z" />
    <glyph glyph-name="Imacron" unicode="&#x12a;" horiz-adv-x="254" 
d="M62 0v720h130v-720h-130zM-53 835v92h360v-92h-360z" />
    <glyph glyph-name="Iogonek" unicode="&#x12e;" horiz-adv-x="254" 
d="M62 0v720h130v-720h-130zM102 -216q-51 0 -78.5 24t-27.5 62q0 44 35 80.5t92 66.5l49 -17q-47 -36 -68 -62.5t-21 -51.5q0 -16 9 -25t22 -9q22 0 38 14l29 -60q-14 -11 -33 -16.5t-46 -5.5z" />
    <glyph glyph-name="J" unicode="J" horiz-adv-x="427" 
d="M137 -10q-38 0 -73 5.5t-51 13.5v104q20 -8 48 -13.5t57 -5.5q62 0 91 23t29 78v525h130v-531q0 -100 -59 -149.5t-172 -49.5z" />
    <glyph glyph-name="K" unicode="K" horiz-adv-x="712" 
d="M62 0v720h130v-720h-130zM156 374l341 346h175l-355 -346h-161zM513 0l-359 374h163l375 -374h-179z" />
    <glyph glyph-name="uni0136" unicode="&#x136;" horiz-adv-x="712" 
d="M62 0v720h130v-720h-130zM156 374l341 346h175l-355 -346h-161zM513 0l-359 374h163l375 -374h-179zM292 -332v58q34 4 51.5 25t17.5 58l45 -10h-114v127h137v-104q0 -64 -36 -106t-101 -48z" />
    <glyph glyph-name="L" unicode="L" horiz-adv-x="589" 
d="M62 0v720h130v-720h-130zM124 0v103h422v-103h-422z" />
    <glyph glyph-name="Lacute" unicode="&#x139;" horiz-adv-x="589" 
d="M62 0v720h130v-720h-130zM124 0v103h422v-103h-422zM150 793h-113l104 157h173z" />
    <glyph glyph-name="Lcaron" unicode="&#x13d;" horiz-adv-x="589" 
d="M62 0v720h130v-720h-130zM124 0v103h422v-103h-422zM453 490h-83v230h109z" />
    <glyph glyph-name="uni013B" unicode="&#x13b;" horiz-adv-x="589" 
d="M62 0v720h130v-720h-130zM124 0v103h422v-103h-422zM251 -332v58q34 4 51.5 25t17.5 58l45 -10h-114v127h137v-104q0 -64 -36 -106t-101 -48z" />
    <glyph glyph-name="Lslash" unicode="&#x141;" horiz-adv-x="593" 
d="M152 332l-152 -62v93l151 62zM151 433l198 82v-94l-197 -81zM69 0v720h130v-720h-130zM131 0v103h422v-103h-422z" />
    <glyph glyph-name="M" unicode="M" horiz-adv-x="898" 
d="M62 0v720h202l220 -694h-71l220 694h203v-720h-128v677h21l-214 -677h-139l-212 671h20v-671h-122z" />
    <glyph glyph-name="N" unicode="N" horiz-adv-x="725" 
d="M62 0v720h161l351 -626l-37 -9v635h126v-720h-161l-351 626l37 9v-635h-126z" />
    <glyph glyph-name="Nacute" unicode="&#x143;" horiz-adv-x="725" 
d="M62 0v720h161l351 -626l-37 -9v635h126v-720h-161l-351 626l37 9v-635h-126zM386 793h-113l104 157h173z" />
    <glyph glyph-name="Ncaron" unicode="&#x147;" horiz-adv-x="725" 
d="M62 0v720h161l351 -626l-37 -9v635h126v-720h-161l-351 626l37 9v-635h-126zM296 793l-131 157h108l144 -130h-109l144 130h108l-131 -157h-133z" />
    <glyph glyph-name="uni0145" unicode="&#x145;" horiz-adv-x="725" 
d="M62 0v720h161l351 -626l-37 -9v635h126v-720h-161l-351 626l37 9v-635h-126zM294 -332v58q34 4 51.5 25t17.5 58l45 -10h-114v127h137v-104q0 -64 -36 -106t-101 -48z" />
    <glyph glyph-name="Ntilde" unicode="&#xd1;" horiz-adv-x="725" 
d="M62 0v720h161l351 -626l-37 -9v635h126v-720h-161l-351 626l37 9v-635h-126zM438 802q-28 0 -48.5 8.5t-38 20t-34 20t-34.5 8.5q-21 0 -33.5 -14t-12.5 -37h-79q0 38 15.5 69t45 49.5t70.5 18.5q29 0 50 -8.5t37 -20t31.5 -20t33.5 -8.5q22 0 34.5 14t12.5 37h79
q0 -38 -15.5 -69t-44.5 -49.5t-69 -18.5z" />
    <glyph glyph-name="Eng" unicode="&#x14a;" horiz-adv-x="720" 
d="M59 0v720h161l387 -619l-72 11v608h126v-720h-125l-387 619l36 9v-628h-126zM483 -215q-26 0 -46 3t-33 7v103q11 -4 26.5 -6.5t33.5 -2.5q37 0 53 15t16 48v90h128v-94q0 -77 -42 -120t-136 -43z" />
    <glyph glyph-name="O" unicode="O" horiz-adv-x="794" 
d="M397 -10q-78 0 -144 27t-114.5 77t-75 118.5t-26.5 150.5q0 109 46 191.5t127.5 129t185.5 46.5q106 0 187.5 -46.5t127.5 -129.5t46 -192q0 -82 -26.5 -150t-75 -118t-114.5 -77t-144 -27zM396 96q68 0 119.5 34t80.5 94.5t29 139.5q0 78 -28.5 136.5t-80 91
t-120.5 32.5q-68 0 -119.5 -32.5t-79.5 -90.5t-28 -137q0 -80 28.5 -140t80 -94t118.5 -34z" />
    <glyph glyph-name="Oacute" unicode="&#xd3;" horiz-adv-x="794" 
d="M397 -10q-78 0 -144 27t-114.5 77t-75 118.5t-26.5 150.5q0 109 46 191.5t127.5 129t185.5 46.5q106 0 187.5 -46.5t127.5 -129.5t46 -192q0 -82 -26.5 -150t-75 -118t-114.5 -77t-144 -27zM396 96q68 0 119.5 34t80.5 94.5t29 139.5q0 78 -28.5 136.5t-80 91
t-120.5 32.5q-68 0 -119.5 -32.5t-79.5 -90.5t-28 -137q0 -80 28.5 -140t80 -94t118.5 -34zM420 793h-113l104 157h173z" />
    <glyph glyph-name="Ocircumflex" unicode="&#xd4;" horiz-adv-x="794" 
d="M397 -10q-78 0 -144 27t-114.5 77t-75 118.5t-26.5 150.5q0 109 46 191.5t127.5 129t185.5 46.5q106 0 187.5 -46.5t127.5 -129.5t46 -192q0 -82 -26.5 -150t-75 -118t-114.5 -77t-144 -27zM396 96q68 0 119.5 34t80.5 94.5t29 139.5q0 78 -28.5 136.5t-80 91
t-120.5 32.5q-68 0 -119.5 -32.5t-79.5 -90.5t-28 -137q0 -80 28.5 -140t80 -94t118.5 -34zM199 793l131 157h133l131 -157h-108l-144 130h109l-144 -130h-108z" />
    <glyph glyph-name="Odieresis" unicode="&#xd6;" horiz-adv-x="794" 
d="M397 -10q-78 0 -144 27t-114.5 77t-75 118.5t-26.5 150.5q0 109 46 191.5t127.5 129t185.5 46.5q106 0 187.5 -46.5t127.5 -129.5t46 -192q0 -82 -26.5 -150t-75 -118t-114.5 -77t-144 -27zM396 96q68 0 119.5 34t80.5 94.5t29 139.5q0 78 -28.5 136.5t-80 91
t-120.5 32.5q-68 0 -119.5 -32.5t-79.5 -90.5t-28 -137q0 -80 28.5 -140t80 -94t118.5 -34zM443 803v140h137v-140h-137zM213 803v140h137v-140h-137z" />
    <glyph glyph-name="Ograve" unicode="&#xd2;" horiz-adv-x="794" 
d="M397 -10q-78 0 -144 27t-114.5 77t-75 118.5t-26.5 150.5q0 109 46 191.5t127.5 129t185.5 46.5q106 0 187.5 -46.5t127.5 -129.5t46 -192q0 -82 -26.5 -150t-75 -118t-114.5 -77t-144 -27zM396 96q68 0 119.5 34t80.5 94.5t29 139.5q0 78 -28.5 136.5t-80 91
t-120.5 32.5q-68 0 -119.5 -32.5t-79.5 -90.5t-28 -137q0 -80 28.5 -140t80 -94t118.5 -34zM373 793l-163 157h173l104 -157h-114z" />
    <glyph glyph-name="Ohungarumlaut" unicode="&#x150;" horiz-adv-x="794" 
d="M397 -10q-78 0 -144 27t-114.5 77t-75 118.5t-26.5 150.5q0 109 46 191.5t127.5 129t185.5 46.5q106 0 187.5 -46.5t127.5 -129.5t46 -192q0 -82 -26.5 -150t-75 -118t-114.5 -77t-144 -27zM396 96q68 0 119.5 34t80.5 94.5t29 139.5q0 78 -28.5 136.5t-80 91
t-120.5 32.5q-68 0 -119.5 -32.5t-79.5 -90.5t-28 -137q0 -80 28.5 -140t80 -94t118.5 -34zM322 793h-97l57 157h144zM535 793h-97l57 157h144z" />
    <glyph glyph-name="Omacron" unicode="&#x14c;" horiz-adv-x="794" 
d="M397 -10q-78 0 -144 27t-114.5 77t-75 118.5t-26.5 150.5q0 109 46 191.5t127.5 129t185.5 46.5q106 0 187.5 -46.5t127.5 -129.5t46 -192q0 -82 -26.5 -150t-75 -118t-114.5 -77t-144 -27zM396 96q68 0 119.5 34t80.5 94.5t29 139.5q0 78 -28.5 136.5t-80 91
t-120.5 32.5q-68 0 -119.5 -32.5t-79.5 -90.5t-28 -137q0 -80 28.5 -140t80 -94t118.5 -34zM217 835v92h360v-92h-360z" />
    <glyph glyph-name="Oslash" unicode="&#xd8;" horiz-adv-x="794" 
d="M119 -10l-70 62l618 678l70 -62zM397 -10q-78 0 -144 27t-114.5 77t-75 118.5t-26.5 150.5q0 109 46 191.5t127.5 129t185.5 46.5q106 0 187.5 -46.5t127.5 -129.5t46 -192q0 -82 -26.5 -150t-75 -118t-114.5 -77t-144 -27zM396 96q68 0 119.5 34t80.5 94.5t29 139.5
q0 78 -28.5 136.5t-80 91t-120.5 32.5q-68 0 -119.5 -32.5t-79.5 -90.5t-28 -137q0 -80 28.5 -140t80 -94t118.5 -34z" />
    <glyph glyph-name="Otilde" unicode="&#xd5;" horiz-adv-x="794" 
d="M397 -10q-78 0 -144 27t-114.5 77t-75 118.5t-26.5 150.5q0 109 46 191.5t127.5 129t185.5 46.5q106 0 187.5 -46.5t127.5 -129.5t46 -192q0 -82 -26.5 -150t-75 -118t-114.5 -77t-144 -27zM396 96q68 0 119.5 34t80.5 94.5t29 139.5q0 78 -28.5 136.5t-80 91
t-120.5 32.5q-68 0 -119.5 -32.5t-79.5 -90.5t-28 -137q0 -80 28.5 -140t80 -94t118.5 -34zM472 802q-28 0 -48.5 8.5t-38 20t-34 20t-34.5 8.5q-21 0 -33.5 -14t-12.5 -37h-79q0 38 15.5 69t45 49.5t70.5 18.5q29 0 50 -8.5t37 -20t31.5 -20t33.5 -8.5q22 0 34.5 14
t12.5 37h79q0 -38 -15.5 -69t-44.5 -49.5t-69 -18.5z" />
    <glyph glyph-name="OE" unicode="&#x152;" horiz-adv-x="1081" 
d="M427 -10q-116 0 -204.5 47t-137 130.5t-48.5 193.5t48.5 193t137 129.5t204.5 46.5q45 0 80.5 -3.5t65.5 -9.5v-114q-28 11 -64 16t-82 5q-84 0 -142 -32.5t-87 -91.5t-29 -139q0 -81 29 -140.5t87 -92t142 -32.5q46 0 82 5.5t64 15.5v-114q-30 -6 -65.5 -9.5t-80.5 -3.5
zM547 0v720h474v-103h-344v-196h319v-101h-319v-217h354v-103h-484z" />
    <glyph glyph-name="P" unicode="P" horiz-adv-x="667" 
d="M62 0v720h323q79 0 135.5 -27t87 -76t30.5 -116q0 -66 -31 -116t-87 -77.5t-135 -27.5h-222v102h216q62 0 95.5 32t33.5 87q0 54 -33.5 85t-95.5 31h-187v-617h-130z" />
    <glyph glyph-name="Thorn" unicode="&#xde;" horiz-adv-x="664" 
d="M161 153v103h214q62 0 96 31.5t34 82.5t-34 82.5t-96 31.5h-214v103h222q78 0 134.5 -27.5t87 -76t30.5 -113.5q0 -64 -30.5 -113t-87 -76.5t-134.5 -27.5h-222zM59 0v720h130v-720h-130z" />
    <glyph glyph-name="Q" unicode="Q" horiz-adv-x="806" 
d="M403 -10q-109 0 -191.5 47.5t-128.5 131.5t-46 194q0 109 46 191.5t127.5 129t185.5 46.5q106 0 187.5 -46.5t127.5 -129.5t46 -192q0 -73 -24 -137.5t-74 -109.5t-130 -65zM396 91q68 0 119.5 33.5t80.5 95.5t29 144q0 78 -28.5 136.5t-80 91t-120.5 32.5
q-68 0 -119.5 -32.5t-79.5 -90.5t-28 -137q0 -83 28.5 -144.5t80 -95t118.5 -33.5zM403 -10l-6 90l394 23v-103q-63 0 -110.5 -1.5t-89 -3.5t-86.5 -3.5t-102 -1.5z" />
    <glyph glyph-name="R" unicode="R" horiz-adv-x="664" 
d="M59 0v720h304q77 0 134 -26t87.5 -73t30.5 -110q0 -62 -30.5 -109t-87.5 -73t-134 -26h-202v99h198q63 0 96.5 29t33.5 80t-33 78.5t-97 27.5h-170v-617h-130zM471 0l-321 368h146l355 -368h-180z" />
    <glyph glyph-name="Racute" unicode="&#x154;" horiz-adv-x="664" 
d="M59 0v720h304q77 0 134 -26t87.5 -73t30.5 -110q0 -62 -30.5 -109t-87.5 -73t-134 -26h-202v99h198q63 0 96.5 29t33.5 80t-33 78.5t-97 27.5h-170v-617h-130zM471 0l-321 368h146l355 -368h-180zM355 793h-113l104 157h173z" />
    <glyph glyph-name="Rcaron" unicode="&#x158;" horiz-adv-x="664" 
d="M59 0v720h304q77 0 134 -26t87.5 -73t30.5 -110q0 -62 -30.5 -109t-87.5 -73t-134 -26h-202v99h198q63 0 96.5 29t33.5 80t-33 78.5t-97 27.5h-170v-617h-130zM471 0l-321 368h146l355 -368h-180zM265 793l-131 157h108l144 -130h-109l144 130h108l-131 -157h-133z" />
    <glyph glyph-name="uni0156" unicode="&#x156;" horiz-adv-x="664" 
d="M59 0v720h304q77 0 134 -26t87.5 -73t30.5 -110q0 -62 -30.5 -109t-87.5 -73t-134 -26h-202v99h198q63 0 96.5 29t33.5 80t-33 78.5t-97 27.5h-170v-617h-130zM471 0l-321 368h146l355 -368h-180zM263 -332v58q34 4 51.5 25t17.5 58l45 -10h-114v127h137v-104
q0 -64 -36 -106t-101 -48z" />
    <glyph glyph-name="S" unicode="S" horiz-adv-x="637" 
d="M341 -9q-136 0 -216.5 62.5t-94.5 176.5h125q9 -66 59 -102.5t131 -36.5q67 0 102.5 24.5t35.5 68.5q0 39 -22 63t-74 39l-130 39q-99 30 -145.5 79t-46.5 123q0 62 32 108t90.5 71t136.5 25q120 0 191.5 -58.5t81.5 -158.5h-125q-11 60 -50 88.5t-105 28.5
q-58 0 -92 -23t-34 -63q0 -33 20.5 -56t76.5 -40l132 -40q99 -29 144 -79t45 -127q0 -102 -70.5 -157t-197.5 -55z" />
    <glyph glyph-name="Sacute" unicode="&#x15a;" horiz-adv-x="637" 
d="M341 -9q-136 0 -216.5 62.5t-94.5 176.5h125q9 -66 59 -102.5t131 -36.5q67 0 102.5 24.5t35.5 68.5q0 39 -22 63t-74 39l-130 39q-99 30 -145.5 79t-46.5 123q0 62 32 108t90.5 71t136.5 25q120 0 191.5 -58.5t81.5 -158.5h-125q-11 60 -50 88.5t-105 28.5
q-58 0 -92 -23t-34 -63q0 -33 20.5 -56t76.5 -40l132 -40q99 -29 144 -79t45 -127q0 -102 -70.5 -157t-197.5 -55zM351 793h-113l104 157h173z" />
    <glyph glyph-name="Scaron" unicode="&#x160;" horiz-adv-x="637" 
d="M341 -9q-136 0 -216.5 62.5t-94.5 176.5h125q9 -66 59 -102.5t131 -36.5q67 0 102.5 24.5t35.5 68.5q0 39 -22 63t-74 39l-130 39q-99 30 -145.5 79t-46.5 123q0 62 32 108t90.5 71t136.5 25q120 0 191.5 -58.5t81.5 -158.5h-125q-11 60 -50 88.5t-105 28.5
q-58 0 -92 -23t-34 -63q0 -33 20.5 -56t76.5 -40l132 -40q99 -29 144 -79t45 -127q0 -102 -70.5 -157t-197.5 -55zM262 793l-131 157h108l144 -130h-109l144 130h108l-131 -157h-133z" />
    <glyph glyph-name="Scedilla" unicode="&#x15e;" horiz-adv-x="637" 
d="M341 -9q-136 0 -216.5 62.5t-94.5 176.5h125q9 -66 59 -102.5t131 -36.5q67 0 102.5 24.5t35.5 68.5q0 39 -22 63t-74 39l-130 39q-99 30 -145.5 79t-46.5 123q0 62 32 108t90.5 71t136.5 25q120 0 191.5 -58.5t81.5 -158.5h-125q-11 60 -50 88.5t-105 28.5
q-58 0 -92 -23t-34 -63q0 -33 20.5 -56t76.5 -40l132 -40q99 -29 144 -79t45 -127q0 -102 -70.5 -157t-197.5 -55zM328 -215q-59 0 -94 25t-37 69h84q2 -16 14.5 -23.5t31.5 -7.5q15 0 26.5 6.5t11.5 18.5q0 15 -18.5 24t-70.5 12l26 103h75l-13 -47q45 -10 66.5 -33.5
t21.5 -57.5q0 -39 -33 -64t-91 -25z" />
    <glyph glyph-name="uni0218" unicode="&#x218;" horiz-adv-x="637" 
d="M341 -9q-136 0 -216.5 62.5t-94.5 176.5h125q9 -66 59 -102.5t131 -36.5q67 0 102.5 24.5t35.5 68.5q0 39 -22 63t-74 39l-130 39q-99 30 -145.5 79t-46.5 123q0 62 32 108t90.5 71t136.5 25q120 0 191.5 -58.5t81.5 -158.5h-125q-11 60 -50 88.5t-105 28.5
q-58 0 -92 -23t-34 -63q0 -33 20.5 -56t76.5 -40l132 -40q99 -29 144 -79t45 -127q0 -102 -70.5 -157t-197.5 -55zM266 -332v58q34 4 51.5 25t17.5 58l45 -10h-114v127h137v-104q0 -64 -36 -106t-101 -48z" />
    <glyph glyph-name="uni1E9E" unicode="&#x1e9e;" horiz-adv-x="716" 
d="M414 -9q-36 0 -70.5 4.5t-63.5 14.5v108q28 -12 58 -17.5t66 -5.5q77 0 114.5 27t37.5 84q0 55 -41.5 90t-135.5 62l-39 11l208 266l-15 -68q-28 30 -67.5 45t-89.5 15q-90 0 -137 -49t-47 -143v-435h-130v425q0 150 82.5 228t239.5 78q90 0 162 -26.5t133 -83.5
l-194 -243l-50 64q131 -40 191.5 -99.5t60.5 -146.5q0 -64 -32.5 -110t-93.5 -70.5t-147 -24.5z" />
    <glyph glyph-name="T" unicode="T" horiz-adv-x="664" 
d="M267 0v617h-239v103h608v-103h-239v-617h-130z" />
    <glyph glyph-name="Tcaron" unicode="&#x164;" horiz-adv-x="664" 
d="M267 0v617h-239v103h608v-103h-239v-617h-130zM265 793l-131 157h108l144 -130h-109l144 130h108l-131 -157h-133z" />
    <glyph glyph-name="uni021A" unicode="&#x21a;" horiz-adv-x="664" 
d="M267 0v617h-239v103h608v-103h-239v-617h-130zM263 -332v58q34 4 51.5 25t17.5 58l45 -10h-114v127h137v-104q0 -64 -36 -106t-101 -48z" />
    <glyph glyph-name="U" unicode="U" horiz-adv-x="704" 
d="M351 -10q-146 0 -221 83t-75 238v409h130v-428q0 -99 44 -147.5t123 -48.5t123 48.5t44 146.5v429h130v-410q0 -154 -75.5 -237t-222.5 -83z" />
    <glyph glyph-name="Uacute" unicode="&#xda;" horiz-adv-x="704" 
d="M351 -10q-146 0 -221 83t-75 238v409h130v-428q0 -99 44 -147.5t123 -48.5t123 48.5t44 146.5v429h130v-410q0 -154 -75.5 -237t-222.5 -83zM375 793h-113l104 157h173z" />
    <glyph glyph-name="Ubreve" unicode="&#x16c;" horiz-adv-x="704" 
d="M351 -10q-146 0 -221 83t-75 238v409h130v-428q0 -99 44 -147.5t123 -48.5t123 48.5t44 146.5v429h130v-410q0 -154 -75.5 -237t-222.5 -83zM352 786q-50 0 -88.5 20.5t-60.5 58t-22 85.5h88q0 -34 22 -53.5t61 -19.5t60.5 19.5t21.5 53.5h89q0 -48 -22.5 -85t-60.5 -58
t-88 -21z" />
    <glyph glyph-name="Ucircumflex" unicode="&#xdb;" horiz-adv-x="704" 
d="M351 -10q-146 0 -221 83t-75 238v409h130v-428q0 -99 44 -147.5t123 -48.5t123 48.5t44 146.5v429h130v-410q0 -154 -75.5 -237t-222.5 -83zM154 793l131 157h133l131 -157h-108l-144 130h109l-144 -130h-108z" />
    <glyph glyph-name="Udieresis" unicode="&#xdc;" horiz-adv-x="704" 
d="M351 -10q-146 0 -221 83t-75 238v409h130v-428q0 -99 44 -147.5t123 -48.5t123 48.5t44 146.5v429h130v-410q0 -154 -75.5 -237t-222.5 -83zM398 803v140h137v-140h-137zM168 803v140h137v-140h-137z" />
    <glyph glyph-name="Ugrave" unicode="&#xd9;" horiz-adv-x="704" 
d="M351 -10q-146 0 -221 83t-75 238v409h130v-428q0 -99 44 -147.5t123 -48.5t123 48.5t44 146.5v429h130v-410q0 -154 -75.5 -237t-222.5 -83zM328 793l-163 157h173l104 -157h-114z" />
    <glyph glyph-name="Uhungarumlaut" unicode="&#x170;" horiz-adv-x="704" 
d="M351 -10q-146 0 -221 83t-75 238v409h130v-428q0 -99 44 -147.5t123 -48.5t123 48.5t44 146.5v429h130v-410q0 -154 -75.5 -237t-222.5 -83zM277 793h-97l57 157h144zM490 793h-97l57 157h144z" />
    <glyph glyph-name="Umacron" unicode="&#x16a;" horiz-adv-x="704" 
d="M351 -10q-146 0 -221 83t-75 238v409h130v-428q0 -99 44 -147.5t123 -48.5t123 48.5t44 146.5v429h130v-410q0 -154 -75.5 -237t-222.5 -83zM172 835v92h360v-92h-360z" />
    <glyph glyph-name="Uogonek" unicode="&#x172;" horiz-adv-x="704" 
d="M351 -10q-146 0 -221 83t-75 238v409h130v-428q0 -99 44 -147.5t123 -48.5t123 48.5t44 146.5v429h130v-410q0 -154 -75.5 -237t-222.5 -83zM431 -196q-51 0 -78.5 24t-27.5 62q0 44 35 80.5t92 66.5l49 -17q-47 -36 -68 -62.5t-21 -51.5q0 -16 9 -25t22 -9q22 0 38 14
l29 -60q-14 -11 -33 -16.5t-46 -5.5z" />
    <glyph glyph-name="Uring" unicode="&#x16e;" horiz-adv-x="704" 
d="M351 -10q-146 0 -221 83t-75 238v409h130v-428q0 -99 44 -147.5t123 -48.5t123 48.5t44 146.5v429h130v-410q0 -154 -75.5 -237t-222.5 -83zM352 771q-46 0 -77 31.5t-31 76.5q0 44 31 75.5t77 31.5t76.5 -31.5t30.5 -75.5q0 -45 -30.5 -76.5t-76.5 -31.5zM352 837
q17 0 28.5 12.5t11.5 29.5t-11.5 29t-28.5 12q-18 0 -29.5 -12t-11.5 -29t11.5 -29.5t29.5 -12.5z" />
    <glyph glyph-name="V" unicode="V" horiz-adv-x="733" 
d="M293 0l-265 720h136l217 -628h-22l217 628h129l-264 -720h-148z" />
    <glyph glyph-name="W" unicode="W" horiz-adv-x="1087" 
d="M246 0l-207 720h132l176 -661h-38l163 661h150l161 -661h-37l176 661h126l-207 -720h-148l-164 646h31l-166 -646h-148z" />
    <glyph glyph-name="Wacute" unicode="&#x1e82;" horiz-adv-x="1087" 
d="M246 0l-207 720h132l176 -661h-38l163 661h150l161 -661h-37l176 661h126l-207 -720h-148l-164 646h31l-166 -646h-148zM567 793h-113l104 157h173z" />
    <glyph glyph-name="Wcircumflex" unicode="&#x174;" horiz-adv-x="1087" 
d="M246 0l-207 720h132l176 -661h-38l163 661h150l161 -661h-37l176 661h126l-207 -720h-148l-164 646h31l-166 -646h-148zM346 793l131 157h133l131 -157h-108l-144 130h109l-144 -130h-108z" />
    <glyph glyph-name="Wdieresis" unicode="&#x1e84;" horiz-adv-x="1087" 
d="M246 0l-207 720h132l176 -661h-38l163 661h150l161 -661h-37l176 661h126l-207 -720h-148l-164 646h31l-166 -646h-148zM590 803v140h137v-140h-137zM360 803v140h137v-140h-137z" />
    <glyph glyph-name="Wgrave" unicode="&#x1e80;" horiz-adv-x="1087" 
d="M246 0l-207 720h132l176 -661h-38l163 661h150l161 -661h-37l176 661h126l-207 -720h-148l-164 646h31l-166 -646h-148zM520 793l-163 157h173l104 -157h-114z" />
    <glyph glyph-name="X" unicode="X" horiz-adv-x="707" 
d="M528 0l-211 322l-273 398h152l198 -304l286 -416h-152zM336 415l206 305h138l-296 -412zM370 304l-206 -304h-138l295 411z" />
    <glyph glyph-name="Y" unicode="Y" horiz-adv-x="700" 
d="M285 0v303l-270 417h157l220 -369h-70l219 369h144l-270 -417v-303h-130z" />
    <glyph glyph-name="Yacute" unicode="&#xdd;" horiz-adv-x="700" 
d="M285 0v303l-270 417h157l220 -369h-70l219 369h144l-270 -417v-303h-130zM373 793h-113l104 157h173z" />
    <glyph glyph-name="Ycircumflex" unicode="&#x176;" horiz-adv-x="700" 
d="M285 0v303l-270 417h157l220 -369h-70l219 369h144l-270 -417v-303h-130zM152 793l131 157h133l131 -157h-108l-144 130h109l-144 -130h-108z" />
    <glyph glyph-name="Ydieresis" unicode="&#x178;" horiz-adv-x="700" 
d="M285 0v303l-270 417h157l220 -369h-70l219 369h144l-270 -417v-303h-130zM396 803v140h137v-140h-137zM166 803v140h137v-140h-137z" />
    <glyph glyph-name="Ygrave" unicode="&#x1ef2;" horiz-adv-x="700" 
d="M285 0v303l-270 417h157l220 -369h-70l219 369h144l-270 -417v-303h-130zM326 793l-163 157h173l104 -157h-114z" />
    <glyph glyph-name="Z" unicode="Z" horiz-adv-x="631" 
d="M47 0v90l406 579l35 -52h-429v103h524v-90l-402 -574l-34 47h442v-103h-542z" />
    <glyph glyph-name="Zacute" unicode="&#x179;" horiz-adv-x="631" 
d="M47 0v90l406 579l35 -52h-429v103h524v-90l-402 -574l-34 47h442v-103h-542zM339 793h-113l104 157h173z" />
    <glyph glyph-name="Zcaron" unicode="&#x17d;" horiz-adv-x="631" 
d="M47 0v90l406 579l35 -52h-429v103h524v-90l-402 -574l-34 47h442v-103h-542zM249 793l-131 157h108l144 -130h-109l144 130h108l-131 -157h-133z" />
    <glyph glyph-name="Zdotaccent" unicode="&#x17b;" horiz-adv-x="631" 
d="M47 0v90l406 579l35 -52h-429v103h524v-90l-402 -574l-34 47h442v-103h-542zM247 804v139h137v-139h-137z" />
    <glyph glyph-name="Adieresis.ss01" horiz-adv-x="733" 
d="M28 0l265 720h112l-249 -720h-128zM571 0l-248 720h118l264 -720h-134zM165 283h394v-104h-394v104zM251 800q-31 0 -53 22.5t-22 54.5q0 33 22 54.5t53 21.5q32 0 53.5 -21.5t21.5 -54.5q0 -32 -21.5 -54.5t-53.5 -22.5zM481 800q-31 0 -53 22.5t-22 54.5q0 33 22 54.5
t53 21.5q32 0 53.5 -21.5t21.5 -54.5q0 -32 -21.5 -54.5t-53.5 -22.5z" />
    <glyph glyph-name="Cdotaccent.ss01" horiz-adv-x="747" 
d="M391 -10q-77 0 -141.5 27.5t-112.5 77.5t-74 118t-26 149t26 148t73.5 116.5t112 76.5t142.5 27q86 0 155 -34t113.5 -95.5t54.5 -144.5h-128q-12 81 -65 124.5t-129 43.5q-67 0 -117 -32t-78 -90.5t-28 -138.5q0 -82 28 -141.5t79 -92.5t117 -33q74 0 127 43.5t67 123.5
h129q-12 -82 -56.5 -144t-113.5 -95.5t-155 -33.5zM387 787q-34 0 -58.5 24t-24.5 59q0 38 24.5 60.5t58.5 22.5q33 0 57 -22.5t24 -60.5q0 -35 -24 -59t-57 -24z" />
    <glyph glyph-name="Edieresis.ss01" horiz-adv-x="630" 
d="M62 0v720h130v-720h-130zM124 0v103h456v-103h-456zM124 320v101h421v-101h-421zM124 617v103h445v-103h-445zM211 800q-31 0 -53 22.5t-22 54.5q0 33 22 54.5t53 21.5q32 0 53.5 -21.5t21.5 -54.5q0 -32 -21.5 -54.5t-53.5 -22.5zM441 800q-31 0 -53 22.5t-22 54.5
q0 33 22 54.5t53 21.5q32 0 53.5 -21.5t21.5 -54.5q0 -32 -21.5 -54.5t-53.5 -22.5z" />
    <glyph glyph-name="Edotaccent.ss01" horiz-adv-x="630" 
d="M62 0v720h130v-720h-130zM124 0v103h456v-103h-456zM124 320v101h421v-101h-421zM124 617v103h445v-103h-445zM327 787q-34 0 -58.5 24t-24.5 59q0 38 24.5 60.5t58.5 22.5q33 0 57 -22.5t24 -60.5q0 -35 -24 -59t-57 -24z" />
    <glyph glyph-name="uni0122.ss01" horiz-adv-x="764" 
d="M407 -10q-114 0 -197 45.5t-128 128t-45 193.5t45 194.5t125 131t186 47.5q86 0 154.5 -31.5t111 -86t51.5 -126.5h-130q-10 64 -60 101t-125 37q-68 0 -119 -32t-79 -91t-28 -141q0 -84 28.5 -143.5t83 -90.5t133.5 -31q61 0 105 15.5t71 46.5l125 -49q-57 -58 -132 -88
t-176 -30zM585 108v210l31 -31h-203v102h302v-281h-130zM345 -332v58q34 4 51 25t17 58h38q-9 -7 -21.5 -12t-24.5 -5q-31 0 -53 20.5t-22 50.5t21 50t51 20q34 0 56.5 -24t22.5 -75q0 -42 -16.5 -78.5t-47 -60t-72.5 -27.5z" />
    <glyph glyph-name="Gdotaccent.ss01" horiz-adv-x="764" 
d="M407 -10q-114 0 -197 45.5t-128 128t-45 193.5t45 194.5t125 131t186 47.5q86 0 154.5 -31.5t111 -86t51.5 -126.5h-130q-10 64 -60 101t-125 37q-68 0 -119 -32t-79 -91t-28 -141q0 -84 28.5 -143.5t83 -90.5t133.5 -31q61 0 105 15.5t71 46.5l125 -49q-57 -58 -132 -88
t-176 -30zM585 108v210l31 -31h-203v102h302v-281h-130zM393 787q-34 0 -58.5 24t-24.5 59q0 38 24.5 60.5t58.5 22.5q33 0 57 -22.5t24 -60.5q0 -35 -24 -59t-57 -24z" />
    <glyph glyph-name="Idieresis.ss01" horiz-adv-x="254" 
d="M62 0v720h130v-720h-130zM12 800q-31 0 -53 22.5t-22 54.5q0 33 22 54.5t53 21.5q32 0 53.5 -21.5t21.5 -54.5q0 -32 -21.5 -54.5t-53.5 -22.5zM242 800q-31 0 -53 22.5t-22 54.5q0 33 22 54.5t53 21.5q32 0 53.5 -21.5t21.5 -54.5q0 -32 -21.5 -54.5t-53.5 -22.5z" />
    <glyph glyph-name="Idotaccent.ss01" horiz-adv-x="254" 
d="M62 0v720h130v-720h-130zM128 787q-34 0 -58.5 24t-24.5 59q0 38 24.5 60.5t58.5 22.5q33 0 57 -22.5t24 -60.5q0 -35 -24 -59t-57 -24z" />
    <glyph glyph-name="uni0136.ss01" horiz-adv-x="712" 
d="M62 0v720h130v-720h-130zM156 374l341 346h175l-355 -346h-161zM513 0l-359 374h163l375 -374h-179zM300 -332v58q34 4 51 25t17 58h38q-9 -7 -21.5 -12t-24.5 -5q-31 0 -53 20.5t-22 50.5t21 50t51 20q34 0 56.5 -24t22.5 -75q0 -42 -16.5 -78.5t-47 -60t-72.5 -27.5z
" />
    <glyph glyph-name="uni013B.ss01" horiz-adv-x="589" 
d="M62 0v720h130v-720h-130zM124 0v103h422v-103h-422zM259 -332v58q34 4 51 25t17 58h38q-9 -7 -21.5 -12t-24.5 -5q-31 0 -53 20.5t-22 50.5t21 50t51 20q34 0 56.5 -24t22.5 -75q0 -42 -16.5 -78.5t-47 -60t-72.5 -27.5z" />
    <glyph glyph-name="uni0145.ss01" horiz-adv-x="725" 
d="M62 0v720h161l351 -626l-37 -9v635h126v-720h-161l-351 626l37 9v-635h-126zM302 -332v58q34 4 51 25t17 58h38q-9 -7 -21.5 -12t-24.5 -5q-31 0 -53 20.5t-22 50.5t21 50t51 20q34 0 56.5 -24t22.5 -75q0 -42 -16.5 -78.5t-47 -60t-72.5 -27.5z" />
    <glyph glyph-name="Odieresis.ss01" horiz-adv-x="794" 
d="M397 -10q-78 0 -144 27t-114.5 77t-75 118.5t-26.5 150.5q0 109 46 191.5t127.5 129t185.5 46.5q106 0 187.5 -46.5t127.5 -129.5t46 -192q0 -82 -26.5 -150t-75 -118t-114.5 -77t-144 -27zM396 96q68 0 119.5 34t80.5 94.5t29 139.5q0 78 -28.5 136.5t-80 91
t-120.5 32.5q-68 0 -119.5 -32.5t-79.5 -90.5t-28 -137q0 -80 28.5 -140t80 -94t118.5 -34zM282 800q-31 0 -53 22.5t-22 54.5q0 33 22 54.5t53 21.5q32 0 53.5 -21.5t21.5 -54.5q0 -32 -21.5 -54.5t-53.5 -22.5zM512 800q-31 0 -53 22.5t-22 54.5q0 33 22 54.5t53 21.5
q32 0 53.5 -21.5t21.5 -54.5q0 -32 -21.5 -54.5t-53.5 -22.5z" />
    <glyph glyph-name="uni0156.ss01" horiz-adv-x="664" 
d="M59 0v720h304q77 0 134 -26t87.5 -73t30.5 -110q0 -62 -30.5 -109t-87.5 -73t-134 -26h-202v99h198q63 0 96.5 29t33.5 80t-33 78.5t-97 27.5h-170v-617h-130zM471 0l-321 368h146l355 -368h-180zM271 -332v58q34 4 51 25t17 58h38q-9 -7 -21.5 -12t-24.5 -5
q-31 0 -53 20.5t-22 50.5t21 50t51 20q34 0 56.5 -24t22.5 -75q0 -42 -16.5 -78.5t-47 -60t-72.5 -27.5z" />
    <glyph glyph-name="uni0218.ss01" horiz-adv-x="637" 
d="M341 -9q-136 0 -216.5 62.5t-94.5 176.5h125q9 -66 59 -102.5t131 -36.5q67 0 102.5 24.5t35.5 68.5q0 39 -22 63t-74 39l-130 39q-99 30 -145.5 79t-46.5 123q0 62 32 108t90.5 71t136.5 25q120 0 191.5 -58.5t81.5 -158.5h-125q-11 60 -50 88.5t-105 28.5
q-58 0 -92 -23t-34 -63q0 -33 20.5 -56t76.5 -40l132 -40q99 -29 144 -79t45 -127q0 -102 -70.5 -157t-197.5 -55zM274 -332v58q34 4 51 25t17 58h38q-9 -7 -21.5 -12t-24.5 -5q-31 0 -53 20.5t-22 50.5t21 50t51 20q34 0 56.5 -24t22.5 -75q0 -42 -16.5 -78.5t-47 -60
t-72.5 -27.5z" />
    <glyph glyph-name="uni021A.ss01" horiz-adv-x="664" 
d="M267 0v617h-239v103h608v-103h-239v-617h-130zM271 -332v58q34 4 51 25t17 58h38q-9 -7 -21.5 -12t-24.5 -5q-31 0 -53 20.5t-22 50.5t21 50t51 20q34 0 56.5 -24t22.5 -75q0 -42 -16.5 -78.5t-47 -60t-72.5 -27.5z" />
    <glyph glyph-name="Udieresis.ss01" horiz-adv-x="704" 
d="M351 -10q-146 0 -221 83t-75 238v409h130v-428q0 -99 44 -147.5t123 -48.5t123 48.5t44 146.5v429h130v-410q0 -154 -75.5 -237t-222.5 -83zM237 800q-31 0 -53 22.5t-22 54.5q0 33 22 54.5t53 21.5q32 0 53.5 -21.5t21.5 -54.5q0 -32 -21.5 -54.5t-53.5 -22.5zM467 800
q-31 0 -53 22.5t-22 54.5q0 33 22 54.5t53 21.5q32 0 53.5 -21.5t21.5 -54.5q0 -32 -21.5 -54.5t-53.5 -22.5z" />
    <glyph glyph-name="Ydieresis.ss01" horiz-adv-x="700" 
d="M285 0v303l-270 417h157l220 -369h-70l219 369h144l-270 -417v-303h-130zM235 800q-31 0 -53 22.5t-22 54.5q0 33 22 54.5t53 21.5q32 0 53.5 -21.5t21.5 -54.5q0 -32 -21.5 -54.5t-53.5 -22.5zM465 800q-31 0 -53 22.5t-22 54.5q0 33 22 54.5t53 21.5q32 0 53.5 -21.5
t21.5 -54.5q0 -32 -21.5 -54.5t-53.5 -22.5z" />
    <glyph glyph-name="Zdotaccent.ss01" horiz-adv-x="631" 
d="M47 0v90l406 579l35 -52h-429v103h524v-90l-402 -574l-34 47h442v-103h-542zM317 787q-34 0 -58.5 24t-24.5 59q0 38 24.5 60.5t58.5 22.5q33 0 57 -22.5t24 -60.5q0 -35 -24 -59t-57 -24z" />
    <glyph glyph-name="K.ss04" horiz-adv-x="712" 
d="M62 0v720h130v-720h-130zM138 301l368 419h166l-325 -365l-22 -8l-174 -194zM531 0l-277 402l121 40l317 -442h-161z" />
    <glyph glyph-name="uni0136.ss04" horiz-adv-x="712" 
d="M62 0v720h130v-720h-130zM138 301l368 419h166l-325 -365l-22 -8l-174 -194zM531 0l-277 402l121 40l317 -442h-161zM292 -332v58q34 4 51.5 25t17.5 58l45 -10h-114v127h137v-104q0 -64 -36 -106t-101 -48z" />
    <glyph glyph-name="R.ss05" horiz-adv-x="657" 
d="M62 0v720h310q77 0 132 -24t84.5 -68.5t29.5 -106.5q0 -74 -47 -120t-145 -66l3 27q84 2 130.5 -39.5t46.5 -118.5v-204h-130v171q0 67 -32.5 100t-97.5 33h-224v98h236q62 0 96 28.5t34 80.5t-33.5 79t-96.5 27h-166v-617h-130z" />
    <glyph glyph-name="Racute.ss05" horiz-adv-x="657" 
d="M62 0v720h310q77 0 132 -24t84.5 -68.5t29.5 -106.5q0 -74 -47 -120t-145 -66l3 27q84 2 130.5 -39.5t46.5 -118.5v-204h-130v171q0 67 -32.5 100t-97.5 33h-224v98h236q62 0 96 28.5t34 80.5t-33.5 79t-96.5 27h-166v-617h-130zM352 793h-113l104 157h173z" />
    <glyph glyph-name="Rcaron.ss05" horiz-adv-x="657" 
d="M62 0v720h310q77 0 132 -24t84.5 -68.5t29.5 -106.5q0 -74 -47 -120t-145 -66l3 27q84 2 130.5 -39.5t46.5 -118.5v-204h-130v171q0 67 -32.5 100t-97.5 33h-224v98h236q62 0 96 28.5t34 80.5t-33.5 79t-96.5 27h-166v-617h-130zM263 793l-131 157h108l144 -130h-109
l144 130h108l-131 -157h-133z" />
    <glyph glyph-name="uni0156.ss05" horiz-adv-x="657" 
d="M62 0v720h310q77 0 132 -24t84.5 -68.5t29.5 -106.5q0 -74 -47 -120t-145 -66l3 27q84 2 130.5 -39.5t46.5 -118.5v-204h-130v171q0 67 -32.5 100t-97.5 33h-224v98h236q62 0 96 28.5t34 80.5t-33.5 79t-96.5 27h-166v-617h-130zM267 -332v58q34 4 51.5 25t17.5 58
l45 -10h-114v127h137v-104q0 -64 -36 -106t-101 -48z" />
    <glyph glyph-name="M.ss06" horiz-adv-x="878" 
d="M42 0l75 720h168l185 -707h-63l184 707h169l76 -720h-128l-72 690h46l-174 -690h-145l-172 684h44l-71 -684h-122z" />
    <glyph glyph-name="G.ss07" horiz-adv-x="772" 
d="M400 -10q-107 0 -189 47.5t-128 131.5t-46 191q0 108 46.5 191.5t128.5 131t188 47.5q87 0 156 -32t113 -87t55 -125h-128q-8 40 -34 71t-66.5 49t-93.5 18q-72 0 -124 -32.5t-80.5 -91.5t-28.5 -140q0 -79 28 -139t81 -92.5t125 -32.5q64 0 111.5 26.5t74 79t26.5 130.5
h121q0 -108 -43 -184.5t-118.5 -117t-174.5 -40.5zM639 282h-224v103h321v-53z" />
    <glyph glyph-name="Gbreve.ss07" horiz-adv-x="772" 
d="M400 -10q-107 0 -189 47.5t-128 131.5t-46 191q0 108 46.5 191.5t128.5 131t188 47.5q87 0 156 -32t113 -87t55 -125h-128q-8 40 -34 71t-66.5 49t-93.5 18q-72 0 -124 -32.5t-80.5 -91.5t-28.5 -140q0 -79 28 -139t81 -92.5t125 -32.5q64 0 111.5 26.5t74 79t26.5 130.5
h121q0 -108 -43 -184.5t-118.5 -117t-174.5 -40.5zM639 282h-224v103h321v-53zM392 786q-50 0 -88.5 20.5t-60.5 58t-22 85.5h88q0 -34 22 -53.5t61 -19.5t60.5 19.5t21.5 53.5h89q0 -48 -22.5 -85t-60.5 -58t-88 -21z" />
    <glyph glyph-name="uni0122.ss07" horiz-adv-x="772" 
d="M400 -10q-107 0 -189 47.5t-128 131.5t-46 191q0 108 46.5 191.5t128.5 131t188 47.5q87 0 156 -32t113 -87t55 -125h-128q-8 40 -34 71t-66.5 49t-93.5 18q-72 0 -124 -32.5t-80.5 -91.5t-28.5 -140q0 -79 28 -139t81 -92.5t125 -32.5q64 0 111.5 26.5t74 79t26.5 130.5
h121q0 -108 -43 -184.5t-118.5 -117t-174.5 -40.5zM639 282h-224v103h321v-53zM323 -332v58q34 4 51.5 25t17.5 58l45 -10h-114v127h137v-104q0 -64 -36 -106t-101 -48z" />
    <glyph glyph-name="Gdotaccent.ss07" horiz-adv-x="772" 
d="M400 -10q-107 0 -189 47.5t-128 131.5t-46 191q0 108 46.5 191.5t128.5 131t188 47.5q87 0 156 -32t113 -87t55 -125h-128q-8 40 -34 71t-66.5 49t-93.5 18q-72 0 -124 -32.5t-80.5 -91.5t-28.5 -140q0 -79 28 -139t81 -92.5t125 -32.5q64 0 111.5 26.5t74 79t26.5 130.5
h121q0 -108 -43 -184.5t-118.5 -117t-174.5 -40.5zM639 282h-224v103h321v-53zM324 804v139h137v-139h-137z" />
    <glyph glyph-name="J.ss08" horiz-adv-x="633" 
d="M308 -10q-85 0 -144.5 34.5t-91 94t-31.5 133.5h127q0 -73 40 -114.5t100 -41.5q40 0 71.5 16.5t50.5 53.5t19 99v455h130v-437q0 -96 -31.5 -161t-92 -98.5t-147.5 -33.5z" />
    <glyph glyph-name="Q.ss09" horiz-adv-x="794" 
d="M397 -10q-78 0 -144 27t-114.5 77t-75 118.5t-26.5 150.5q0 109 46 191.5t127.5 129t185.5 46.5q106 0 187.5 -46.5t127.5 -129.5t46 -192q0 -82 -26.5 -150t-75 -118t-114.5 -77t-144 -27zM396 96q51 0 92.5 19.5t72.5 55t47.5 85t16.5 108.5q0 78 -28.5 136.5t-80 91
t-120.5 32.5q-68 0 -119.5 -32.5t-79.5 -90.5t-28 -137q0 -80 28.5 -140t80 -94t118.5 -34zM373 246l89 52l227 -393l-89 -51z" />
    <glyph glyph-name="uni0136.ss01.ss04" horiz-adv-x="712" 
d="M62 0v720h130v-720h-130zM138 301l368 419h166l-325 -365l-22 -8l-174 -194zM531 0l-277 402l121 40l317 -442h-161zM300 -332v58q34 4 51 25t17 58h38q-9 -7 -21.5 -12t-24.5 -5q-31 0 -53 20.5t-22 50.5t21 50t51 20q34 0 56.5 -24t22.5 -75q0 -42 -16.5 -78.5t-47 -60
t-72.5 -27.5z" />
    <glyph glyph-name="uni0156.ss01.ss05" horiz-adv-x="657" 
d="M62 0v720h310q77 0 132 -24t84.5 -68.5t29.5 -106.5q0 -74 -47 -120t-145 -66l3 27q84 2 130.5 -39.5t46.5 -118.5v-204h-130v171q0 67 -32.5 100t-97.5 33h-224v98h236q62 0 96 28.5t34 80.5t-33.5 79t-96.5 27h-166v-617h-130zM275 -332v58q34 4 51 25t17 58h38
q-9 -7 -21.5 -12t-24.5 -5q-31 0 -53 20.5t-22 50.5t21 50t51 20q34 0 56.5 -24t22.5 -75q0 -42 -16.5 -78.5t-47 -60t-72.5 -27.5z" />
    <glyph glyph-name="uni0122.ss01.ss07" horiz-adv-x="772" 
d="M400 -10q-107 0 -189 47.5t-128 131.5t-46 191q0 108 46.5 191.5t128.5 131t188 47.5q87 0 156 -32t113 -87t55 -125h-128q-8 40 -34 71t-66.5 49t-93.5 18q-72 0 -124 -32.5t-80.5 -91.5t-28.5 -140q0 -79 28 -139t81 -92.5t125 -32.5q64 0 111.5 26.5t74 79t26.5 130.5
h121q0 -108 -43 -184.5t-118.5 -117t-174.5 -40.5zM639 282h-224v103h321v-53zM331 -332v58q34 4 51 25t17 58h38q-9 -7 -21.5 -12t-24.5 -5q-31 0 -53 20.5t-22 50.5t21 50t51 20q34 0 56.5 -24t22.5 -75q0 -42 -16.5 -78.5t-47 -60t-72.5 -27.5z" />
    <glyph glyph-name="Gdotaccent.ss01.ss07" horiz-adv-x="772" 
d="M400 -10q-107 0 -189 47.5t-128 131.5t-46 191q0 108 46.5 191.5t128.5 131t188 47.5q87 0 156 -32t113 -87t55 -125h-128q-8 40 -34 71t-66.5 49t-93.5 18q-72 0 -124 -32.5t-80.5 -91.5t-28.5 -140q0 -79 28 -139t81 -92.5t125 -32.5q64 0 111.5 26.5t74 79t26.5 130.5
h121q0 -108 -43 -184.5t-118.5 -117t-174.5 -40.5zM639 282h-224v103h321v-53zM393 787q-34 0 -58.5 24t-24.5 59q0 38 24.5 60.5t58.5 22.5q33 0 57 -22.5t24 -60.5q0 -35 -24 -59t-57 -24z" />
    <glyph glyph-name="a" unicode="a" horiz-adv-x="558" 
d="M385 0q-5 20 -7.5 44t-2.5 58h-4v242q0 40 -22.5 60.5t-68.5 20.5q-45 0 -71.5 -16.5t-32.5 -47.5h-121q8 71 68 115t161 44q105 0 159 -47.5t54 -139.5v-231q0 -24 3.5 -49t10.5 -53h-126zM208 -10q-77 0 -122.5 38.5t-45.5 103.5q0 70 51 111t144 55l159 24v-80
l-138 -21q-45 -7 -67.5 -25t-22.5 -50q0 -29 21 -44.5t58 -15.5q54 0 90 27t36 66l14 -77q-20 -55 -65.5 -83.5t-111.5 -28.5z" />
    <glyph glyph-name="aacute" unicode="&#xe1;" horiz-adv-x="558" 
d="M385 0q-5 20 -7.5 44t-2.5 58h-4v242q0 40 -22.5 60.5t-68.5 20.5q-45 0 -71.5 -16.5t-32.5 -47.5h-121q8 71 68 115t161 44q105 0 159 -47.5t54 -139.5v-231q0 -24 3.5 -49t10.5 -53h-126zM208 -10q-77 0 -122.5 38.5t-45.5 103.5q0 70 51 111t144 55l159 24v-80
l-138 -21q-45 -7 -67.5 -25t-22.5 -50q0 -29 21 -44.5t58 -15.5q54 0 90 27t36 66l14 -77q-20 -55 -65.5 -83.5t-111.5 -28.5zM308 583h-113l104 157h173z" />
    <glyph glyph-name="abreve" unicode="&#x103;" horiz-adv-x="558" 
d="M385 0q-5 20 -7.5 44t-2.5 58h-4v242q0 40 -22.5 60.5t-68.5 20.5q-45 0 -71.5 -16.5t-32.5 -47.5h-121q8 71 68 115t161 44q105 0 159 -47.5t54 -139.5v-231q0 -24 3.5 -49t10.5 -53h-126zM208 -10q-77 0 -122.5 38.5t-45.5 103.5q0 70 51 111t144 55l159 24v-80
l-138 -21q-45 -7 -67.5 -25t-22.5 -50q0 -29 21 -44.5t58 -15.5q54 0 90 27t36 66l14 -77q-20 -55 -65.5 -83.5t-111.5 -28.5zM285 576q-50 0 -88.5 20.5t-60.5 58t-22 85.5h88q0 -34 22 -53.5t61 -19.5t60.5 19.5t21.5 53.5h89q0 -48 -22.5 -85t-60.5 -58t-88 -21z" />
    <glyph glyph-name="uni01CE" unicode="&#x1ce;" horiz-adv-x="558" 
d="M385 0q-5 20 -7.5 44t-2.5 58h-4v242q0 40 -22.5 60.5t-68.5 20.5q-45 0 -71.5 -16.5t-32.5 -47.5h-121q8 71 68 115t161 44q105 0 159 -47.5t54 -139.5v-231q0 -24 3.5 -49t10.5 -53h-126zM208 -10q-77 0 -122.5 38.5t-45.5 103.5q0 70 51 111t144 55l159 24v-80
l-138 -21q-45 -7 -67.5 -25t-22.5 -50q0 -29 21 -44.5t58 -15.5q54 0 90 27t36 66l14 -77q-20 -55 -65.5 -83.5t-111.5 -28.5zM218 583l-131 157h108l144 -130h-109l144 130h108l-131 -157h-133z" />
    <glyph glyph-name="acircumflex" unicode="&#xe2;" horiz-adv-x="558" 
d="M385 0q-5 20 -7.5 44t-2.5 58h-4v242q0 40 -22.5 60.5t-68.5 20.5q-45 0 -71.5 -16.5t-32.5 -47.5h-121q8 71 68 115t161 44q105 0 159 -47.5t54 -139.5v-231q0 -24 3.5 -49t10.5 -53h-126zM208 -10q-77 0 -122.5 38.5t-45.5 103.5q0 70 51 111t144 55l159 24v-80
l-138 -21q-45 -7 -67.5 -25t-22.5 -50q0 -29 21 -44.5t58 -15.5q54 0 90 27t36 66l14 -77q-20 -55 -65.5 -83.5t-111.5 -28.5zM87 583l131 157h133l131 -157h-108l-144 130h109l-144 -130h-108z" />
    <glyph glyph-name="adieresis" unicode="&#xe4;" horiz-adv-x="558" 
d="M385 0q-5 20 -7.5 44t-2.5 58h-4v242q0 40 -22.5 60.5t-68.5 20.5q-45 0 -71.5 -16.5t-32.5 -47.5h-121q8 71 68 115t161 44q105 0 159 -47.5t54 -139.5v-231q0 -24 3.5 -49t10.5 -53h-126zM208 -10q-77 0 -122.5 38.5t-45.5 103.5q0 70 51 111t144 55l159 24v-80
l-138 -21q-45 -7 -67.5 -25t-22.5 -50q0 -29 21 -44.5t58 -15.5q54 0 90 27t36 66l14 -77q-20 -55 -65.5 -83.5t-111.5 -28.5zM331 593v140h137v-140h-137zM101 593v140h137v-140h-137z" />
    <glyph glyph-name="agrave" unicode="&#xe0;" horiz-adv-x="558" 
d="M385 0q-5 20 -7.5 44t-2.5 58h-4v242q0 40 -22.5 60.5t-68.5 20.5q-45 0 -71.5 -16.5t-32.5 -47.5h-121q8 71 68 115t161 44q105 0 159 -47.5t54 -139.5v-231q0 -24 3.5 -49t10.5 -53h-126zM208 -10q-77 0 -122.5 38.5t-45.5 103.5q0 70 51 111t144 55l159 24v-80
l-138 -21q-45 -7 -67.5 -25t-22.5 -50q0 -29 21 -44.5t58 -15.5q54 0 90 27t36 66l14 -77q-20 -55 -65.5 -83.5t-111.5 -28.5zM261 583l-163 157h173l104 -157h-114z" />
    <glyph glyph-name="amacron" unicode="&#x101;" horiz-adv-x="558" 
d="M385 0q-5 20 -7.5 44t-2.5 58h-4v242q0 40 -22.5 60.5t-68.5 20.5q-45 0 -71.5 -16.5t-32.5 -47.5h-121q8 71 68 115t161 44q105 0 159 -47.5t54 -139.5v-231q0 -24 3.5 -49t10.5 -53h-126zM208 -10q-77 0 -122.5 38.5t-45.5 103.5q0 70 51 111t144 55l159 24v-80
l-138 -21q-45 -7 -67.5 -25t-22.5 -50q0 -29 21 -44.5t58 -15.5q54 0 90 27t36 66l14 -77q-20 -55 -65.5 -83.5t-111.5 -28.5zM105 625v92h360v-92h-360z" />
    <glyph glyph-name="aogonek" unicode="&#x105;" horiz-adv-x="558" 
d="M385 0q-5 20 -7.5 44t-2.5 58h-4v242q0 40 -22.5 60.5t-68.5 20.5q-45 0 -71.5 -16.5t-32.5 -47.5h-121q8 71 68 115t161 44q105 0 159 -47.5t54 -139.5v-231q0 -24 3.5 -49t10.5 -53h-126zM208 -10q-77 0 -122.5 38.5t-45.5 103.5q0 70 51 111t144 55l159 24v-80
l-138 -21q-45 -7 -67.5 -25t-22.5 -50q0 -29 21 -44.5t58 -15.5q54 0 90 27t36 66l14 -77q-20 -55 -65.5 -83.5t-111.5 -28.5zM442 -216q-51 0 -78.5 24t-27.5 62q0 44 35 80.5t92 66.5l49 -17q-47 -36 -68 -62.5t-21 -51.5q0 -16 9 -25t22 -9q22 0 38 14l29 -60
q-14 -11 -33 -16.5t-46 -5.5z" />
    <glyph glyph-name="aring" unicode="&#xe5;" horiz-adv-x="558" 
d="M385 0q-5 20 -7.5 44t-2.5 58h-4v242q0 40 -22.5 60.5t-68.5 20.5q-45 0 -71.5 -16.5t-32.5 -47.5h-121q8 71 68 115t161 44q105 0 159 -47.5t54 -139.5v-231q0 -24 3.5 -49t10.5 -53h-126zM208 -10q-77 0 -122.5 38.5t-45.5 103.5q0 70 51 111t144 55l159 24v-80
l-138 -21q-45 -7 -67.5 -25t-22.5 -50q0 -29 21 -44.5t58 -15.5q54 0 90 27t36 66l14 -77q-20 -55 -65.5 -83.5t-111.5 -28.5zM285 561q-46 0 -77 31.5t-31 76.5q0 44 31 75.5t77 31.5t76.5 -31.5t30.5 -75.5q0 -45 -30.5 -76.5t-76.5 -31.5zM285 627q17 0 28.5 12.5
t11.5 29.5t-11.5 29t-28.5 12q-18 0 -29.5 -12t-11.5 -29t11.5 -29.5t29.5 -12.5z" />
    <glyph glyph-name="atilde" unicode="&#xe3;" horiz-adv-x="558" 
d="M385 0q-5 20 -7.5 44t-2.5 58h-4v242q0 40 -22.5 60.5t-68.5 20.5q-45 0 -71.5 -16.5t-32.5 -47.5h-121q8 71 68 115t161 44q105 0 159 -47.5t54 -139.5v-231q0 -24 3.5 -49t10.5 -53h-126zM208 -10q-77 0 -122.5 38.5t-45.5 103.5q0 70 51 111t144 55l159 24v-80
l-138 -21q-45 -7 -67.5 -25t-22.5 -50q0 -29 21 -44.5t58 -15.5q54 0 90 27t36 66l14 -77q-20 -55 -65.5 -83.5t-111.5 -28.5zM360 592q-28 0 -48.5 8.5t-38 20t-34 20t-34.5 8.5q-21 0 -33.5 -14t-12.5 -37h-79q0 38 15.5 69t45 49.5t70.5 18.5q29 0 50 -8.5t37 -20
t31.5 -20t33.5 -8.5q22 0 34.5 14t12.5 37h79q0 -38 -15.5 -69t-44.5 -49.5t-69 -18.5z" />
    <glyph glyph-name="ae" unicode="&#xe6;" horiz-adv-x="880" 
d="M367 142v202q0 40 -23 60.5t-67 20.5q-41 0 -68 -16.5t-33 -47.5h-122q9 71 66 115t156 44q103 0 156 -47.5t53 -139.5v-191h-118zM213 -10q-78 0 -125.5 38.5t-47.5 105.5q0 61 44.5 102.5t144.5 57.5l149 23v-80l-120 -20q-50 -8 -71 -26t-21 -47q0 -28 20.5 -43
t60.5 -15q29 0 56.5 12.5t45.5 34t18 46.5l74 -37q-35 -85 -91.5 -118.5t-136.5 -33.5zM617 -10q-77 0 -133 34t-86 94t-30 138t30.5 137.5t86 93t129.5 33.5q72 0 125.5 -31.5t83.5 -88.5t30 -133q0 -14 -1 -26t-3 -24h-412v88h322l-24 -24q0 72 -30.5 108t-86.5 36
q-40 0 -70 -18t-46.5 -56t-16.5 -97q0 -82 34.5 -125.5t97.5 -43.5q39 0 63.5 15t37.5 46h121q-25 -72 -82 -114t-140 -42z" />
    <glyph glyph-name="b" unicode="b" 
d="M358 -10q-73 0 -119.5 34.5t-57.5 95.5l9 1v-121h-123v720h126v-325l-9 2q13 57 61.5 90t120.5 33q68 0 118.5 -32.5t78.5 -91.5t28 -139q0 -81 -29 -141t-81 -93t-123 -33zM326 94q61 0 97 42.5t36 119.5t-36.5 119t-97.5 42q-60 0 -97 -42.5t-37 -119.5t37 -119t98 -42
z" />
    <glyph glyph-name="c" unicode="c" horiz-adv-x="552" 
d="M288 -10q-77 0 -135.5 34t-92 94.5t-33.5 137.5t33.5 136.5t92 93.5t135.5 34q63 0 114 -23.5t84 -66t42 -98.5h-121q-11 41 -42 64t-75 23q-41 0 -70.5 -20t-45.5 -57t-16 -86q0 -50 16 -87t46 -57.5t70 -20.5q44 0 75 23t42 64h121q-9 -56 -42.5 -98.5t-84 -66
t-113.5 -23.5z" />
    <glyph glyph-name="cacute" unicode="&#x107;" horiz-adv-x="552" 
d="M288 -10q-77 0 -135.5 34t-92 94.5t-33.5 137.5t33.5 136.5t92 93.5t135.5 34q63 0 114 -23.5t84 -66t42 -98.5h-121q-11 41 -42 64t-75 23q-41 0 -70.5 -20t-45.5 -57t-16 -86q0 -50 16 -87t46 -57.5t70 -20.5q44 0 75 23t42 64h121q-9 -56 -42.5 -98.5t-84 -66
t-113.5 -23.5zM314 583h-113l104 157h173z" />
    <glyph glyph-name="ccaron" unicode="&#x10d;" horiz-adv-x="552" 
d="M288 -10q-77 0 -135.5 34t-92 94.5t-33.5 137.5t33.5 136.5t92 93.5t135.5 34q63 0 114 -23.5t84 -66t42 -98.5h-121q-11 41 -42 64t-75 23q-41 0 -70.5 -20t-45.5 -57t-16 -86q0 -50 16 -87t46 -57.5t70 -20.5q44 0 75 23t42 64h121q-9 -56 -42.5 -98.5t-84 -66
t-113.5 -23.5zM224 583l-131 157h108l144 -130h-109l144 130h108l-131 -157h-133z" />
    <glyph glyph-name="ccedilla" unicode="&#xe7;" horiz-adv-x="552" 
d="M288 -10q-77 0 -135.5 34t-92 94.5t-33.5 137.5t33.5 136.5t92 93.5t135.5 34q63 0 114 -23.5t84 -66t42 -98.5h-121q-11 41 -42 64t-75 23q-41 0 -70.5 -20t-45.5 -57t-16 -86q0 -50 16 -87t46 -57.5t70 -20.5q44 0 75 23t42 64h121q-9 -56 -42.5 -98.5t-84 -66
t-113.5 -23.5zM275 -215q-59 0 -94 25t-37 69h84q2 -16 14.5 -23.5t31.5 -7.5q15 0 26.5 6.5t11.5 18.5q0 15 -18.5 24t-70.5 12l26 103h75l-13 -47q45 -10 66.5 -33.5t21.5 -57.5q0 -39 -33 -64t-91 -25z" />
    <glyph glyph-name="cdotaccent" unicode="&#x10b;" horiz-adv-x="552" 
d="M288 -10q-77 0 -135.5 34t-92 94.5t-33.5 137.5t33.5 136.5t92 93.5t135.5 34q63 0 114 -23.5t84 -66t42 -98.5h-121q-11 41 -42 64t-75 23q-41 0 -70.5 -20t-45.5 -57t-16 -86q0 -50 16 -87t46 -57.5t70 -20.5q44 0 75 23t42 64h121q-9 -56 -42.5 -98.5t-84 -66
t-113.5 -23.5zM222 594v139h137v-139h-137z" />
    <glyph glyph-name="d" unicode="d" 
d="M431 0v115l10 -2q-13 -56 -63 -89.5t-119 -33.5q-70 0 -121.5 32.5t-79.5 91.5t-28 139q0 81 29 141t81.5 93t122.5 33q72 0 119 -34.5t58 -95.5l-13 -1v331h127v-720h-123zM296 93q61 0 97.5 42.5t36.5 119.5t-37 119t-98 42q-60 0 -97 -42.5t-37 -119.5t37 -119t98 -42
z" />
    <glyph glyph-name="eth" unicode="&#xf0;" horiz-adv-x="608" 
d="M297 -10q-75 0 -135 30t-94.5 86.5t-34.5 136.5t35.5 135.5t92.5 85.5t123 30q55 0 97 -19t68.5 -54t33.5 -83l-33 -49v65q0 92 -37 156.5t-112.5 98.5t-190.5 34l19 87q106 0 189.5 -27t141 -78.5t88 -126.5t30.5 -172q0 -160 -71.5 -248t-209.5 -88zM299 93q38 0 70 17
t51.5 51.5t19.5 85.5t-19.5 83t-51 47.5t-68.5 15.5q-56 0 -94 -37t-38 -113q0 -52 17.5 -85t47.5 -49t65 -16zM205 511l-41 65l286 180l41 -66z" />
    <glyph glyph-name="dcaron" unicode="&#x10f;" horiz-adv-x="701" 
d="M431 0v115l10 -2q-13 -56 -63 -89.5t-119 -33.5q-70 0 -121.5 32.5t-79.5 91.5t-28 139q0 81 29 141t81.5 93t122.5 33q72 0 119 -34.5t58 -95.5l-13 -1v331h127v-720h-123zM296 93q61 0 97.5 42.5t36.5 119.5t-37 119t-98 42q-60 0 -97 -42.5t-37 -119.5t37 -119t98 -42
zM694 490h-83v230h109z" />
    <glyph glyph-name="dcroat" unicode="&#x111;" 
d="M252 584v84h369v-84h-369zM431 0v115l10 -2q-13 -56 -63 -89.5t-119 -33.5q-70 0 -121.5 32.5t-79.5 91.5t-28 139q0 81 29 141t81.5 93t122.5 33q72 0 119 -34.5t58 -95.5l-13 -1v331h127v-720h-123zM296 93q61 0 97.5 42.5t36.5 119.5t-37 119t-98 42q-60 0 -97 -42.5
t-37 -119.5t37 -119t98 -42z" />
    <glyph glyph-name="e" unicode="e" horiz-adv-x="571" 
d="M296 -10q-81 0 -141.5 34t-94 94t-33.5 138t33.5 137.5t93.5 93t140 33.5q76 0 132 -31.5t87 -88.5t31 -133q0 -14 -1 -26t-3 -24h-435v88h338l-26 -24q0 72 -33 108t-92 36q-64 0 -101.5 -44t-37.5 -127q0 -82 37.5 -125.5t106.5 -43.5q40 0 70 15t44 46h119
q-25 -72 -84.5 -114t-149.5 -42z" />
    <glyph glyph-name="eacute" unicode="&#xe9;" horiz-adv-x="571" 
d="M296 -10q-81 0 -141.5 34t-94 94t-33.5 138t33.5 137.5t93.5 93t140 33.5q76 0 132 -31.5t87 -88.5t31 -133q0 -14 -1 -26t-3 -24h-435v88h338l-26 -24q0 72 -33 108t-92 36q-64 0 -101.5 -44t-37.5 -127q0 -82 37.5 -125.5t106.5 -43.5q40 0 70 15t44 46h119
q-25 -72 -84.5 -114t-149.5 -42zM319 583h-113l104 157h173z" />
    <glyph glyph-name="ecaron" unicode="&#x11b;" horiz-adv-x="571" 
d="M296 -10q-81 0 -141.5 34t-94 94t-33.5 138t33.5 137.5t93.5 93t140 33.5q76 0 132 -31.5t87 -88.5t31 -133q0 -14 -1 -26t-3 -24h-435v88h338l-26 -24q0 72 -33 108t-92 36q-64 0 -101.5 -44t-37.5 -127q0 -82 37.5 -125.5t106.5 -43.5q40 0 70 15t44 46h119
q-25 -72 -84.5 -114t-149.5 -42zM229 583l-131 157h108l144 -130h-109l144 130h108l-131 -157h-133z" />
    <glyph glyph-name="ecircumflex" unicode="&#xea;" horiz-adv-x="571" 
d="M296 -10q-81 0 -141.5 34t-94 94t-33.5 138t33.5 137.5t93.5 93t140 33.5q76 0 132 -31.5t87 -88.5t31 -133q0 -14 -1 -26t-3 -24h-435v88h338l-26 -24q0 72 -33 108t-92 36q-64 0 -101.5 -44t-37.5 -127q0 -82 37.5 -125.5t106.5 -43.5q40 0 70 15t44 46h119
q-25 -72 -84.5 -114t-149.5 -42zM98 583l131 157h133l131 -157h-108l-144 130h109l-144 -130h-108z" />
    <glyph glyph-name="edieresis" unicode="&#xeb;" horiz-adv-x="571" 
d="M296 -10q-81 0 -141.5 34t-94 94t-33.5 138t33.5 137.5t93.5 93t140 33.5q76 0 132 -31.5t87 -88.5t31 -133q0 -14 -1 -26t-3 -24h-435v88h338l-26 -24q0 72 -33 108t-92 36q-64 0 -101.5 -44t-37.5 -127q0 -82 37.5 -125.5t106.5 -43.5q40 0 70 15t44 46h119
q-25 -72 -84.5 -114t-149.5 -42zM342 593v140h137v-140h-137zM112 593v140h137v-140h-137z" />
    <glyph glyph-name="edotaccent" unicode="&#x117;" horiz-adv-x="571" 
d="M296 -10q-81 0 -141.5 34t-94 94t-33.5 138t33.5 137.5t93.5 93t140 33.5q76 0 132 -31.5t87 -88.5t31 -133q0 -14 -1 -26t-3 -24h-435v88h338l-26 -24q0 72 -33 108t-92 36q-64 0 -101.5 -44t-37.5 -127q0 -82 37.5 -125.5t106.5 -43.5q40 0 70 15t44 46h119
q-25 -72 -84.5 -114t-149.5 -42zM227 594v139h137v-139h-137z" />
    <glyph glyph-name="egrave" unicode="&#xe8;" horiz-adv-x="571" 
d="M296 -10q-81 0 -141.5 34t-94 94t-33.5 138t33.5 137.5t93.5 93t140 33.5q76 0 132 -31.5t87 -88.5t31 -133q0 -14 -1 -26t-3 -24h-435v88h338l-26 -24q0 72 -33 108t-92 36q-64 0 -101.5 -44t-37.5 -127q0 -82 37.5 -125.5t106.5 -43.5q40 0 70 15t44 46h119
q-25 -72 -84.5 -114t-149.5 -42zM272 583l-163 157h173l104 -157h-114z" />
    <glyph glyph-name="emacron" unicode="&#x113;" horiz-adv-x="571" 
d="M296 -10q-81 0 -141.5 34t-94 94t-33.5 138t33.5 137.5t93.5 93t140 33.5q76 0 132 -31.5t87 -88.5t31 -133q0 -14 -1 -26t-3 -24h-435v88h338l-26 -24q0 72 -33 108t-92 36q-64 0 -101.5 -44t-37.5 -127q0 -82 37.5 -125.5t106.5 -43.5q40 0 70 15t44 46h119
q-25 -72 -84.5 -114t-149.5 -42zM115 625v92h360v-92h-360z" />
    <glyph glyph-name="eogonek" unicode="&#x119;" horiz-adv-x="571" 
d="M296 -10q-81 0 -141.5 34t-94 94t-33.5 138t33.5 137.5t93.5 93t140 33.5q76 0 132 -31.5t87 -88.5t31 -133q0 -14 -1 -26t-3 -24h-435v88h338l-26 -24q0 72 -33 108t-92 36q-64 0 -101.5 -44t-37.5 -127q0 -82 37.5 -125.5t106.5 -43.5q40 0 70 15t44 46h119
q-25 -72 -84.5 -114t-149.5 -42zM356 -196q-51 0 -78.5 24t-27.5 62q0 44 35 80.5t92 66.5l49 -17q-47 -36 -68 -62.5t-21 -51.5q0 -16 9 -25t22 -9q22 0 38 14l29 -60q-14 -11 -33 -16.5t-46 -5.5z" />
    <glyph glyph-name="f" unicode="f" horiz-adv-x="370" 
d="M107 0v557q0 84 46.5 128.5t139.5 44.5q21 0 35 -2t27 -6v-98q-7 3 -18 4.5t-25 1.5q-40 0 -59.5 -19.5t-19.5 -56.5v-554h-126zM15 411v99h329v-99h-329z" />
    <glyph glyph-name="g" unicode="g" 
d="M291 -215q-101 0 -165.5 44t-76.5 119h120q9 -26 39.5 -40.5t79.5 -14.5q71 0 105 31.5t34 95.5v110l9 -2q-12 -56 -61 -89.5t-120 -33.5q-68 0 -118.5 32t-78.5 89.5t-28 134.5q0 78 29 136t81.5 90.5t122.5 32.5q72 0 118.5 -34.5t57.5 -95.5l-8 -1v121h123v-489
q0 -109 -70.5 -172.5t-192.5 -63.5zM296 105q61 0 97.5 41.5t36.5 116.5t-37 116t-98 41q-60 0 -97 -41.5t-37 -116.5t37 -116t98 -41z" />
    <glyph glyph-name="gbreve" unicode="&#x11f;" 
d="M291 -215q-101 0 -165.5 44t-76.5 119h120q9 -26 39.5 -40.5t79.5 -14.5q71 0 105 31.5t34 95.5v110l9 -2q-12 -56 -61 -89.5t-120 -33.5q-68 0 -118.5 32t-78.5 89.5t-28 134.5q0 78 29 136t81.5 90.5t122.5 32.5q72 0 118.5 -34.5t57.5 -95.5l-8 -1v121h123v-489
q0 -109 -70.5 -172.5t-192.5 -63.5zM296 105q61 0 97.5 41.5t36.5 116.5t-37 116t-98 41q-60 0 -97 -41.5t-37 -116.5t37 -116t98 -41zM295 576q-50 0 -88.5 20.5t-60.5 58t-22 85.5h88q0 -34 22 -53.5t61 -19.5t60.5 19.5t21.5 53.5h89q0 -48 -22.5 -85t-60.5 -58t-88 -21z
" />
    <glyph glyph-name="uni0123" unicode="&#x123;" 
d="M291 -215q-101 0 -165.5 44t-76.5 119h120q9 -26 39.5 -40.5t79.5 -14.5q71 0 105 31.5t34 95.5v110l9 -2q-12 -56 -61 -89.5t-120 -33.5q-68 0 -118.5 32t-78.5 89.5t-28 134.5q0 78 29 136t81.5 90.5t122.5 32.5q72 0 118.5 -34.5t57.5 -95.5l-8 -1v121h123v-489
q0 -109 -70.5 -172.5t-192.5 -63.5zM296 105q61 0 97.5 41.5t36.5 116.5t-37 116t-98 41q-60 0 -97 -41.5t-37 -116.5t37 -116t98 -41zM226 583v104q0 64 36 106.5t101 47.5v-58q-34 -4 -51.5 -25t-17.5 -58l-45 10h114v-127h-137z" />
    <glyph glyph-name="gdotaccent" unicode="&#x121;" 
d="M291 -215q-101 0 -165.5 44t-76.5 119h120q9 -26 39.5 -40.5t79.5 -14.5q71 0 105 31.5t34 95.5v110l9 -2q-12 -56 -61 -89.5t-120 -33.5q-68 0 -118.5 32t-78.5 89.5t-28 134.5q0 78 29 136t81.5 90.5t122.5 32.5q72 0 118.5 -34.5t57.5 -95.5l-8 -1v121h123v-489
q0 -109 -70.5 -172.5t-192.5 -63.5zM296 105q61 0 97.5 41.5t36.5 116.5t-37 116t-98 41q-60 0 -97 -41.5t-37 -116.5t37 -116t98 -41zM226 594v139h137v-139h-137z" />
    <glyph glyph-name="h" unicode="h" horiz-adv-x="612" 
d="M67 0v720h126v-720h-126zM425 0v322q0 47 -24 71t-70 24q-40 0 -71.5 -18t-49 -50t-17.5 -74l-13 122q26 56 76 89.5t120 33.5q83 0 129.5 -47t46.5 -125v-348h-127z" />
    <glyph glyph-name="hbar" unicode="&#x127;" horiz-adv-x="612" 
d="M0 584v84h369v-84h-369zM67 0v720h126v-720h-126zM425 0v322q0 47 -24 71t-70 24q-41 0 -72 -18t-48.5 -50t-17.5 -74l-13 122q26 56 76 89.5t120 33.5q83 0 129.5 -47t46.5 -125v-348h-127z" />
    <glyph glyph-name="i" unicode="i" horiz-adv-x="260" 
d="M67 0v510h126v-510h-126zM61 594v139h137v-139h-137z" />
    <glyph glyph-name="dotlessi" unicode="&#x131;" horiz-adv-x="260" 
d="M67 0v510h126v-510h-126z" />
    <glyph glyph-name="iacute" unicode="&#xed;" horiz-adv-x="260" 
d="M67 0v510h126v-510h-126zM153 583h-113l104 157h173z" />
    <glyph glyph-name="icircumflex" unicode="&#xee;" horiz-adv-x="260" 
d="M67 0v510h126v-510h-126zM-68 583l131 157h133l131 -157h-108l-144 130h109l-144 -130h-108z" />
    <glyph glyph-name="idieresis" unicode="&#xef;" horiz-adv-x="260" 
d="M67 0v510h126v-510h-126zM176 593v140h137v-140h-137zM-54 593v140h137v-140h-137z" />
    <glyph glyph-name="i.loclTRK" horiz-adv-x="260" 
d="M67 0v510h126v-510h-126zM61 594v139h137v-139h-137z" />
    <glyph glyph-name="igrave" unicode="&#xec;" horiz-adv-x="260" 
d="M67 0v510h126v-510h-126zM106 583l-163 157h173l104 -157h-114z" />
    <glyph glyph-name="ij" unicode="&#x133;" horiz-adv-x="511" 
d="M67 0v510h126v-510h-126zM61 594v139h137v-139h-137zM278 -215q-18 0 -32 2.5t-27 5.5v98q8 -3 18 -4.5t22 -1.5q30 0 44.5 14t14.5 42v569h126v-572q0 -72 -40 -112.5t-126 -40.5zM312 594v139h137v-139h-137z" />
    <glyph glyph-name="imacron" unicode="&#x12b;" horiz-adv-x="260" 
d="M67 0v510h126v-510h-126zM-50 625v92h360v-92h-360z" />
    <glyph glyph-name="iogonek" unicode="&#x12f;" horiz-adv-x="260" 
d="M67 0v510h126v-510h-126zM61 594v139h137v-139h-137zM123 -216q-51 0 -78.5 24t-27.5 62q0 44 35 80.5t92 66.5l49 -17q-47 -36 -68 -62.5t-21 -51.5q0 -16 9 -25t22 -9q22 0 38 14l29 -60q-14 -11 -33 -16.5t-46 -5.5z" />
    <glyph glyph-name="j" unicode="j" horiz-adv-x="260" 
d="M27 -215q-18 0 -32 2.5t-27 5.5v98q8 -3 18 -4.5t22 -1.5q30 0 44.5 14t14.5 42v569h126v-572q0 -72 -40 -112.5t-126 -40.5zM61 594v139h137v-139h-137z" />
    <glyph glyph-name="uni0237" unicode="&#x237;" horiz-adv-x="260" 
d="M27 -215q-18 0 -32 2.5t-27 5.5v98q8 -3 18 -4.5t22 -1.5q30 0 44.5 14t14.5 42v569h126v-572q0 -72 -40 -112.5t-126 -40.5z" />
    <glyph glyph-name="k" unicode="k" horiz-adv-x="558" 
d="M67 0v727h126v-727h-126zM396 0l-232 265l225 245h152l-260 -268l7 47l263 -289h-155z" />
    <glyph glyph-name="uni0137" unicode="&#x137;" horiz-adv-x="558" 
d="M67 0v727h126v-727h-126zM396 0l-232 265l225 245h152l-260 -268l7 47l263 -289h-155zM217 -332v58q34 4 51.5 25t17.5 58l45 -10h-114v127h137v-104q0 -64 -36 -106t-101 -48z" />
    <glyph glyph-name="l" unicode="l" horiz-adv-x="260" 
d="M67 0v720h126v-720h-126z" />
    <glyph glyph-name="lacute" unicode="&#x13a;" horiz-adv-x="260" 
d="M67 0v720h126v-720h-126zM153 793h-113l104 157h173z" />
    <glyph glyph-name="lcaron" unicode="&#x13e;" horiz-adv-x="340" 
d="M67 0v720h126v-720h-126zM333 490h-83v230h109z" />
    <glyph glyph-name="uni013C" unicode="&#x13c;" horiz-adv-x="260" 
d="M67 0v720h126v-720h-126zM61 -332v58q34 4 51.5 25t17.5 58l45 -10h-114v127h137v-104q0 -64 -36 -106t-101 -48z" />
    <glyph glyph-name="lslash" unicode="&#x142;" horiz-adv-x="293" 
d="M152 335l-145 -59v87l144 58zM151 429l136 56v-86l-135 -56zM83 0v720h127v-720h-127z" />
    <glyph glyph-name="m" unicode="m" horiz-adv-x="941" 
d="M67 0v510h123v-120h3v-390h-126zM410 0v329q0 45 -22.5 66.5t-63.5 21.5q-36 0 -66 -17t-47.5 -48t-17.5 -72l-13 117q26 56 75 89.5t114 33.5q78 0 123 -44.5t45 -114.5v-361h-127zM753 0v329q0 45 -22 66.5t-63 21.5q-37 0 -67 -17t-47 -48t-17 -72l-22 117
q25 56 76 89.5t118 33.5q80 0 125.5 -45.5t45.5 -120.5v-354h-127z" />
    <glyph glyph-name="n" unicode="n" horiz-adv-x="612" 
d="M67 0v510h123v-120h3v-390h-126zM425 0v322q0 47 -24 71t-70 24q-40 0 -71.5 -18t-49 -50t-17.5 -74l-13 122q26 56 76 89.5t120 33.5q83 0 129.5 -47t46.5 -125v-348h-127z" />
    <glyph glyph-name="nacute" unicode="&#x144;" horiz-adv-x="612" 
d="M67 0v510h123v-120h3v-390h-126zM425 0v322q0 47 -24 71t-70 24q-40 0 -71.5 -18t-49 -50t-17.5 -74l-13 122q26 56 76 89.5t120 33.5q83 0 129.5 -47t46.5 -125v-348h-127zM354 583h-113l104 157h173z" />
    <glyph glyph-name="ncaron" unicode="&#x148;" horiz-adv-x="612" 
d="M67 0v510h123v-120h3v-390h-126zM425 0v322q0 47 -24 71t-70 24q-40 0 -71.5 -18t-49 -50t-17.5 -74l-13 122q26 56 76 89.5t120 33.5q83 0 129.5 -47t46.5 -125v-348h-127zM264 583l-131 157h108l144 -130h-109l144 130h108l-131 -157h-133z" />
    <glyph glyph-name="uni0146" unicode="&#x146;" horiz-adv-x="612" 
d="M67 0v510h123v-120h3v-390h-126zM425 0v322q0 47 -24 71t-70 24q-40 0 -71.5 -18t-49 -50t-17.5 -74l-13 122q26 56 76 89.5t120 33.5q83 0 129.5 -47t46.5 -125v-348h-127zM248 -332v58q34 4 51.5 25t17.5 58l45 -10h-114v127h137v-104q0 -64 -36 -106t-101 -48z" />
    <glyph glyph-name="ntilde" unicode="&#xf1;" horiz-adv-x="612" 
d="M67 0v510h123v-120h3v-390h-126zM425 0v322q0 47 -24 71t-70 24q-40 0 -71.5 -18t-49 -50t-17.5 -74l-13 122q26 56 76 89.5t120 33.5q83 0 129.5 -47t46.5 -125v-348h-127zM406 592q-28 0 -48.5 8.5t-38 20t-34 20t-34.5 8.5q-21 0 -33.5 -14t-12.5 -37h-79
q0 38 15.5 69t45 49.5t70.5 18.5q29 0 50 -8.5t37 -20t31.5 -20t33.5 -8.5q22 0 34.5 14t12.5 37h79q0 -38 -15.5 -69t-44.5 -49.5t-69 -18.5z" />
    <glyph glyph-name="eng" unicode="&#x14b;" horiz-adv-x="612" 
d="M385 -215q-18 0 -32 2.5t-26 5.5v98q7 -3 17.5 -4.5t21.5 -1.5q30 0 44.5 14t14.5 42v381q0 47 -24 71t-70 24q-40 0 -71.5 -18t-49 -50t-17.5 -74l-13 122q26 56 76 89.5t120 33.5q83 0 129.5 -47t46.5 -125v-410q0 -72 -40.5 -112.5t-126.5 -40.5zM67 0v510h123v-120h3
v-390h-126z" />
    <glyph glyph-name="o" unicode="o" horiz-adv-x="597" 
d="M299 -10q-81 0 -142.5 34t-95.5 94.5t-34 138.5t34 137t95.5 92.5t142.5 33.5q82 0 143 -33.5t95 -92.5t34 -137t-34.5 -138.5t-95.5 -94.5t-142 -34zM299 91q40 0 72 20.5t50 58t18 88.5q0 75 -39.5 118t-100.5 43t-101 -43t-40 -118q0 -51 18.5 -88.5t50 -58
t72.5 -20.5z" />
    <glyph glyph-name="oacute" unicode="&#xf3;" horiz-adv-x="597" 
d="M299 -10q-81 0 -142.5 34t-95.5 94.5t-34 138.5t34 137t95.5 92.5t142.5 33.5q82 0 143 -33.5t95 -92.5t34 -137t-34.5 -138.5t-95.5 -94.5t-142 -34zM299 91q40 0 72 20.5t50 58t18 88.5q0 75 -39.5 118t-100.5 43t-101 -43t-40 -118q0 -51 18.5 -88.5t50 -58
t72.5 -20.5zM322 583h-113l104 157h173z" />
    <glyph glyph-name="ocircumflex" unicode="&#xf4;" horiz-adv-x="597" 
d="M299 -10q-81 0 -142.5 34t-95.5 94.5t-34 138.5t34 137t95.5 92.5t142.5 33.5q82 0 143 -33.5t95 -92.5t34 -137t-34.5 -138.5t-95.5 -94.5t-142 -34zM299 91q40 0 72 20.5t50 58t18 88.5q0 75 -39.5 118t-100.5 43t-101 -43t-40 -118q0 -51 18.5 -88.5t50 -58
t72.5 -20.5zM101 583l131 157h133l131 -157h-108l-144 130h109l-144 -130h-108z" />
    <glyph glyph-name="odieresis" unicode="&#xf6;" horiz-adv-x="597" 
d="M299 -10q-81 0 -142.5 34t-95.5 94.5t-34 138.5t34 137t95.5 92.5t142.5 33.5q82 0 143 -33.5t95 -92.5t34 -137t-34.5 -138.5t-95.5 -94.5t-142 -34zM299 91q40 0 72 20.5t50 58t18 88.5q0 75 -39.5 118t-100.5 43t-101 -43t-40 -118q0 -51 18.5 -88.5t50 -58
t72.5 -20.5zM345 593v140h137v-140h-137zM115 593v140h137v-140h-137z" />
    <glyph glyph-name="ograve" unicode="&#xf2;" horiz-adv-x="597" 
d="M299 -10q-81 0 -142.5 34t-95.5 94.5t-34 138.5t34 137t95.5 92.5t142.5 33.5q82 0 143 -33.5t95 -92.5t34 -137t-34.5 -138.5t-95.5 -94.5t-142 -34zM299 91q40 0 72 20.5t50 58t18 88.5q0 75 -39.5 118t-100.5 43t-101 -43t-40 -118q0 -51 18.5 -88.5t50 -58
t72.5 -20.5zM275 583l-163 157h173l104 -157h-114z" />
    <glyph glyph-name="ohungarumlaut" unicode="&#x151;" horiz-adv-x="597" 
d="M299 -10q-81 0 -142.5 34t-95.5 94.5t-34 138.5t34 137t95.5 92.5t142.5 33.5q82 0 143 -33.5t95 -92.5t34 -137t-34.5 -138.5t-95.5 -94.5t-142 -34zM299 91q40 0 72 20.5t50 58t18 88.5q0 75 -39.5 118t-100.5 43t-101 -43t-40 -118q0 -51 18.5 -88.5t50 -58
t72.5 -20.5zM224 583h-97l57 157h144zM437 583h-97l57 157h144z" />
    <glyph glyph-name="omacron" unicode="&#x14d;" horiz-adv-x="597" 
d="M299 -10q-81 0 -142.5 34t-95.5 94.5t-34 138.5t34 137t95.5 92.5t142.5 33.5q82 0 143 -33.5t95 -92.5t34 -137t-34.5 -138.5t-95.5 -94.5t-142 -34zM299 91q40 0 72 20.5t50 58t18 88.5q0 75 -39.5 118t-100.5 43t-101 -43t-40 -118q0 -51 18.5 -88.5t50 -58
t72.5 -20.5zM118 625v92h360v-92h-360z" />
    <glyph glyph-name="oslash" unicode="&#xf8;" horiz-adv-x="597" 
d="M299 -10q-81 0 -142.5 34t-95.5 94.5t-34 138.5t34 137t95.5 92.5t142.5 33.5q82 0 143 -33.5t95 -92.5t34 -137t-34.5 -138.5t-95.5 -94.5t-142 -34zM299 88q42 0 74.5 21t51 59t18.5 90q0 77 -40 120.5t-104 43.5t-104 -43.5t-40 -120.5q0 -52 18 -90t50.5 -59
t75.5 -21zM89 -14l-59 60l478 478l60 -60z" />
    <glyph glyph-name="otilde" unicode="&#xf5;" horiz-adv-x="597" 
d="M299 -10q-81 0 -142.5 34t-95.5 94.5t-34 138.5t34 137t95.5 92.5t142.5 33.5q82 0 143 -33.5t95 -92.5t34 -137t-34.5 -138.5t-95.5 -94.5t-142 -34zM299 91q40 0 72 20.5t50 58t18 88.5q0 75 -39.5 118t-100.5 43t-101 -43t-40 -118q0 -51 18.5 -88.5t50 -58
t72.5 -20.5zM374 592q-28 0 -48.5 8.5t-38 20t-34 20t-34.5 8.5q-21 0 -33.5 -14t-12.5 -37h-79q0 38 15.5 69t45 49.5t70.5 18.5q29 0 50 -8.5t37 -20t31.5 -20t33.5 -8.5q22 0 34.5 14t12.5 37h79q0 -38 -15.5 -69t-44.5 -49.5t-69 -18.5z" />
    <glyph glyph-name="oe" unicode="&#x153;" horiz-adv-x="948" 
d="M289 -10q-76 0 -135.5 34t-93 94.5t-33.5 138.5t33.5 137t93 92.5t135.5 33.5q77 0 133.5 -33.5t87.5 -92.5t31 -137t-31.5 -138.5t-88 -94.5t-132.5 -34zM289 91q38 0 67.5 20.5t46 58t16.5 88.5q0 50 -16.5 86t-46 55.5t-67.5 19.5t-67.5 -19.5t-46.5 -55.5t-17 -86
q0 -51 17 -88.5t46.5 -58t67.5 -20.5zM684 -10q-76 0 -134 34t-90.5 94t-32.5 138t32.5 137.5t90 93t131.5 33.5q71 0 125.5 -31.5t84.5 -88.5t30 -133q0 -14 -0.5 -26t-2.5 -24h-415v88h318l-24 -24q0 72 -31.5 108t-83.5 36q-40 0 -69.5 -19.5t-45.5 -57.5t-16 -94
q0 -55 16 -92.5t46 -57t71 -19.5q33 0 61 15t41 46h122q-25 -72 -83.5 -114t-140.5 -42z" />
    <glyph glyph-name="p" unicode="p" 
d="M358 -10q-73 0 -118.5 34.5t-56.5 95.5l10 1v-326h-126v715h123v-115l-10 2q14 57 64 90t122 33q68 0 118.5 -32.5t78.5 -91.5t28 -139q0 -81 -29 -141t-81 -93t-123 -33zM326 94q61 0 97 42.5t36 119.5t-36.5 119t-97.5 42q-60 0 -97 -42.5t-37 -119.5t37 -119t98 -42z
" />
    <glyph glyph-name="thorn" unicode="&#xfe;" 
d="M358 -10q-73 0 -118.5 34.5t-56.5 95.5l10 1v-326h-126v925h126v-325l-13 2q14 57 64 90t122 33q68 0 118.5 -32.5t78.5 -91.5t28 -139q0 -81 -29 -141t-81 -93t-123 -33zM326 94q62 0 97.5 42.5t35.5 119.5t-36 119t-98 42t-98 -42.5t-36 -119.5t36 -119t99 -42z" />
    <glyph glyph-name="q" unicode="q" 
d="M427 -205v320l14 -2q-13 -56 -63 -89.5t-119 -33.5q-70 0 -121.5 32.5t-79.5 91.5t-28 139q0 81 29 141t81.5 93t122.5 33q72 0 119 -34.5t58 -95.5l-9 -1v121h123v-715h-127zM296 93q62 0 98 42.5t36 119.5t-36.5 119t-98.5 42t-98 -42.5t-36 -119.5t36 -119t99 -42z
" />
    <glyph glyph-name="r" unicode="r" horiz-adv-x="390" 
d="M67 0v510h123v-123h3v-387h-126zM193 266l-13 121q18 65 61 99t103 34q21 0 30 -4v-119q-5 2 -14 2.5t-22 0.5q-73 0 -109 -32t-36 -102z" />
    <glyph glyph-name="racute" unicode="&#x155;" horiz-adv-x="390" 
d="M67 0v510h123v-123h3v-387h-126zM193 266l-13 121q18 65 61 99t103 34q21 0 30 -4v-119q-5 2 -14 2.5t-22 0.5q-73 0 -109 -32t-36 -102zM239 583h-113l104 157h173z" />
    <glyph glyph-name="rcaron" unicode="&#x159;" horiz-adv-x="390" 
d="M67 0v510h123v-123h3v-387h-126zM193 266l-13 121q18 65 61 99t103 34q21 0 30 -4v-119q-5 2 -14 2.5t-22 0.5q-73 0 -109 -32t-36 -102zM150 583l-131 157h108l144 -130h-109l144 130h108l-131 -157h-133z" />
    <glyph glyph-name="uni0157" unicode="&#x157;" horiz-adv-x="390" 
d="M67 0v510h123v-123h3v-387h-126zM193 266l-13 121q18 65 61 99t103 34q21 0 30 -4v-119q-5 2 -14 2.5t-22 0.5q-73 0 -109 -32t-36 -102zM59 -332v58q34 4 51.5 25t17.5 58l45 -10h-114v127h137v-104q0 -64 -36 -106t-101 -48z" />
    <glyph glyph-name="s" unicode="s" horiz-adv-x="494" 
d="M262 -10q-106 0 -169 44.5t-69 123.5h115q5 -39 37 -59t86 -20q49 0 73.5 15.5t24.5 44.5q0 21 -14 34.5t-53 22.5l-82 19q-84 18 -124.5 56.5t-40.5 96.5q0 71 54.5 111.5t150.5 40.5q95 0 152.5 -40.5t63.5 -111.5h-115q-5 31 -31.5 47t-72.5 16q-43 0 -65 -13.5
t-22 -39.5q0 -20 17 -33.5t57 -23.5l88 -20q75 -17 113.5 -59t38.5 -99q0 -73 -56 -113t-157 -40z" />
    <glyph glyph-name="sacute" unicode="&#x15b;" horiz-adv-x="494" 
d="M262 -10q-106 0 -169 44.5t-69 123.5h115q5 -39 37 -59t86 -20q49 0 73.5 15.5t24.5 44.5q0 21 -14 34.5t-53 22.5l-82 19q-84 18 -124.5 56.5t-40.5 96.5q0 71 54.5 111.5t150.5 40.5q95 0 152.5 -40.5t63.5 -111.5h-115q-5 31 -31.5 47t-72.5 16q-43 0 -65 -13.5
t-22 -39.5q0 -20 17 -33.5t57 -23.5l88 -20q75 -17 113.5 -59t38.5 -99q0 -73 -56 -113t-157 -40zM271 583h-113l104 157h173z" />
    <glyph glyph-name="scaron" unicode="&#x161;" horiz-adv-x="494" 
d="M262 -10q-106 0 -169 44.5t-69 123.5h115q5 -39 37 -59t86 -20q49 0 73.5 15.5t24.5 44.5q0 21 -14 34.5t-53 22.5l-82 19q-84 18 -124.5 56.5t-40.5 96.5q0 71 54.5 111.5t150.5 40.5q95 0 152.5 -40.5t63.5 -111.5h-115q-5 31 -31.5 47t-72.5 16q-43 0 -65 -13.5
t-22 -39.5q0 -20 17 -33.5t57 -23.5l88 -20q75 -17 113.5 -59t38.5 -99q0 -73 -56 -113t-157 -40zM182 583l-131 157h108l144 -130h-109l144 130h108l-131 -157h-133z" />
    <glyph glyph-name="scedilla" unicode="&#x15f;" horiz-adv-x="494" 
d="M262 -10q-106 0 -169 44.5t-69 123.5h115q5 -39 37 -59t86 -20q49 0 73.5 15.5t24.5 44.5q0 21 -14 34.5t-53 22.5l-82 19q-84 18 -124.5 56.5t-40.5 96.5q0 71 54.5 111.5t150.5 40.5q95 0 152.5 -40.5t63.5 -111.5h-115q-5 31 -31.5 47t-72.5 16q-43 0 -65 -13.5
t-22 -39.5q0 -20 17 -33.5t57 -23.5l88 -20q75 -17 113.5 -59t38.5 -99q0 -73 -56 -113t-157 -40zM252 -215q-59 0 -94 25t-37 69h84q2 -16 14.5 -23.5t31.5 -7.5q15 0 26.5 6.5t11.5 18.5q0 15 -18.5 24t-70.5 12l26 103h75l-13 -47q45 -10 66.5 -33.5t21.5 -57.5
q0 -39 -33 -64t-91 -25z" />
    <glyph glyph-name="uni0219" unicode="&#x219;" horiz-adv-x="494" 
d="M262 -10q-106 0 -169 44.5t-69 123.5h115q5 -39 37 -59t86 -20q49 0 73.5 15.5t24.5 44.5q0 21 -14 34.5t-53 22.5l-82 19q-84 18 -124.5 56.5t-40.5 96.5q0 71 54.5 111.5t150.5 40.5q95 0 152.5 -40.5t63.5 -111.5h-115q-5 31 -31.5 47t-72.5 16q-43 0 -65 -13.5
t-22 -39.5q0 -20 17 -33.5t57 -23.5l88 -20q75 -17 113.5 -59t38.5 -99q0 -73 -56 -113t-157 -40zM190 -332v58q34 4 51.5 25t17.5 58l45 -10h-114v127h137v-104q0 -64 -36 -106t-101 -48z" />
    <glyph glyph-name="germandbls" unicode="&#xdf;" horiz-adv-x="631" 
d="M349 -10q-26 0 -47.5 3.5t-34.5 9.5v98q14 -4 29.5 -6.5t34.5 -2.5q70 0 103.5 30t33.5 85q0 53 -37 85.5t-103 32.5h-51v101h43q31 0 55.5 12t39 34t14.5 52q0 49 -29.5 77.5t-84.5 28.5q-58 0 -90 -36t-32 -107v-487h-126v483q0 113 63.5 180t186.5 67
q75 0 129.5 -24.5t84.5 -68t30 -101.5q0 -52 -24.5 -89.5t-66 -57.5t-94.5 -20l3 21q70 0 119.5 -25t75 -69t25.5 -100q0 -62 -30.5 -108.5t-87 -72t-132.5 -25.5z" />
    <glyph glyph-name="t" unicode="t" horiz-adv-x="406" 
d="M296 -10q-94 0 -138.5 44.5t-44.5 133.5v458l127 47v-508q0 -37 20 -55t63 -18q17 0 30.5 2.5t25.5 6.5v-98q-12 -6 -34 -9.5t-49 -3.5zM15 411v99h364v-99h-364z" />
    <glyph glyph-name="tcaron" unicode="&#x165;" horiz-adv-x="406" 
d="M296 -10q-94 0 -138.5 44.5t-44.5 133.5v458l127 47v-508q0 -37 20 -55t63 -18q17 0 30.5 2.5t25.5 6.5v-98q-12 -6 -34 -9.5t-49 -3.5zM15 411v99h364v-99h-364zM403 557h-83v230h109z" />
    <glyph glyph-name="uni021B" unicode="&#x21b;" horiz-adv-x="406" 
d="M296 -10q-94 0 -138.5 44.5t-44.5 133.5v458l127 47v-508q0 -37 20 -55t63 -18q17 0 30.5 2.5t25.5 6.5v-98q-12 -6 -34 -9.5t-49 -3.5zM15 411v99h364v-99h-364zM194 -332v58q34 4 51.5 25t17.5 58l45 -10h-114v127h137v-104q0 -64 -36 -106t-101 -48z" />
    <glyph glyph-name="u" unicode="u" horiz-adv-x="604" 
d="M232 -10q-53 0 -91.5 22.5t-59 61.5t-20.5 88v348h126v-322q0 -47 23.5 -71t66.5 -24q39 0 68.5 18t47 50.5t17.5 73.5l13 -122q-25 -56 -74.5 -89.5t-116.5 -33.5zM414 0v120h-4v390h127v-510h-123z" />
    <glyph glyph-name="uacute" unicode="&#xfa;" horiz-adv-x="604" 
d="M232 -10q-53 0 -91.5 22.5t-59 61.5t-20.5 88v348h126v-322q0 -47 23.5 -71t66.5 -24q39 0 68.5 18t47 50.5t17.5 73.5l13 -122q-25 -56 -74.5 -89.5t-116.5 -33.5zM414 0v120h-4v390h127v-510h-123zM325 583h-113l104 157h173z" />
    <glyph glyph-name="ubreve" unicode="&#x16d;" horiz-adv-x="604" 
d="M232 -10q-53 0 -91.5 22.5t-59 61.5t-20.5 88v348h126v-322q0 -47 23.5 -71t66.5 -24q39 0 68.5 18t47 50.5t17.5 73.5l13 -122q-25 -56 -74.5 -89.5t-116.5 -33.5zM414 0v120h-4v390h127v-510h-123zM302 576q-50 0 -88.5 20.5t-60.5 58t-22 85.5h88q0 -34 22 -53.5
t61 -19.5t60.5 19.5t21.5 53.5h89q0 -48 -22.5 -85t-60.5 -58t-88 -21z" />
    <glyph glyph-name="ucircumflex" unicode="&#xfb;" horiz-adv-x="604" 
d="M232 -10q-53 0 -91.5 22.5t-59 61.5t-20.5 88v348h126v-322q0 -47 23.5 -71t66.5 -24q39 0 68.5 18t47 50.5t17.5 73.5l13 -122q-25 -56 -74.5 -89.5t-116.5 -33.5zM414 0v120h-4v390h127v-510h-123zM105 583l131 157h133l131 -157h-108l-144 130h109l-144 -130h-108z
" />
    <glyph glyph-name="udieresis" unicode="&#xfc;" horiz-adv-x="604" 
d="M232 -10q-53 0 -91.5 22.5t-59 61.5t-20.5 88v348h126v-322q0 -47 23.5 -71t66.5 -24q39 0 68.5 18t47 50.5t17.5 73.5l13 -122q-25 -56 -74.5 -89.5t-116.5 -33.5zM414 0v120h-4v390h127v-510h-123zM349 593v140h137v-140h-137zM119 593v140h137v-140h-137z" />
    <glyph glyph-name="ugrave" unicode="&#xf9;" horiz-adv-x="604" 
d="M232 -10q-53 0 -91.5 22.5t-59 61.5t-20.5 88v348h126v-322q0 -47 23.5 -71t66.5 -24q39 0 68.5 18t47 50.5t17.5 73.5l13 -122q-25 -56 -74.5 -89.5t-116.5 -33.5zM414 0v120h-4v390h127v-510h-123zM279 583l-163 157h173l104 -157h-114z" />
    <glyph glyph-name="uhungarumlaut" unicode="&#x171;" horiz-adv-x="604" 
d="M232 -10q-53 0 -91.5 22.5t-59 61.5t-20.5 88v348h126v-322q0 -47 23.5 -71t66.5 -24q39 0 68.5 18t47 50.5t17.5 73.5l13 -122q-25 -56 -74.5 -89.5t-116.5 -33.5zM414 0v120h-4v390h127v-510h-123zM228 583h-97l57 157h144zM441 583h-97l57 157h144z" />
    <glyph glyph-name="umacron" unicode="&#x16b;" horiz-adv-x="604" 
d="M232 -10q-53 0 -91.5 22.5t-59 61.5t-20.5 88v348h126v-322q0 -47 23.5 -71t66.5 -24q39 0 68.5 18t47 50.5t17.5 73.5l13 -122q-25 -56 -74.5 -89.5t-116.5 -33.5zM414 0v120h-4v390h127v-510h-123zM122 625v92h360v-92h-360z" />
    <glyph glyph-name="uogonek" unicode="&#x173;" horiz-adv-x="604" 
d="M232 -10q-53 0 -91.5 22.5t-59 61.5t-20.5 88v348h126v-322q0 -47 23.5 -71t66.5 -24q39 0 68.5 18t47 50.5t17.5 73.5l13 -122q-25 -56 -74.5 -89.5t-116.5 -33.5zM414 0v120h-4v390h127v-510h-123zM467 -216q-51 0 -78.5 24t-27.5 62q0 44 35 80.5t92 66.5l49 -17
q-47 -36 -68 -62.5t-21 -51.5q0 -16 9 -25t22 -9q22 0 38 14l29 -60q-14 -11 -33 -16.5t-46 -5.5z" />
    <glyph glyph-name="uring" unicode="&#x16f;" horiz-adv-x="604" 
d="M232 -10q-53 0 -91.5 22.5t-59 61.5t-20.5 88v348h126v-322q0 -47 23.5 -71t66.5 -24q39 0 68.5 18t47 50.5t17.5 73.5l13 -122q-25 -56 -74.5 -89.5t-116.5 -33.5zM414 0v120h-4v390h127v-510h-123zM302 561q-46 0 -77 31.5t-31 76.5q0 44 31 75.5t77 31.5t76.5 -31.5
t30.5 -75.5q0 -45 -30.5 -76.5t-76.5 -31.5zM302 627q17 0 28.5 12.5t11.5 29.5t-11.5 29t-28.5 12q-18 0 -29.5 -12t-11.5 -29t11.5 -29.5t29.5 -12.5z" />
    <glyph glyph-name="v" unicode="v" horiz-adv-x="536" 
d="M209 0l-204 510h136l163 -469h-67l163 469h132l-205 -510h-118z" />
    <glyph glyph-name="w" unicode="w" horiz-adv-x="800" 
d="M172 0l-156 510h132l92 -383h-9l113 383h115l115 -383h-10l91 383h129l-156 -510h-118l-115 379h10l-115 -379h-118z" />
    <glyph glyph-name="wacute" unicode="&#x1e83;" horiz-adv-x="800" 
d="M172 0l-156 510h132l92 -383h-9l113 383h115l115 -383h-10l91 383h129l-156 -510h-118l-115 379h10l-115 -379h-118zM423 583h-113l104 157h173z" />
    <glyph glyph-name="wcircumflex" unicode="&#x175;" horiz-adv-x="800" 
d="M172 0l-156 510h132l92 -383h-9l113 383h115l115 -383h-10l91 383h129l-156 -510h-118l-115 379h10l-115 -379h-118zM202 583l131 157h133l131 -157h-108l-144 130h109l-144 -130h-108z" />
    <glyph glyph-name="wdieresis" unicode="&#x1e85;" horiz-adv-x="800" 
d="M172 0l-156 510h132l92 -383h-9l113 383h115l115 -383h-10l91 383h129l-156 -510h-118l-115 379h10l-115 -379h-118zM446 593v140h137v-140h-137zM216 593v140h137v-140h-137z" />
    <glyph glyph-name="wgrave" unicode="&#x1e81;" horiz-adv-x="800" 
d="M172 0l-156 510h132l92 -383h-9l113 383h115l115 -383h-10l91 383h129l-156 -510h-118l-115 379h10l-115 -379h-118zM376 583l-163 157h173l104 -157h-114z" />
    <glyph glyph-name="x" unicode="x" horiz-adv-x="587" 
d="M417 0l-157 228l-212 282h143l142 -207l227 -303h-143zM270 307l143 203h140l-222 -291zM320 213l-154 -213h-139l233 302z" />
    <glyph glyph-name="y" unicode="y" horiz-adv-x="536" 
d="M99 -205l132 296l23 38l144 381h134l-305 -715h-128zM212 5l-207 505h137l173 -458z" />
    <glyph glyph-name="yacute" unicode="&#xfd;" horiz-adv-x="536" 
d="M99 -205l132 296l23 38l144 381h134l-305 -715h-128zM212 5l-207 505h137l173 -458zM292 583h-113l104 157h173z" />
    <glyph glyph-name="ycircumflex" unicode="&#x177;" horiz-adv-x="536" 
d="M99 -205l132 296l23 38l144 381h134l-305 -715h-128zM212 5l-207 505h137l173 -458zM71 583l131 157h133l131 -157h-108l-144 130h109l-144 -130h-108z" />
    <glyph glyph-name="ydieresis" unicode="&#xff;" horiz-adv-x="536" 
d="M99 -205l132 296l23 38l144 381h134l-305 -715h-128zM212 5l-207 505h137l173 -458zM315 593v140h137v-140h-137zM85 593v140h137v-140h-137z" />
    <glyph glyph-name="ygrave" unicode="&#x1ef3;" horiz-adv-x="536" 
d="M99 -205l132 296l23 38l144 381h134l-305 -715h-128zM212 5l-207 505h137l173 -458zM245 583l-163 157h173l104 -157h-114z" />
    <glyph glyph-name="z" unicode="z" horiz-adv-x="513" 
d="M47 0v89l293 370l30 -48h-314v99h409v-89l-288 -365l-29 43h323v-99h-424z" />
    <glyph glyph-name="zacute" unicode="&#x17a;" horiz-adv-x="513" 
d="M47 0v89l293 370l30 -48h-314v99h409v-89l-288 -365l-29 43h323v-99h-424zM280 583h-113l104 157h173z" />
    <glyph glyph-name="zcaron" unicode="&#x17e;" horiz-adv-x="513" 
d="M47 0v89l293 370l30 -48h-314v99h409v-89l-288 -365l-29 43h323v-99h-424zM190 583l-131 157h108l144 -130h-109l144 130h108l-131 -157h-133z" />
    <glyph glyph-name="zdotaccent" unicode="&#x17c;" horiz-adv-x="513" 
d="M47 0v89l293 370l30 -48h-314v99h409v-89l-288 -365l-29 43h323v-99h-424zM188 594v139h137v-139h-137z" />
    <glyph glyph-name="adieresis.ss01" horiz-adv-x="558" 
d="M385 0q-5 20 -7.5 44t-2.5 58h-4v242q0 40 -22.5 60.5t-68.5 20.5q-45 0 -71.5 -16.5t-32.5 -47.5h-121q8 71 68 115t161 44q105 0 159 -47.5t54 -139.5v-231q0 -24 3.5 -49t10.5 -53h-126zM208 -10q-77 0 -122.5 38.5t-45.5 103.5q0 70 51 111t144 55l159 24v-80
l-138 -21q-45 -7 -67.5 -25t-22.5 -50q0 -29 21 -44.5t58 -15.5q54 0 90 27t36 66l14 -77q-20 -55 -65.5 -83.5t-111.5 -28.5zM170 590q-31 0 -53 22.5t-22 54.5q0 33 22 54.5t53 21.5q32 0 53.5 -21.5t21.5 -54.5q0 -32 -21.5 -54.5t-53.5 -22.5zM400 590q-31 0 -53 22.5
t-22 54.5q0 33 22 54.5t53 21.5q32 0 53.5 -21.5t21.5 -54.5q0 -32 -21.5 -54.5t-53.5 -22.5z" />
    <glyph glyph-name="cdotaccent.ss01" horiz-adv-x="552" 
d="M288 -10q-77 0 -135.5 34t-92 94.5t-33.5 137.5t33.5 136.5t92 93.5t135.5 34q63 0 114 -23.5t84 -66t42 -98.5h-121q-11 41 -42 64t-75 23q-41 0 -70.5 -20t-45.5 -57t-16 -86q0 -50 16 -87t46 -57.5t70 -20.5q44 0 75 23t42 64h121q-9 -56 -42.5 -98.5t-84 -66
t-113.5 -23.5zM292 577q-34 0 -58.5 24t-24.5 59q0 38 24.5 60.5t58.5 22.5q33 0 57 -22.5t24 -60.5q0 -35 -24 -59t-57 -24z" />
    <glyph glyph-name="edieresis.ss01" horiz-adv-x="571" 
d="M296 -10q-81 0 -141.5 34t-94 94t-33.5 138t33.5 137.5t93.5 93t140 33.5q76 0 132 -31.5t87 -88.5t31 -133q0 -14 -1 -26t-3 -24h-435v88h338l-26 -24q0 72 -33 108t-92 36q-64 0 -101.5 -44t-37.5 -127q0 -82 37.5 -125.5t106.5 -43.5q40 0 70 15t44 46h119
q-25 -72 -84.5 -114t-149.5 -42zM180 590q-31 0 -53 22.5t-22 54.5q0 33 22 54.5t53 21.5q32 0 53.5 -21.5t21.5 -54.5q0 -32 -21.5 -54.5t-53.5 -22.5zM410 590q-31 0 -53 22.5t-22 54.5q0 33 22 54.5t53 21.5q32 0 53.5 -21.5t21.5 -54.5q0 -32 -21.5 -54.5t-53.5 -22.5z
" />
    <glyph glyph-name="edotaccent.ss01" horiz-adv-x="571" 
d="M296 -10q-81 0 -141.5 34t-94 94t-33.5 138t33.5 137.5t93.5 93t140 33.5q76 0 132 -31.5t87 -88.5t31 -133q0 -14 -1 -26t-3 -24h-435v88h338l-26 -24q0 72 -33 108t-92 36q-64 0 -101.5 -44t-37.5 -127q0 -82 37.5 -125.5t106.5 -43.5q40 0 70 15t44 46h119
q-25 -72 -84.5 -114t-149.5 -42zM297 577q-34 0 -58.5 24t-24.5 59q0 38 24.5 60.5t58.5 22.5q33 0 57 -22.5t24 -60.5q0 -35 -24 -59t-57 -24z" />
    <glyph glyph-name="uni0123.ss01" 
d="M291 -215q-101 0 -165.5 44t-76.5 119h120q9 -26 39.5 -40.5t79.5 -14.5q71 0 105 31.5t34 95.5v110l9 -2q-12 -56 -61 -89.5t-120 -33.5q-68 0 -118.5 32t-78.5 89.5t-28 134.5q0 78 29 136t81.5 90.5t122.5 32.5q72 0 118.5 -34.5t57.5 -95.5l-8 -1v121h123v-489
q0 -109 -70.5 -172.5t-192.5 -63.5zM296 105q61 0 97.5 41.5t36.5 116.5t-37 116t-98 41q-60 0 -97 -41.5t-37 -116.5t37 -116t98 -41zM298 576q-33 0 -56 24t-23 75q0 43 16.5 79.5t47 59.5t72.5 27v-58q-34 -4 -51 -25t-17 -58h-38q10 7 22 12t24 5q31 0 53 -20.5
t22 -50.5t-21 -50t-51 -20z" />
    <glyph glyph-name="gdotaccent.ss01" 
d="M291 -215q-101 0 -165.5 44t-76.5 119h120q9 -26 39.5 -40.5t79.5 -14.5q71 0 105 31.5t34 95.5v110l9 -2q-12 -56 -61 -89.5t-120 -33.5q-68 0 -118.5 32t-78.5 89.5t-28 134.5q0 78 29 136t81.5 90.5t122.5 32.5q72 0 118.5 -34.5t57.5 -95.5l-8 -1v121h123v-489
q0 -109 -70.5 -172.5t-192.5 -63.5zM296 105q61 0 97.5 41.5t36.5 116.5t-37 116t-98 41q-60 0 -97 -41.5t-37 -116.5t37 -116t98 -41zM296 577q-34 0 -58.5 24t-24.5 59q0 38 24.5 60.5t58.5 22.5q33 0 57 -22.5t24 -60.5q0 -35 -24 -59t-57 -24z" />
    <glyph glyph-name="i.ss01" horiz-adv-x="260" 
d="M67 0v510h126v-510h-126zM131 577q-34 0 -58.5 24t-24.5 59q0 38 24.5 60.5t58.5 22.5q33 0 57 -22.5t24 -60.5q0 -35 -24 -59t-57 -24z" />
    <glyph glyph-name="idieresis.ss01" horiz-adv-x="260" 
d="M67 0v510h126v-510h-126zM15 590q-31 0 -53 22.5t-22 54.5q0 33 22 54.5t53 21.5q32 0 53.5 -21.5t21.5 -54.5q0 -32 -21.5 -54.5t-53.5 -22.5zM245 590q-31 0 -53 22.5t-22 54.5q0 33 22 54.5t53 21.5q32 0 53.5 -21.5t21.5 -54.5q0 -32 -21.5 -54.5t-53.5 -22.5z" />
    <glyph glyph-name="i.loclTRK.ss01" horiz-adv-x="260" 
d="M67 0v510h126v-510h-126zM131 577q-34 0 -58.5 24t-24.5 59q0 38 24.5 60.5t58.5 22.5q33 0 57 -22.5t24 -60.5q0 -35 -24 -59t-57 -24z" />
    <glyph glyph-name="ij.ss01" horiz-adv-x="508" 
d="M67 0v510h126v-510h-126zM131 577q-34 0 -58.5 24t-24.5 59q0 38 24.5 60.5t58.5 22.5q33 0 57 -22.5t24 -60.5q0 -35 -24 -59t-57 -24zM275 -215q-18 0 -32 2.5t-27 5.5v98q8 -3 18 -4.5t22 -1.5q30 0 44.5 14t14.5 42v569h126v-572q0 -72 -40 -112.5t-126 -40.5z
M379 577q-34 0 -58.5 24t-24.5 59q0 38 24.5 60.5t58.5 22.5q33 0 57 -22.5t24 -60.5q0 -35 -24 -59t-57 -24z" />
    <glyph glyph-name="iogonek.ss01" horiz-adv-x="260" 
d="M67 0v510h126v-510h-126zM131 577q-34 0 -58.5 24t-24.5 59q0 38 24.5 60.5t58.5 22.5q33 0 57 -22.5t24 -60.5q0 -35 -24 -59t-57 -24zM123 -216q-51 0 -78.5 24t-27.5 62q0 44 35 80.5t92 66.5l49 -17q-47 -36 -68 -62.5t-21 -51.5q0 -16 9 -25t22 -9q22 0 38 14
l29 -60q-14 -11 -33 -16.5t-46 -5.5z" />
    <glyph glyph-name="j.ss01" horiz-adv-x="260" 
d="M27 -215q-18 0 -32 2.5t-27 5.5v98q8 -3 18 -4.5t22 -1.5q30 0 44.5 14t14.5 42v569h126v-572q0 -72 -40 -112.5t-126 -40.5zM131 577q-34 0 -58.5 24t-24.5 59q0 38 24.5 60.5t58.5 22.5q33 0 57 -22.5t24 -60.5q0 -35 -24 -59t-57 -24z" />
    <glyph glyph-name="uni0137.ss01" horiz-adv-x="558" 
d="M67 0v727h126v-727h-126zM396 0l-232 265l225 245h152l-260 -268l7 47l263 -289h-155zM225 -332v58q34 4 51 25t17 58h38q-9 -7 -21.5 -12t-24.5 -5q-31 0 -53 20.5t-22 50.5t21 50t51 20q34 0 56.5 -24t22.5 -75q0 -42 -16.5 -78.5t-47 -60t-72.5 -27.5z" />
    <glyph glyph-name="uni013C.ss01" horiz-adv-x="260" 
d="M67 0v720h126v-720h-126zM69 -332v58q34 4 51 25t17 58h38q-9 -7 -21.5 -12t-24.5 -5q-31 0 -53 20.5t-22 50.5t21 50t51 20q34 0 56.5 -24t22.5 -75q0 -42 -16.5 -78.5t-47 -60t-72.5 -27.5z" />
    <glyph glyph-name="uni0146.ss01" horiz-adv-x="612" 
d="M67 0v510h123v-120h3v-390h-126zM425 0v322q0 47 -24 71t-70 24q-40 0 -71.5 -18t-49 -50t-17.5 -74l-13 122q26 56 76 89.5t120 33.5q83 0 129.5 -47t46.5 -125v-348h-127zM256 -332v58q34 4 51 25t17 58h38q-9 -7 -21.5 -12t-24.5 -5q-31 0 -53 20.5t-22 50.5t21 50
t51 20q34 0 56.5 -24t22.5 -75q0 -42 -16.5 -78.5t-47 -60t-72.5 -27.5z" />
    <glyph glyph-name="odieresis.ss01" horiz-adv-x="597" 
d="M299 -10q-81 0 -142.5 34t-95.5 94.5t-34 138.5t34 137t95.5 92.5t142.5 33.5q82 0 143 -33.5t95 -92.5t34 -137t-34.5 -138.5t-95.5 -94.5t-142 -34zM299 91q40 0 72 20.5t50 58t18 88.5q0 75 -39.5 118t-100.5 43t-101 -43t-40 -118q0 -51 18.5 -88.5t50 -58
t72.5 -20.5zM183 590q-31 0 -53 22.5t-22 54.5q0 33 22 54.5t53 21.5q32 0 53.5 -21.5t21.5 -54.5q0 -32 -21.5 -54.5t-53.5 -22.5zM413 590q-31 0 -53 22.5t-22 54.5q0 33 22 54.5t53 21.5q32 0 53.5 -21.5t21.5 -54.5q0 -32 -21.5 -54.5t-53.5 -22.5z" />
    <glyph glyph-name="uni0157.ss01" horiz-adv-x="390" 
d="M67 0v510h123v-123h3v-387h-126zM193 266l-13 121q18 65 61 99t103 34q21 0 30 -4v-119q-5 2 -14 2.5t-22 0.5q-73 0 -109 -32t-36 -102zM67 -332v58q34 4 51 25t17 58h38q-9 -7 -21.5 -12t-24.5 -5q-31 0 -53 20.5t-22 50.5t21 50t51 20q34 0 56.5 -24t22.5 -75
q0 -42 -16.5 -78.5t-47 -60t-72.5 -27.5z" />
    <glyph glyph-name="uni0219.ss01" horiz-adv-x="494" 
d="M262 -10q-106 0 -169 44.5t-69 123.5h115q5 -39 37 -59t86 -20q49 0 73.5 15.5t24.5 44.5q0 21 -14 34.5t-53 22.5l-82 19q-84 18 -124.5 56.5t-40.5 96.5q0 71 54.5 111.5t150.5 40.5q95 0 152.5 -40.5t63.5 -111.5h-115q-5 31 -31.5 47t-72.5 16q-43 0 -65 -13.5
t-22 -39.5q0 -20 17 -33.5t57 -23.5l88 -20q75 -17 113.5 -59t38.5 -99q0 -73 -56 -113t-157 -40zM198 -332v58q34 4 51 25t17 58h38q-9 -7 -21.5 -12t-24.5 -5q-31 0 -53 20.5t-22 50.5t21 50t51 20q34 0 56.5 -24t22.5 -75q0 -42 -16.5 -78.5t-47 -60t-72.5 -27.5z" />
    <glyph glyph-name="uni021B.ss01" horiz-adv-x="406" 
d="M296 -10q-94 0 -138.5 44.5t-44.5 133.5v458l127 47v-508q0 -37 20 -55t63 -18q17 0 30.5 2.5t25.5 6.5v-98q-12 -6 -34 -9.5t-49 -3.5zM15 411v99h364v-99h-364zM202 -332v58q34 4 51 25t17 58h38q-9 -7 -21.5 -12t-24.5 -5q-31 0 -53 20.5t-22 50.5t21 50t51 20
q34 0 56.5 -24t22.5 -75q0 -42 -16.5 -78.5t-47 -60t-72.5 -27.5z" />
    <glyph glyph-name="udieresis.ss01" horiz-adv-x="604" 
d="M232 -10q-53 0 -91.5 22.5t-59 61.5t-20.5 88v348h126v-322q0 -47 23.5 -71t66.5 -24q39 0 68.5 18t47 50.5t17.5 73.5l13 -122q-25 -56 -74.5 -89.5t-116.5 -33.5zM414 0v120h-4v390h127v-510h-123zM187 590q-31 0 -53 22.5t-22 54.5q0 33 22 54.5t53 21.5
q32 0 53.5 -21.5t21.5 -54.5q0 -32 -21.5 -54.5t-53.5 -22.5zM417 590q-31 0 -53 22.5t-22 54.5q0 33 22 54.5t53 21.5q32 0 53.5 -21.5t21.5 -54.5q0 -32 -21.5 -54.5t-53.5 -22.5z" />
    <glyph glyph-name="wdieresis.ss01" horiz-adv-x="800" 
d="M172 0l-156 510h132l92 -383h-9l113 383h115l115 -383h-10l91 383h129l-156 -510h-118l-115 379h10l-115 -379h-118zM285 590q-31 0 -53 22.5t-22 54.5q0 33 22 54.5t53 21.5q32 0 53.5 -21.5t21.5 -54.5q0 -32 -21.5 -54.5t-53.5 -22.5zM515 590q-31 0 -53 22.5
t-22 54.5q0 33 22 54.5t53 21.5q32 0 53.5 -21.5t21.5 -54.5q0 -32 -21.5 -54.5t-53.5 -22.5z" />
    <glyph glyph-name="ydieresis.ss01" horiz-adv-x="536" 
d="M99 -205l132 296l23 38l144 381h134l-305 -715h-128zM212 5l-207 505h137l173 -458zM153 590q-31 0 -53 22.5t-22 54.5q0 33 22 54.5t53 21.5q32 0 53.5 -21.5t21.5 -54.5q0 -32 -21.5 -54.5t-53.5 -22.5zM383 590q-31 0 -53 22.5t-22 54.5q0 33 22 54.5t53 21.5
q32 0 53.5 -21.5t21.5 -54.5q0 -32 -21.5 -54.5t-53.5 -22.5z" />
    <glyph glyph-name="zdotaccent.ss01" horiz-adv-x="513" 
d="M47 0v89l293 370l30 -48h-314v99h409v-89l-288 -365l-29 43h323v-99h-424zM258 577q-34 0 -58.5 24t-24.5 59q0 38 24.5 60.5t58.5 22.5q33 0 57 -22.5t24 -60.5q0 -35 -24 -59t-57 -24z" />
    <glyph glyph-name="a.ss02" 
d="M259 -10q-70 0 -121.5 32.5t-79.5 91.5t-28 139q0 81 29 141t81.5 93t122.5 33q72 0 119 -34.5t58 -95.5l-9 -1v121h123v-510h-123v115l10 -2q-13 -56 -63 -89.5t-119 -33.5zM296 93q62 0 98 42.5t36 119.5t-36.5 119t-98.5 42t-98 -42.5t-36 -119.5t36 -119t99 -42z" />
    <glyph glyph-name="aacute.ss02" 
d="M259 -10q-70 0 -121.5 32.5t-79.5 91.5t-28 139q0 81 29 141t81.5 93t122.5 33q72 0 119 -34.5t58 -95.5l-9 -1v121h123v-510h-123v115l10 -2q-13 -56 -63 -89.5t-119 -33.5zM296 93q62 0 98 42.5t36 119.5t-36.5 119t-98.5 42t-98 -42.5t-36 -119.5t36 -119t99 -42z
M333 583h-113l104 157h173z" />
    <glyph glyph-name="abreve.ss02" 
d="M259 -10q-70 0 -121.5 32.5t-79.5 91.5t-28 139q0 81 29 141t81.5 93t122.5 33q72 0 119 -34.5t58 -95.5l-9 -1v121h123v-510h-123v115l10 -2q-13 -56 -63 -89.5t-119 -33.5zM296 93q62 0 98 42.5t36 119.5t-36.5 119t-98.5 42t-98 -42.5t-36 -119.5t36 -119t99 -42z
M310 576q-50 0 -88.5 20.5t-60.5 58t-22 85.5h88q0 -34 22 -53.5t61 -19.5t60.5 19.5t21.5 53.5h89q0 -48 -22.5 -85t-60.5 -58t-88 -21z" />
    <glyph glyph-name="uni01CE.ss02" 
d="M259 -10q-70 0 -121.5 32.5t-79.5 91.5t-28 139q0 81 29 141t81.5 93t122.5 33q72 0 119 -34.5t58 -95.5l-9 -1v121h123v-510h-123v115l10 -2q-13 -56 -63 -89.5t-119 -33.5zM296 93q62 0 98 42.5t36 119.5t-36.5 119t-98.5 42t-98 -42.5t-36 -119.5t36 -119t99 -42z
M244 583l-131 157h108l144 -130h-109l144 130h108l-131 -157h-133z" />
    <glyph glyph-name="acircumflex.ss02" 
d="M259 -10q-70 0 -121.5 32.5t-79.5 91.5t-28 139q0 81 29 141t81.5 93t122.5 33q72 0 119 -34.5t58 -95.5l-9 -1v121h123v-510h-123v115l10 -2q-13 -56 -63 -89.5t-119 -33.5zM296 93q62 0 98 42.5t36 119.5t-36.5 119t-98.5 42t-98 -42.5t-36 -119.5t36 -119t99 -42z
M113 583l131 157h133l131 -157h-108l-144 130h109l-144 -130h-108z" />
    <glyph glyph-name="adieresis.ss02" 
d="M259 -10q-70 0 -121.5 32.5t-79.5 91.5t-28 139q0 81 29 141t81.5 93t122.5 33q72 0 119 -34.5t58 -95.5l-9 -1v121h123v-510h-123v115l10 -2q-13 -56 -63 -89.5t-119 -33.5zM296 93q62 0 98 42.5t36 119.5t-36.5 119t-98.5 42t-98 -42.5t-36 -119.5t36 -119t99 -42z
M357 593v140h137v-140h-137zM127 593v140h137v-140h-137z" />
    <glyph glyph-name="agrave.ss02" 
d="M259 -10q-70 0 -121.5 32.5t-79.5 91.5t-28 139q0 81 29 141t81.5 93t122.5 33q72 0 119 -34.5t58 -95.5l-9 -1v121h123v-510h-123v115l10 -2q-13 -56 -63 -89.5t-119 -33.5zM296 93q62 0 98 42.5t36 119.5t-36.5 119t-98.5 42t-98 -42.5t-36 -119.5t36 -119t99 -42z
M287 583l-163 157h173l104 -157h-114z" />
    <glyph glyph-name="amacron.ss02" 
d="M259 -10q-70 0 -121.5 32.5t-79.5 91.5t-28 139q0 81 29 141t81.5 93t122.5 33q72 0 119 -34.5t58 -95.5l-9 -1v121h123v-510h-123v115l10 -2q-13 -56 -63 -89.5t-119 -33.5zM296 93q62 0 98 42.5t36 119.5t-36.5 119t-98.5 42t-98 -42.5t-36 -119.5t36 -119t99 -42z
M130 625v92h360v-92h-360z" />
    <glyph glyph-name="aogonek.ss02" 
d="M259 -10q-70 0 -121.5 32.5t-79.5 91.5t-28 139q0 81 29 141t81.5 93t122.5 33q72 0 119 -34.5t58 -95.5l-9 -1v121h123v-510h-123v115l10 -2q-13 -56 -63 -89.5t-119 -33.5zM296 93q62 0 98 42.5t36 119.5t-36.5 119t-98.5 42t-98 -42.5t-36 -119.5t36 -119t99 -42z
M484 -216q-51 0 -78.5 24t-27.5 62q0 44 35 80.5t92 66.5l49 -17q-47 -36 -68 -62.5t-21 -51.5q0 -16 9 -25t22 -9q22 0 38 14l29 -60q-14 -11 -33 -16.5t-46 -5.5z" />
    <glyph glyph-name="aring.ss02" 
d="M259 -10q-70 0 -121.5 32.5t-79.5 91.5t-28 139q0 81 29 141t81.5 93t122.5 33q72 0 119 -34.5t58 -95.5l-9 -1v121h123v-510h-123v115l10 -2q-13 -56 -63 -89.5t-119 -33.5zM296 93q62 0 98 42.5t36 119.5t-36.5 119t-98.5 42t-98 -42.5t-36 -119.5t36 -119t99 -42z
M310 561q-46 0 -77 31.5t-31 76.5q0 44 31 75.5t77 31.5t76.5 -31.5t30.5 -75.5q0 -45 -30.5 -76.5t-76.5 -31.5zM310 627q17 0 28.5 12.5t11.5 29.5t-11.5 29t-28.5 12q-18 0 -29.5 -12t-11.5 -29t11.5 -29.5t29.5 -12.5z" />
    <glyph glyph-name="atilde.ss02" 
d="M259 -10q-70 0 -121.5 32.5t-79.5 91.5t-28 139q0 81 29 141t81.5 93t122.5 33q72 0 119 -34.5t58 -95.5l-9 -1v121h123v-510h-123v115l10 -2q-13 -56 -63 -89.5t-119 -33.5zM296 93q62 0 98 42.5t36 119.5t-36.5 119t-98.5 42t-98 -42.5t-36 -119.5t36 -119t99 -42z
M386 592q-28 0 -48.5 8.5t-38 20t-34 20t-34.5 8.5q-21 0 -33.5 -14t-12.5 -37h-79q0 38 15.5 69t45 49.5t70.5 18.5q29 0 50 -8.5t37 -20t31.5 -20t33.5 -8.5q22 0 34.5 14t12.5 37h79q0 -38 -15.5 -69t-44.5 -49.5t-69 -18.5z" />
    <glyph glyph-name="y.ss03" horiz-adv-x="543" 
d="M124 -215q-16 0 -31 2.5t-29 6.5v104q8 -3 19 -4.5t25 -1.5q31 0 51 16t34 53l48 128l29 34l141 387h127l-246 -601q-17 -42 -40.5 -70t-55 -41t-72.5 -13zM218 5l-207 505h135l172 -451z" />
    <glyph glyph-name="yacute.ss03" horiz-adv-x="543" 
d="M124 -215q-16 0 -31 2.5t-29 6.5v104q8 -3 19 -4.5t25 -1.5q31 0 51 16t34 53l48 128l29 34l141 387h127l-246 -601q-17 -42 -40.5 -70t-55 -41t-72.5 -13zM218 5l-207 505h135l172 -451zM294 583h-113l104 157h173z" />
    <glyph glyph-name="ycircumflex.ss03" horiz-adv-x="543" 
d="M124 -215q-16 0 -31 2.5t-29 6.5v104q8 -3 19 -4.5t25 -1.5q31 0 51 16t34 53l48 128l29 34l141 387h127l-246 -601q-17 -42 -40.5 -70t-55 -41t-72.5 -13zM218 5l-207 505h135l172 -451zM73 583l131 157h133l131 -157h-108l-144 130h109l-144 -130h-108z" />
    <glyph glyph-name="ydieresis.ss03" horiz-adv-x="543" 
d="M124 -215q-16 0 -31 2.5t-29 6.5v104q8 -3 19 -4.5t25 -1.5q31 0 51 16t34 53l48 128l29 34l141 387h127l-246 -601q-17 -42 -40.5 -70t-55 -41t-72.5 -13zM218 5l-207 505h135l172 -451zM317 593v140h137v-140h-137zM87 593v140h137v-140h-137z" />
    <glyph glyph-name="ygrave.ss03" horiz-adv-x="543" 
d="M124 -215q-16 0 -31 2.5t-29 6.5v104q8 -3 19 -4.5t25 -1.5q31 0 51 16t34 53l48 128l29 34l141 387h127l-246 -601q-17 -42 -40.5 -70t-55 -41t-72.5 -13zM218 5l-207 505h135l172 -451zM247 583l-163 157h173l104 -157h-114z" />
    <glyph glyph-name="k.ss04" horiz-adv-x="558" 
d="M67 0v720h126v-720h-126zM137 235l250 275h150l-218 -233l-8 -1l-138 -142zM337 316l214 -316h-142l-177 270z" />
    <glyph glyph-name="uni0137.ss04" horiz-adv-x="558" 
d="M67 0v720h126v-720h-126zM137 235l250 275h150l-218 -233l-8 -1l-138 -142zM337 316l214 -316h-142l-177 270zM217 -332v58q34 4 51.5 25t17.5 58l45 -10h-114v127h137v-104q0 -64 -36 -106t-101 -48z" />
    <glyph glyph-name="adieresis.ss01.ss02" 
d="M259 -10q-70 0 -121.5 32.5t-79.5 91.5t-28 139q0 81 29 141t81.5 93t122.5 33q72 0 119 -34.5t58 -95.5l-9 -1v121h123v-510h-123v115l10 -2q-13 -56 -63 -89.5t-119 -33.5zM296 93q62 0 98 42.5t36 119.5t-36.5 119t-98.5 42t-98 -42.5t-36 -119.5t36 -119t99 -42z
M195 590q-31 0 -53 22.5t-22 54.5q0 33 22 54.5t53 21.5q32 0 53.5 -21.5t21.5 -54.5q0 -32 -21.5 -54.5t-53.5 -22.5zM425 590q-31 0 -53 22.5t-22 54.5q0 33 22 54.5t53 21.5q32 0 53.5 -21.5t21.5 -54.5q0 -32 -21.5 -54.5t-53.5 -22.5z" />
    <glyph glyph-name="ydieresis.ss01.ss03" horiz-adv-x="543" 
d="M124 -215q-16 0 -31 2.5t-29 6.5v104q8 -3 19 -4.5t25 -1.5q31 0 51 16t34 53l48 128l29 34l141 387h127l-246 -601q-17 -42 -40.5 -70t-55 -41t-72.5 -13zM218 5l-207 505h135l172 -451zM155 590q-31 0 -53 22.5t-22 54.5q0 33 22 54.5t53 21.5q32 0 53.5 -21.5
t21.5 -54.5q0 -32 -21.5 -54.5t-53.5 -22.5zM385 590q-31 0 -53 22.5t-22 54.5q0 33 22 54.5t53 21.5q32 0 53.5 -21.5t21.5 -54.5q0 -32 -21.5 -54.5t-53.5 -22.5z" />
    <glyph glyph-name="uni0137.ss01.ss04" horiz-adv-x="558" 
d="M67 0v720h126v-720h-126zM137 235l250 275h150l-218 -233l-8 -1l-138 -142zM337 316l214 -316h-142l-177 270zM225 -332v58q34 4 51 25t17 58h38q-9 -7 -21.5 -12t-24.5 -5q-31 0 -53 20.5t-22 50.5t21 50t51 20q34 0 56.5 -24t22.5 -75q0 -42 -16.5 -78.5t-47 -60
t-72.5 -27.5z" />
    <glyph glyph-name="f_f_i.ss01" horiz-adv-x="948" 
d="M434 0v557q0 84 47 128.5t140 44.5q20 0 34.5 -2t26.5 -6v-105q-7 3 -17.5 4.5t-24.5 1.5q-41 0 -60 -19.5t-19 -56.5v-547h-127zM107 0v557q0 84 46.5 128.5t139.5 44.5q21 0 35 -2t27 -6v-105q-7 3 -18 4.5t-25 1.5q-40 0 -59.5 -19.5t-19.5 -56.5v-547h-126zM15 405
v105h785v-105h-785zM761 0v510h127v-510h-127zM826 577q-31 0 -53.5 22.5t-22.5 53.5q0 35 22.5 56t53.5 21t52.5 -21t21.5 -56q0 -31 -21.5 -53.5t-52.5 -22.5z" />
    <glyph glyph-name="f_i.ss01" horiz-adv-x="634" 
d="M107 0v557q0 84 46.5 128.5t139.5 44.5q21 0 35 -2t27 -6v-105q-7 3 -18 4.5t-25 1.5q-40 0 -59.5 -19.5t-19.5 -56.5v-547h-126zM434 0v510h127v-510h-127zM499 577q-32 0 -54.5 22.5t-22.5 53.5q0 35 22.5 56t54.5 21q30 0 52 -21t22 -56q0 -31 -22 -53.5t-52 -22.5z
M15 405v105h458v-105h-458z" />
    <glyph glyph-name="ordfeminine" unicode="&#xaa;" horiz-adv-x="375" 
d="M238 418q-4 12 -5.5 27.5t-1.5 35.5h-2v139q0 18 -11.5 28.5t-33.5 10.5q-20 0 -32 -7t-16 -18h-88q6 42 41.5 69t96.5 27q65 0 99 -29.5t34 -84.5v-135q0 -18 2.5 -33t5.5 -30h-89zM134 412q-43 0 -68.5 23t-25.5 62q0 42 28.5 69.5t83.5 35.5l88 13v-58l-73 -13
q-18 -4 -27.5 -11t-9.5 -22q0 -13 10 -20.5t26 -7.5q25 0 44 15.5t19 35.5l8 -53q-13 -35 -40.5 -52t-62.5 -17z" />
    <glyph glyph-name="ordmasculine" unicode="&#xba;" horiz-adv-x="411" 
d="M206 412q-51 0 -89 20.5t-59 56.5t-21 83q0 71 46.5 114.5t122.5 43.5q77 0 123 -43.5t46 -114.5t-47 -115.5t-122 -44.5zM206 489q33 0 54 23.5t21 60.5t-21 58.5t-54 21.5t-54.5 -22t-21.5 -58q0 -38 21.5 -61t54.5 -23z" />
    <glyph glyph-name="zero" unicode="0" horiz-adv-x="677" 
d="M338 -10q-88 0 -156 47.5t-106.5 132t-38.5 193.5t38 191.5t106.5 129t156.5 46.5q89 0 157 -46.5t106.5 -129t38.5 -191.5q0 -110 -38.5 -194t-106.5 -131.5t-157 -47.5zM338 99q55 0 91 35t54.5 95t18.5 135t-18 133t-54.5 91t-91.5 33q-54 0 -90.5 -33.5t-54.5 -91.5
t-18 -132q0 -76 18 -136t55 -94.5t90 -34.5z" />
    <glyph glyph-name="one" unicode="1" horiz-adv-x="387" 
d="M198 0v605l19 -12q-14 -30 -44 -56.5t-70 -45.5t-86 -27v125q40 6 81 26t74 47.5t47 57.5h106v-720h-127z" />
    <glyph glyph-name="two" unicode="2" horiz-adv-x="557" 
d="M30 0v103q102 84 170.5 145.5t109.5 108.5t58.5 86.5t17.5 77.5q0 50 -28 78t-78 28q-52 0 -85 -30.5t-40 -85.5h-132q11 101 81 160t182 59q111 0 174.5 -57.5t63.5 -159.5q0 -51 -17.5 -98.5t-58 -99t-108 -113t-168.5 -139.5l-31 40h396v-103h-507z" />
    <glyph glyph-name="three" unicode="3" horiz-adv-x="579" 
d="M297 -10q-74 0 -132.5 27t-95 80t-42.5 128h130q9 -66 44 -99t93 -33q52 0 84.5 29t32.5 83t-31.5 87t-98.5 33h-73v101h70q59 0 87.5 28.5t28.5 73.5t-25.5 72t-77.5 27q-48 0 -82.5 -28.5t-41.5 -84.5h-132q8 67 41.5 115t89.5 74.5t129 26.5q72 0 125 -23.5t82.5 -66
t29.5 -101.5q0 -51 -23 -89t-59.5 -59.5t-76.5 -21.5l-3 21q56 0 96 -25.5t61.5 -68.5t21.5 -97q0 -63 -32.5 -110.5t-89.5 -73t-130 -25.5z" />
    <glyph glyph-name="four" unicode="4" horiz-adv-x="615" 
d="M380 0v190l6 20v411l50 -22l-296 -397l-57 47h508v-103h-564v99l357 475h129v-720h-133z" />
    <glyph glyph-name="five" unicode="5" horiz-adv-x="581" 
d="M293 -10q-109 0 -178 57t-85 157h132q9 -53 44.5 -82t83.5 -29q53 0 86.5 35t33.5 108q0 71 -32.5 107.5t-86.5 36.5q-35 0 -63 -15t-42 -42h-118l35 397h403v-103h-350l64 18l-20 -247l-40 7q24 37 62 59t96 22q69 0 120.5 -30t81 -83.5t29.5 -128.5q0 -77 -32 -131.5
t-89 -83.5t-135 -29z" />
    <glyph glyph-name="six" unicode="6" horiz-adv-x="615" 
d="M323 -10q-137 0 -211.5 92.5t-74.5 263.5q0 120 35.5 206t102 132t156.5 46q101 0 165 -54.5t79 -151.5h-132q-6 50 -36.5 76.5t-76.5 26.5q-78 0 -117.5 -67t-39.5 -206v-65l-28 9q10 48 39 83t73 54t97 19q69 0 121 -29t81.5 -80.5t29.5 -121.5t-33 -122.5t-92 -81.5
t-138 -29zM316 93q57 0 94 34t37 96q0 63 -37 96.5t-96 33.5q-58 0 -97.5 -32.5t-39.5 -93.5q0 -41 19 -71.5t50.5 -46.5t69.5 -16z" />
    <glyph glyph-name="seven" unicode="7" horiz-adv-x="561" 
d="M154 0q15 171 83 332t183 308l2 -23h-398v103h516v-93q-72 -104 -123.5 -205.5t-82 -205.5t-38.5 -216h-142z" />
    <glyph glyph-name="eight" unicode="8" horiz-adv-x="598" 
d="M300 -10q-80 0 -140 27t-93.5 74.5t-33.5 109.5q0 54 24 97t65.5 67.5t95.5 24.5l11 -21q-54 0 -94 20.5t-61 58t-21 86.5q0 59 30.5 103t86 68.5t129.5 24.5q75 0 130 -24.5t85.5 -68.5t30.5 -102q0 -50 -21 -87.5t-61 -58t-95 -20.5l12 21q54 0 95.5 -24.5t65.5 -67.5
t24 -97q0 -62 -33 -110t-92.5 -74.5t-139.5 -26.5zM299 93q60 0 93.5 31.5t33.5 86.5t-34.5 86t-92.5 31q-59 0 -93 -31t-34 -86q0 -56 34 -87t93 -31zM299 423q49 0 79 27.5t30 74.5q0 48 -30.5 75t-79.5 27q-48 0 -78 -27.5t-30 -74.5t30.5 -74.5t78.5 -27.5z" />
    <glyph glyph-name="nine" unicode="9" horiz-adv-x="619" 
d="M291 -10q-73 0 -126 27t-84 77t-40 118h132q6 -61 37 -90t85 -29q38 0 65 15.5t44 48t24.5 84.5t7.5 125v65l35 -2q-10 -47 -39 -82t-73 -54.5t-98 -19.5q-68 0 -119.5 29t-81 80t-29.5 117q0 70 33 121.5t92 80.5t137 29q139 0 212.5 -92.5t73.5 -269.5
q0 -119 -33.5 -203.5t-98 -129.5t-156.5 -45zM302 374q60 0 94 33t34 88q0 38 -15.5 68t-44.5 47t-69 17q-59 0 -93 -35.5t-34 -91.5q0 -55 33.5 -90.5t94.5 -35.5z" />
    <glyph glyph-name="two.ss10" horiz-adv-x="557" 
d="M30 0v77q0 63 25.5 109.5t66 80.5t86 62.5t86 56.5t66 60.5t25.5 76.5q0 51 -29 77.5t-75 26.5q-50 0 -84.5 -30.5t-41.5 -85.5h-132q11 101 81 160t181 59q109 0 174 -56.5t65 -157.5q0 -55 -21.5 -96t-55.5 -73.5t-75 -59t-81 -50.5t-72 -49.5t-49 -56t-11 -68.5
l-18 40h396v-103h-507z" />
    <glyph glyph-name="zero.tf" horiz-adv-x="600" 
d="M300 -10q-82 0 -145.5 48t-100 132t-36.5 193t36.5 191.5t100.5 129t145 46.5q82 0 145.5 -46.5t100 -129t36.5 -191.5q0 -110 -36.5 -194t-100.5 -131.5t-145 -47.5zM300 99q47 0 77.5 35t46 95t15.5 135q0 74 -15 132t-45.5 91.5t-78.5 33.5t-78.5 -33.5t-46 -91.5
t-15.5 -132q0 -76 15.5 -136t46.5 -94.5t78 -34.5z" />
    <glyph glyph-name="one.tf" horiz-adv-x="600" 
d="M283 30v575l16 -12q-14 -31 -40 -57.5t-60.5 -45t-77.5 -26.5v125q36 7 72.5 26.5t66 47.5t42.5 57h113v-690h-132zM115 0v103h440v-103h-440z" />
    <glyph glyph-name="two.tf" horiz-adv-x="600" 
d="M65 0v103q96 84 158 146.5t97.5 111t49.5 88.5t14 79q0 48 -21 73.5t-63 25.5q-46 0 -72 -30.5t-33 -85.5h-136q10 101 75.5 160t170.5 59q104 0 163 -57.5t59 -159.5q0 -51 -16.5 -98.5t-54 -99t-101 -113t-158.5 -139.5l-29 40h372v-103h-475z" />
    <glyph glyph-name="three.tf" horiz-adv-x="600" 
d="M308 -10q-70 0 -125 27t-88.5 80t-39.5 128h135q7 -64 35 -98t77 -34q42 0 70 29t28 83t-27 87t-88 33h-61v101h58q53 0 78 28.5t25 73.5t-19.5 72t-65.5 27q-38 0 -67 -28.5t-35 -84.5h-135q8 67 39 115t82.5 74.5t120.5 26.5q68 0 118 -23.5t77.5 -66t27.5 -101.5
q0 -51 -21.5 -89t-53.5 -59.5t-65 -21.5l-1 21q49 0 84 -25.5t54 -68.5t19 -97q0 -63 -31 -110.5t-84.5 -73t-120.5 -25.5z" />
    <glyph glyph-name="four.tf" horiz-adv-x="600" 
d="M359 0v190l7 20v411l53 -22l-268 -397l-62 47h474v-103h-525v99l324 475h134v-720h-137z" />
    <glyph glyph-name="five.tf" horiz-adv-x="600" 
d="M302 -10q-100 0 -165 57t-80 157h135q7 -53 37.5 -82t69.5 -29q44 0 71.5 35t27.5 108q0 71 -26.5 107.5t-70.5 36.5q-26 0 -49 -15t-37 -42h-123l33 397h376v-103h-327l71 18l-17 -247l-44 7q24 37 58.5 59t87.5 22q62 0 109.5 -30t74.5 -83.5t27 -128.5
q0 -77 -30 -131.5t-83.5 -83.5t-125.5 -29z" />
    <glyph glyph-name="six.tf" horiz-adv-x="600" 
d="M314 -10q-129 0 -199 92.5t-70 263.5q0 119 34 205t96 132.5t147 46.5q95 0 155.5 -54.5t74.5 -151.5h-135q-5 50 -31.5 76.5t-64.5 26.5q-68 0 -101.5 -67.5t-33.5 -205.5v-65l-28 9q11 48 36.5 83t64.5 54t88 19q64 0 112 -29t75 -80.5t27 -121.5t-30.5 -122.5
t-86 -81.5t-130.5 -29zM305 93q48 0 80 34t32 96q0 63 -33 96.5t-81 33.5t-82.5 -32.5t-34.5 -93.5q0 -41 16.5 -71.5t43.5 -46.5t59 -16z" />
    <glyph glyph-name="seven.tf" horiz-adv-x="600" 
d="M174 0q14 171 76.5 331t163.5 309l1 -23h-356v103h482v-93q-94 -155 -151.5 -307.5t-69.5 -319.5h-146z" />
    <glyph glyph-name="eight.tf" horiz-adv-x="600" 
d="M301 -10q-74 0 -130.5 27t-88 74.5t-31.5 109.5q0 54 21.5 97t60 67.5t89.5 24.5l14 -21q-53 0 -90.5 20.5t-57 58t-19.5 86.5q0 59 29 103t80.5 68.5t122.5 24.5q70 0 121.5 -24.5t80 -68.5t28.5 -102q0 -50 -19.5 -87.5t-56.5 -58t-91 -20.5l15 21q50 0 88.5 -24.5
t60.5 -67.5t22 -97q0 -62 -31.5 -110t-87.5 -74.5t-130 -26.5zM300 93q49 0 77.5 32t28.5 86q0 55 -29 86t-77 31t-77 -31t-29 -86q0 -56 28.5 -87t77.5 -31zM300 423q39 0 64 27.5t25 74.5t-24.5 74.5t-64.5 27.5t-64 -28t-24 -74t25 -74t63 -28z" />
    <glyph glyph-name="nine.tf" horiz-adv-x="600" 
d="M282 -10q-70 0 -119.5 27t-78 77t-36.5 118h135q6 -62 32 -90.5t72 -28.5q33 0 56 15.5t37 48.5t20 85t6 124v65l37 -2q-11 -48 -37.5 -83t-65.5 -54t-88 -19q-63 0 -111 29t-75 80t-27 117q0 70 31 121.5t86 80.5t129 29q130 0 200 -92.5t70 -269.5q0 -119 -32 -203.5
t-93 -129.5t-148 -45zM296 374q52 0 79 33t27 88q0 57 -27 94.5t-79 37.5q-51 0 -79.5 -35.5t-28.5 -91.5q0 -55 28.5 -90.5t79.5 -35.5z" />
    <glyph glyph-name="two.tf.ss10" horiz-adv-x="600" 
d="M66 0v77q0 63 23 109.5t59 81t77 63t77 57t59 62.5t23 79q0 46 -22.5 72t-62.5 26q-42 0 -70 -28.5t-34 -87.5h-136q11 100 75 159.5t168 59.5q103 0 164 -55.5t61 -152.5q0 -55 -19 -97.5t-50.5 -75.5t-68 -60t-72.5 -51.5t-65 -50t-44 -56t-9 -68.5l-17 40h358v-103
h-474z" />
    <glyph glyph-name="space" unicode=" " horiz-adv-x="193" 
 />
    <glyph glyph-name="uni00A0" unicode="&#xa0;" horiz-adv-x="193" 
 />
    <glyph glyph-name="period" unicode="." horiz-adv-x="275" 
d="M65 0v144h145v-144h-145z" />
    <glyph glyph-name="comma" unicode="," horiz-adv-x="275" 
d="M67 -160v62q41 13 54.5 39t13.5 71l51 -12h-120v144h143v-105q0 -74 -32.5 -126t-109.5 -73z" />
    <glyph glyph-name="colon" unicode=":" horiz-adv-x="275" 
d="M65 0v144h145v-144h-145zM65 343v144h145v-144h-145z" />
    <glyph glyph-name="semicolon" unicode=";" horiz-adv-x="275" 
d="M67 -160v62q41 13 54.5 39t13.5 71l51 -12h-120v144h143v-105q0 -74 -32.5 -126t-109.5 -73zM65 343v144h145v-144h-145z" />
    <glyph glyph-name="ellipsis" unicode="&#x2026;" horiz-adv-x="728" 
d="M65 0v144h145v-144h-145zM292 0v144h145v-144h-145zM518 0v144h145v-144h-145z" />
    <glyph glyph-name="exclam" unicode="!" horiz-adv-x="295" 
d="M96 253l-18 487h139l-19 -487h-102zM76 0v144h144v-144h-144z" />
    <glyph glyph-name="exclamdown" unicode="&#xa1;" horiz-adv-x="295" 
d="M78 -205l18 462h102l19 -462h-139zM220 510v-144h-144v144h144z" />
    <glyph glyph-name="question" unicode="?" horiz-adv-x="580" 
d="M238 253q0 50 13.5 84.5t34.5 58t44.5 41.5t44.5 34.5t34 36.5t13 49q0 43 -30.5 66.5t-84.5 23.5q-61 0 -100.5 -30t-48.5 -86h-125q9 67 45.5 116t95.5 76t135 27q74 0 128.5 -24t85 -67t30.5 -102q0 -43 -14 -73t-35.5 -52t-46.5 -40t-46.5 -37t-35.5 -43t-14 -59
h-123zM228 0v144h144v-144h-144z" />
    <glyph glyph-name="questiondown" unicode="&#xbf;" horiz-adv-x="580" 
d="M271 -215q-71 0 -126 22.5t-86.5 64t-31.5 96.5q0 43 14 73t35.5 51t46.5 38t46.5 34.5t35.5 39.5t14 53h123q0 -47 -13 -78.5t-34.5 -53.5t-44.5 -38.5t-44.5 -32.5t-34.5 -35.5t-13 -49.5q0 -37 32.5 -59t87.5 -22q56 0 96 24t48 72h125q-8 -62 -45.5 -106.5
t-96.5 -68.5t-134 -24zM353 510v-144h-145v144h145z" />
    <glyph glyph-name="periodcentered" unicode="&#xb7;" horiz-adv-x="144" 
d="M0 305v144h145v-144h-145z" />
    <glyph glyph-name="bullet" unicode="&#x2022;" horiz-adv-x="336" 
d="M65 263v206h206v-206h-206z" />
    <glyph glyph-name="asterisk" unicode="*" horiz-adv-x="430" 
d="M161 417l25 112l-88 -78l-55 93l114 35l-114 34l55 93l88 -78l-25 112h109l-26 -112l89 78l54 -93l-113 -34l113 -35l-54 -93l-89 78l26 -112h-109z" />
    <glyph glyph-name="numbersign" unicode="#" horiz-adv-x="727" 
d="M134 0l100 720h110l-100 -720h-110zM383 0l100 720h110l-100 -720h-110zM60 534h631v-104h-631v104zM35 300h631v-104h-631v104z" />
    <glyph glyph-name="slash" unicode="/" horiz-adv-x="444" 
d="M37 -73l261 836h110l-261 -836h-110z" />
    <glyph glyph-name="backslash" unicode="\" horiz-adv-x="444" 
d="M37 763h110l261 -836h-110z" />
    <glyph glyph-name="colon.case" horiz-adv-x="275" 
d="M65 130v144h145v-144h-145zM65 474v144h145v-144h-145z" />
    <glyph glyph-name="semicolon.case" horiz-adv-x="275" 
d="M67 -30v62q41 13 54.5 39t13.5 71l51 -12h-120v144h143v-105q0 -74 -32.5 -126t-109.5 -73zM65 474v144h145v-144h-145z" />
    <glyph glyph-name="exclam.case" horiz-adv-x="295" 
d="M96 253l-19 467h140l-19 -467h-102zM75 0v144h145v-144h-145z" />
    <glyph glyph-name="exclamdown.case" horiz-adv-x="295" 
d="M78 0l18 467h102l19 -467h-139zM220 720v-144h-144v144h144z" />
    <glyph glyph-name="question.case" horiz-adv-x="580" 
d="M238 253q0 47 13.5 80t34.5 55.5t44.5 39.5t44.5 33.5t34 36.5t13 49q0 35 -29.5 57.5t-85.5 22.5q-61 0 -100.5 -30t-48.5 -86h-125q9 67 45.5 116t95.5 76t135 27q75 0 129.5 -23.5t84.5 -64.5t30 -95q0 -43 -14 -73t-35.5 -51.5t-46.5 -39t-46.5 -35.5t-35.5 -40.5
t-14 -54.5h-123zM228 0v144h144v-144h-144z" />
    <glyph glyph-name="questiondown.case" horiz-adv-x="580" 
d="M271 -10q-71 0 -126 22.5t-86.5 64.5t-31.5 97q0 45 14 75t35.5 52t46.5 39t46.5 34t35.5 39.5t14 53.5h123q0 -47 -13 -78.5t-34.5 -53.5t-44.5 -38.5t-44.5 -32.5t-34.5 -35.5t-13 -49.5q0 -41 32.5 -63.5t87.5 -22.5q56 0 96 24t48 72h125q-8 -62 -45.5 -106.5
t-96.5 -68.5t-134 -24zM353 720v-144h-145v144h145z" />
    <glyph glyph-name="bullet.case" horiz-adv-x="715" 
d="M65 86v585h585v-585h-585z" />
    <glyph glyph-name="periodcentered.loclCAT" horiz-adv-x="162" 
d="M81 295q-34 0 -57.5 22.5t-23.5 58.5q0 35 23.5 58t57.5 23q32 0 56 -22.5t24 -58.5t-24 -58.5t-56 -22.5z" />
    <glyph glyph-name="period.ss01" horiz-adv-x="275" 
d="M138 -10q-34 0 -57.5 22.5t-23.5 58.5q0 35 23.5 58t57.5 23q32 0 56 -22.5t24 -58.5t-24 -58.5t-56 -22.5z" />
    <glyph glyph-name="comma.ss01" horiz-adv-x="275" 
d="M72 -160v62q37 13 55.5 39t18.5 71h40q-9 -8 -22.5 -13t-26.5 -5q-34 0 -57 22t-23 57q0 36 23.5 57.5t53.5 21.5q35 0 59.5 -26.5t24.5 -86.5q0 -74 -38.5 -126.5t-107.5 -72.5z" />
    <glyph glyph-name="colon.ss01" horiz-adv-x="275" 
d="M138 -10q-34 0 -57.5 22.5t-23.5 58.5q0 35 23.5 58t57.5 23q32 0 56 -22.5t24 -58.5t-24 -58.5t-56 -22.5zM138 333q-34 0 -57.5 22.5t-23.5 58.5q0 35 23.5 58t57.5 23q32 0 56 -22.5t24 -58.5t-24 -58.5t-56 -22.5z" />
    <glyph glyph-name="semicolon.ss01" horiz-adv-x="277" 
d="M72 -160v62q37 13 55.5 39t18.5 71h40q-9 -8 -22.5 -13t-26.5 -5q-34 0 -57 22t-23 57q0 36 23.5 57.5t53.5 21.5q35 0 59.5 -26.5t24.5 -86.5q0 -74 -38.5 -126.5t-107.5 -72.5zM140 333q-34 0 -57.5 22.5t-23.5 58.5q0 35 23.5 58t57.5 23q32 0 56 -22.5t24 -58.5
t-24 -58.5t-56 -22.5z" />
    <glyph glyph-name="ellipsis.ss01" horiz-adv-x="728" 
d="M138 -10q-34 0 -57.5 22.5t-23.5 58.5q0 35 23.5 58t57.5 23q32 0 56 -22.5t24 -58.5t-24 -58.5t-56 -22.5zM365 -10q-34 0 -57.5 22.5t-23.5 58.5q0 35 23.5 58t57.5 23q32 0 56 -22.5t24 -58.5t-24 -58.5t-56 -22.5zM591 -10q-34 0 -57.5 22.5t-23.5 58.5q0 35 23.5 58
t57.5 23q32 0 56 -22.5t24 -58.5t-24 -58.5t-56 -22.5z" />
    <glyph glyph-name="exclam.ss01" horiz-adv-x="295" 
d="M96 253l-19 487h140l-19 -487h-102zM148 -10q-34 0 -57.5 22.5t-23.5 58.5q0 35 23.5 58t57.5 23q32 0 56 -22.5t24 -58.5t-24 -58.5t-56 -22.5z" />
    <glyph glyph-name="exclamdown.ss01" horiz-adv-x="312" 
d="M86 -205l18 462h102l19 -462h-139zM155 520q35 0 58.5 -22.5t23.5 -58.5q0 -35 -23.5 -58t-58.5 -23q-31 0 -55.5 22.5t-24.5 58.5t24.5 58.5t55.5 22.5z" />
    <glyph glyph-name="question.ss01" horiz-adv-x="580" 
d="M238 253q0 50 13.5 84.5t34.5 58t44.5 41.5t44.5 34.5t34 36.5t13 49q0 43 -30.5 66.5t-84.5 23.5q-61 0 -100.5 -30t-48.5 -86h-125q9 67 45.5 116t95.5 76t135 27q74 0 128.5 -24t85 -67t30.5 -102q0 -43 -14 -73t-35.5 -52t-46.5 -40t-46.5 -37t-35.5 -43t-14 -59
h-123zM300 -10q-34 0 -57.5 22.5t-23.5 58.5q0 35 23.5 58t57.5 23q32 0 56.5 -23t24.5 -58q0 -36 -24.5 -58.5t-56.5 -22.5z" />
    <glyph glyph-name="questiondown.ss01" horiz-adv-x="580" 
d="M271 -215q-71 0 -126 22.5t-86.5 64t-31.5 96.5q0 43 14 73t35.5 51t46.5 38t46.5 34.5t35.5 39.5t14 53h123q0 -47 -13 -78.5t-34.5 -53.5t-44.5 -38.5t-44.5 -32.5t-34.5 -35.5t-13 -49.5q0 -37 32.5 -59t87.5 -22q56 0 96 24t48 72h125q-8 -62 -45.5 -106.5
t-96.5 -68.5t-134 -24zM280 520q34 0 57.5 -22.5t23.5 -58.5q0 -35 -23.5 -58t-57.5 -23q-31 0 -55.5 23t-24.5 58q0 36 24.5 58.5t55.5 22.5z" />
    <glyph glyph-name="periodcentered.ss01" horiz-adv-x="162" 
d="M81 295q-34 0 -57.5 22.5t-23.5 58.5q0 35 23.5 58t57.5 23q32 0 56 -22.5t24 -58.5t-24 -58.5t-56 -22.5z" />
    <glyph glyph-name="bullet.ss01" horiz-adv-x="361" 
d="M181 249q-48 0 -82 31.5t-34 83.5q0 50 34 82.5t82 32.5q45 0 80 -32.5t35 -82.5q0 -52 -35 -83.5t-80 -31.5z" />
    <glyph glyph-name="periodcentered.loclCAT.case" horiz-adv-x="144" 
d="M0 356v144h145v-144h-145z" />
    <glyph glyph-name="bullet.case.ss01" horiz-adv-x="785" 
d="M395 43q-139 0 -234.5 90.5t-95.5 239.5q0 141 95.5 233t234.5 92q127 0 226 -92t99 -233q0 -149 -99 -239.5t-226 -90.5z" />
    <glyph glyph-name="periodcentered.loclCAT.case.ss01" horiz-adv-x="162" 
d="M81 346q-34 0 -57.5 22.5t-23.5 58.5q0 35 23.5 58t57.5 23q32 0 56 -22.5t24 -58.5t-24 -58.5t-56 -22.5z" />
    <glyph glyph-name="hyphen" unicode="-" horiz-adv-x="493" 
d="M67 219v106h359v-106h-359z" />
    <glyph glyph-name="endash" unicode="&#x2013;" horiz-adv-x="599" 
d="M67 224v96h466v-96h-466z" />
    <glyph glyph-name="emdash" unicode="&#x2014;" horiz-adv-x="899" 
d="M67 224v96h766v-96h-766z" />
    <glyph glyph-name="underscore" unicode="_" horiz-adv-x="466" 
d="M0 -153v96h466v-96h-466z" />
    <glyph glyph-name="hyphen.case" horiz-adv-x="493" 
d="M67 307v106h359v-106h-359z" />
    <glyph glyph-name="endash.case" horiz-adv-x="599" 
d="M67 312v96h466v-96h-466z" />
    <glyph glyph-name="emdash.case" horiz-adv-x="899" 
d="M67 312v96h766v-96h-766z" />
    <glyph glyph-name="parenleft" unicode="(" horiz-adv-x="439" 
d="M272 -110q-102 93 -150.5 204t-48.5 226q0 113 49 224.5t150 205.5h124q-101 -94 -151.5 -201.5t-50.5 -228.5q0 -122 52 -229.5t150 -200.5h-124z" />
    <glyph glyph-name="parenright" unicode=")" horiz-adv-x="439" 
d="M167 754q102 -93 150.5 -204t48.5 -226q0 -113 -49 -224.5t-150 -205.5h-124q101 94 151.5 201.5t50.5 228.5q0 122 -52 229.5t-150 200.5h124z" />
    <glyph glyph-name="braceleft" unicode="{" horiz-adv-x="439" 
d="M292 -108q-70 0 -111 24t-54.5 65t-2.5 92l21 99q11 51 -7.5 75t-65.5 24h-39v100h39q47 0 65.5 24.5t7.5 74.5l-21 99q-11 52 2.5 92.5t54.5 64.5t111 24h94v-100h-87q-36 0 -52 -21.5t-7 -59.5l23 -96q15 -59 -8 -98t-71 -54q48 -15 71 -54t8 -98l-23 -96
q-9 -38 7 -59.5t52 -21.5h87v-100h-94z" />
    <glyph glyph-name="braceright" unicode="}" horiz-adv-x="439" 
d="M147 750q71 0 111.5 -24t54.5 -64.5t2 -92.5l-21 -99q-11 -50 7.5 -74.5t66.5 -24.5h38v-100h-38q-48 0 -66.5 -24t-7.5 -75l21 -99q12 -51 -2 -92t-54.5 -65t-111.5 -24h-94v100h88q35 0 51 21.5t7 59.5l-23 96q-15 59 8.5 98t70.5 54q-47 15 -70.5 54t-8.5 98l23 96
q9 38 -7 59.5t-51 21.5h-88v100h94z" />
    <glyph glyph-name="bracketleft" unicode="[" horiz-adv-x="439" 
d="M83 -108v858h303v-100h-183v-658h183v-100h-303z" />
    <glyph glyph-name="bracketright" unicode="]" horiz-adv-x="439" 
d="M356 750v-858h-303v100h184v658h-184v100h303z" />
    <glyph glyph-name="parenleft.case" horiz-adv-x="439" 
d="M272 -40q-68 56 -112 122.5t-65.5 137.5t-21.5 139q0 69 21.5 140t66 138t111.5 123h124q-101 -84 -151.5 -188t-50.5 -213q0 -110 52 -212.5t150 -186.5h-124z" />
    <glyph glyph-name="parenright.case" horiz-adv-x="439" 
d="M167 760q68 -55 112 -122t65.5 -137.5t21.5 -139.5q0 -68 -21.5 -139.5t-65.5 -138.5t-112 -123h-124q101 84 151.5 188t50.5 213q0 110 -52 212.5t-150 186.5h124z" />
    <glyph glyph-name="braceleft.case" horiz-adv-x="439" 
d="M292 -40q-70 0 -113.5 24.5t-57.5 65.5t3 91l21 70q17 49 -4.5 74t-68.5 25h-39v100h39q47 0 68.5 25t4.5 74l-21 70q-17 50 -3 91.5t57.5 65.5t113.5 24h94v-100h-87q-36 0 -54 -22t-5 -59l23 -67q15 -38 7 -69t-31 -52t-55 -31q32 -10 55 -31t31 -51.5t-7 -69.5
l-23 -67q-13 -37 5 -59t54 -22h87v-100h-94z" />
    <glyph glyph-name="braceright.case" horiz-adv-x="439" 
d="M147 760q71 0 114 -24t57 -65.5t-3 -91.5l-21 -70q-16 -49 5 -74t69 -25h38v-100h-38q-48 0 -69 -25t-5 -74l21 -70q17 -50 3 -91t-57 -65.5t-114 -24.5h-94v100h88q35 0 53 22t5 59l-23 67q-14 39 -6.5 69.5t31 51.5t54.5 31q-31 10 -54.5 31t-31 52t6.5 69l23 67
q13 37 -5 59t-53 22h-88v100h94z" />
    <glyph glyph-name="bracketleft.case" horiz-adv-x="439" 
d="M83 -40v800h303v-100h-183v-600h183v-100h-303z" />
    <glyph glyph-name="bracketright.case" horiz-adv-x="439" 
d="M356 760v-800h-303v100h184v600h-184v100h303z" />
    <glyph glyph-name="quotesinglbase" unicode="&#x201a;" horiz-adv-x="271" 
d="M64 -192v62q41 13 54.5 39t13.5 71l51 -12h-120v144h143v-105q0 -74 -32.5 -126t-109.5 -73z" />
    <glyph glyph-name="quotedblbase" unicode="&#x201e;" horiz-adv-x="464" 
d="M256 -193v62q41 13 54.5 39t13.5 71l51 -12h-120v144h143v-105q0 -74 -32.5 -126t-109.5 -73zM64 -193v62q41 13 54.5 39t13.5 71l51 -12h-120v144h143v-105q0 -74 -32.5 -126t-109.5 -73z" />
    <glyph glyph-name="quotedblleft" unicode="&#x201c;" horiz-adv-x="471" 
d="M261 454v100q0 72 36 123t112 63v-62q-44 -6 -59.5 -30.5t-15.5 -69.5l-49 10h122v-134h-146zM65 454v100q0 72 36 123t112 63v-62q-44 -6 -59.5 -30.5t-15.5 -69.5l-49 10h122v-134h-146z" />
    <glyph glyph-name="quotedblright" unicode="&#x201d;" horiz-adv-x="471" 
d="M258 455v62q45 6 60 30.5t15 69.5l49 -10h-122v134h146v-100q0 -72 -35.5 -123t-112.5 -63zM62 455v62q45 6 60 30.5t15 69.5l49 -10h-122v134h146v-100q0 -72 -35.5 -123t-112.5 -63z" />
    <glyph glyph-name="quoteleft" unicode="&#x2018;" horiz-adv-x="275" 
d="M65 454v100q0 72 36 123t112 63v-62q-44 -6 -59.5 -30.5t-15.5 -69.5l-49 10h122v-134h-146z" />
    <glyph glyph-name="quoteright" unicode="&#x2019;" horiz-adv-x="275" 
d="M62 455v62q45 6 60 30.5t15 69.5l49 -10h-122v134h146v-100q0 -72 -35.5 -123t-112.5 -63z" />
    <glyph glyph-name="guillemotleft" unicode="&#xab;" horiz-adv-x="547" 
d="M180 68l-132 183l132 183h122l-128 -183l128 -183h-122zM367 68l-132 183l132 183h122l-128 -183l128 -183h-122z" />
    <glyph glyph-name="guillemotright" unicode="&#xbb;" horiz-adv-x="547" 
d="M367 434l132 -183l-132 -183h-122l128 183l-128 183h122zM180 434l132 -183l-132 -183h-122l128 183l-128 183h122z" />
    <glyph glyph-name="guilsinglleft" unicode="&#x2039;" horiz-adv-x="361" 
d="M180 68l-132 183l132 183h122l-128 -183l128 -183h-122z" />
    <glyph glyph-name="guilsinglright" unicode="&#x203a;" horiz-adv-x="361" 
d="M180 68h-122l128 183l-128 183h122l132 -183z" />
    <glyph glyph-name="quotedbl" unicode="&#x22;" horiz-adv-x="449" 
d="M107 445l-34 130q-9 33 -13.5 56t-4.5 44q0 17 8 34.5t24 29t41 11.5t41 -11.5t24 -29t8 -34.5q0 -21 -4.5 -44t-13.5 -56l-34 -130h-42zM300 445l-34 130q-9 33 -13.5 56t-4.5 44q0 17 8 34.5t24 29t41 11.5t41 -11.5t24 -29t8 -34.5q0 -21 -4.5 -44t-13.5 -56l-34 -130
h-42z" />
    <glyph glyph-name="quotesingle" unicode="'" horiz-adv-x="256" 
d="M107 445l-34 130q-9 33 -13.5 56t-4.5 44q0 17 8 34.5t24 29t41 11.5t41 -11.5t24 -29t8 -34.5q0 -21 -4.5 -44t-13.5 -56l-34 -130h-42z" />
    <glyph glyph-name="quotesinglbase.ss01" horiz-adv-x="291" 
d="M69 -179v62q45 6 64.5 30.5t19.5 69.5h40q-9 -8 -22.5 -13t-26.5 -5q-36 0 -59 21.5t-23 53.5q0 34 23 55t56 21q36 0 60 -26t24 -83q0 -72 -39.5 -123t-116.5 -63z" />
    <glyph glyph-name="quotedblbase.ss01" horiz-adv-x="486" 
d="M69 -179v62q45 6 64.5 30.5t19.5 69.5h40q-9 -8 -22.5 -13t-26.5 -5q-36 0 -59 21.5t-23 53.5q0 34 23 55t56 21q36 0 60 -26t24 -83q0 -72 -39.5 -123t-116.5 -63zM264 -179v62q45 6 64.5 30.5t19.5 69.5h40q-9 -8 -22.5 -13t-26.5 -5q-36 0 -59 21.5t-23 53.5
q0 34 23 55t56 21q36 0 60 -26t24 -83q0 -72 -39.5 -123t-116.5 -63z" />
    <glyph glyph-name="quotedblleft.ss01" horiz-adv-x="486" 
d="M150 442q-36 0 -60.5 26t-24.5 83q0 71 40.5 123t115.5 66v-62q-44 -8 -63.5 -33t-19.5 -70h-41q10 7 23.5 12.5t25.5 5.5q37 0 59.5 -21.5t22.5 -54.5t-22.5 -54t-55.5 -21zM346 442q-36 0 -60.5 26t-24.5 83q0 71 40.5 123t115.5 66v-62q-44 -8 -63.5 -33t-19.5 -70
h-41q10 7 23.5 12.5t25.5 5.5q37 0 59.5 -21.5t22.5 -54.5t-22.5 -54t-55.5 -21z" />
    <glyph glyph-name="quotedblright.ss01" horiz-adv-x="486" 
d="M69 455v62q45 6 64.5 30.5t19.5 69.5h40q-9 -8 -22.5 -13t-26.5 -5q-36 0 -59 21.5t-23 53.5q0 34 23 55t56 21q36 0 60 -26t24 -83q0 -72 -39.5 -123t-116.5 -63zM264 455v62q45 6 64.5 30.5t19.5 69.5h40q-9 -8 -22.5 -13t-26.5 -5q-36 0 -59 21.5t-23 53.5q0 34 23 55
t56 21q36 0 60 -26t24 -83q0 -72 -39.5 -123t-116.5 -63z" />
    <glyph glyph-name="quoteleft.ss01" horiz-adv-x="291" 
d="M150 442q-36 0 -60.5 26t-24.5 83q0 71 40.5 123t115.5 66v-62q-44 -8 -63.5 -33t-19.5 -70h-41q10 7 23.5 12.5t25.5 5.5q37 0 59.5 -21.5t22.5 -54.5t-22.5 -54t-55.5 -21z" />
    <glyph glyph-name="quoteright.ss01" horiz-adv-x="275" 
d="M62 455v62q45 6 64.5 30.5t19.5 69.5h40q-9 -8 -22.5 -13t-26.5 -5q-36 0 -59 21.5t-23 53.5q0 34 23 55t56 21q36 0 60 -26t24 -83q0 -72 -39.5 -123t-116.5 -63z" />
    <glyph glyph-name="at" unicode="@" horiz-adv-x="867" 
d="M431 -10q-120 0 -208.5 41.5t-137 117t-48.5 177.5q0 86 30 159.5t87.5 128.5t140 85.5t187.5 30.5t183 -36.5t121.5 -101.5t43.5 -152q0 -57 -18.5 -109t-50.5 -92.5t-74 -64t-89 -23.5q-37 0 -62.5 16.5t-34.5 44.5t2 63v-26q-23 -45 -62 -71t-85 -26q-65 0 -105.5 47
t-40.5 123q0 51 16 96.5t44.5 80t66 54t80.5 19.5q63 0 95.5 -34.5t27.5 -87.5l-10 1l24 92h113l-60 -232q-10 -40 -5 -59.5t27 -19.5t42.5 16t36.5 44t25 63.5t9 74.5q0 71 -32 119.5t-90.5 74t-139.5 25.5q-87 0 -153 -24.5t-111 -68t-68 -102t-23 -126.5
q0 -79 36.5 -136.5t103.5 -89t160 -31.5q53 0 105.5 11t101.5 31l30 -74q-47 -23 -106.5 -36t-124.5 -13zM404 245q22 0 41 10.5t33.5 29.5t22.5 44t8 54q0 45 -21 70.5t-57 25.5q-22 0 -41 -10.5t-33.5 -29.5t-22.5 -43.5t-8 -54.5q0 -46 21.5 -71t56.5 -25z" />
    <glyph glyph-name="ampersand" unicode="&#x26;" horiz-adv-x="768" 
d="M592 0l-377 396q-32 35 -51 63t-27 53t-8 53q0 46 25 83.5t70.5 59.5t104.5 22q57 0 103 -21t72.5 -59t26.5 -91q0 -61 -46 -111.5t-136 -80.5l-61 73q67 21 98.5 52.5t31.5 69.5q0 34 -23.5 56t-63.5 22q-39 0 -60.5 -22t-21.5 -53q0 -17 7 -35.5t29.5 -46.5t66.5 -74
l403 -409h-163zM306 -10q-83 0 -145.5 27t-97.5 74.5t-35 110.5q0 84 57 141.5t165 88.5l61 -75q-58 -17 -92 -38.5t-49 -47.5t-15 -57q0 -56 42.5 -88t119.5 -32q52 0 98 17t82 52.5t56.5 91t20.5 133.5h121q0 -71 -19 -132.5t-53.5 -110.5t-83 -83.5t-107.5 -53
t-126 -18.5z" />
    <glyph glyph-name="paragraph" unicode="&#xb6;" horiz-adv-x="663" 
d="M282 -130v456h-51q-57 0 -103 24.5t-72.5 68.5t-26.5 101q0 59 26.5 104t73 70.5t105.5 25.5h367v-850h-120v755h-79v-755h-120z" />
    <glyph glyph-name="section" unicode="&#xa7;" horiz-adv-x="519" 
d="M277 178l1 82q51 0 74.5 16.5t23.5 47.5q0 28 -18 44.5t-55 25.5l-82 18q-80 18 -119.5 58t-39.5 102q0 73 54.5 115.5t150.5 42.5q95 0 152 -41.5t64 -114.5h-115q-5 32 -31.5 48.5t-72.5 16.5q-43 0 -65 -15t-22 -41q0 -24 17 -38.5t57 -24.5l88 -20
q75 -17 113.5 -60.5t38.5 -105.5q0 -74 -56 -115t-158 -41zM254 -58q-95 0 -152 41t-64 114h115q5 -31 31.5 -47.5t72.5 -16.5q43 0 65 15t22 41q0 24 -16.5 38.5t-57.5 24.5l-88 20q-75 18 -113.5 61t-38.5 105q0 74 56 114.5t157 40.5v-81q-51 0 -74.5 -16.5t-23.5 -47.5
q0 -29 18 -44.5t56 -24.5l81 -20q80 -17 119.5 -57t39.5 -102q0 -73 -54.5 -115.5t-150.5 -42.5z" />
    <glyph glyph-name="copyright" unicode="&#xa9;" horiz-adv-x="823" 
d="M412 -15q-78 0 -146 29t-119.5 80.5t-80.5 119.5t-29 146t29 146t80.5 119.5t119.5 80.5t146 29t146 -29t119.5 -80.5t80.5 -119.5t29 -146t-29 -146t-80.5 -119.5t-119.5 -80.5t-146 -29zM412 41q65 0 122.5 25t101 69t68.5 102t25 123t-25 123t-68.5 102t-101 69
t-122.5 25q-66 0 -123.5 -25t-101 -69t-68 -102t-24.5 -123t24.5 -123t68 -102t101 -69t123.5 -25zM418 140q-62 0 -109.5 28.5t-74.5 78.5t-27 114t27 113t74.5 77.5t108.5 28.5q78 0 130.5 -45t62.5 -118h-78q-7 45 -38 71t-76 26q-59 0 -96 -42t-37 -110q0 -70 37 -113
t97 -43q44 0 74.5 26.5t38.5 70.5h79q-12 -74 -64.5 -118.5t-128.5 -44.5z" />
    <glyph glyph-name="registered" unicode="&#xae;" horiz-adv-x="823" 
d="M412 -15q-78 0 -146 29t-119.5 80.5t-80.5 119.5t-29 146t29 146t80.5 119.5t119.5 80.5t146 29t146 -29t119.5 -80.5t80.5 -119.5t29 -146t-29 -146t-80.5 -119.5t-119.5 -80.5t-146 -29zM412 41q65 0 122.5 25t101 69t68.5 102t25 123t-25 123t-68.5 102t-101 69
t-122.5 25q-66 0 -123.5 -25t-101 -69t-68 -102t-24.5 -123t24.5 -123t68 -102t101 -69t123.5 -25zM255 145v430h185q69 0 108 -31.5t39 -86.5q0 -88 -114 -112l2 16q49 2 77 -23t28 -71v-71q0 -10 1.5 -22.5t3.5 -28.5h-79q-2 9 -3 21.5t-1 29.5v51q0 40 -19 60t-58 20
h-134v62h145q35 0 54 16t19 45q0 30 -18.5 45t-54.5 15h-103v-365h-78z" />
    <glyph glyph-name="trademark" unicode="&#x2122;" horiz-adv-x="855" 
d="M168 360v344h91v-344h-91zM53 645v75h321v-75h-321zM394 360v360h134l96 -347h-53l95 347h136v-360h-89v338h15l-87 -338h-91l-85 336h14v-336h-85z" />
    <glyph glyph-name="degree" unicode="&#xb0;" horiz-adv-x="373" 
d="M187 449q-40 0 -73 19.5t-52 52.5t-19 72t19 71.5t52 51.5t73 19q41 0 73 -19t50.5 -51.5t18.5 -71.5t-18.5 -72t-50.5 -52.5t-73 -19.5zM187 517q32 0 53 22t21 54q0 31 -21 52.5t-53 21.5t-53.5 -21.5t-21.5 -52.5q0 -32 21.5 -54t53.5 -22z" />
    <glyph glyph-name="bar" unicode="|" horiz-adv-x="234" 
d="M62 -130v920h110v-920h-110z" />
    <glyph glyph-name="ampersand.ss11" horiz-adv-x="772" 
d="M254 0q-67 0 -116.5 24t-77 68t-27.5 103q0 57 25.5 100.5t70.5 69t102 25.5l12 -21q-51 0 -92 23t-64.5 63t-23.5 91q0 85 68 134.5t197 49.5q36 0 68 -4.5t66 -14.5v-101q-28 9 -60 13.5t-63 4.5q-75 0 -110.5 -26.5t-35.5 -74.5q0 -49 32.5 -75.5t92.5 -26.5h427v-96
h-459q-57 0 -89 -32t-32 -87q0 -53 30 -83.5t85 -30.5h271v-96h-297zM480 0v548h130v-548h-130z" />
    <glyph glyph-name="cent" unicode="&#xa2;" horiz-adv-x="552" 
d="M238 482v134h103v-134h-103zM341 20v-129h-103v129h103zM288 -10q-77 0 -135.5 34t-92 94.5t-33.5 137.5t33.5 136.5t92 93.5t135.5 34q63 0 114 -23.5t84 -66t42 -98.5h-121q-11 41 -42 64t-75 23q-41 0 -70.5 -20t-45.5 -57t-16 -86q0 -50 16 -87t46 -57.5t70 -20.5
q44 0 75 23t42 64h121q-9 -56 -42.5 -98.5t-84 -66t-113.5 -23.5z" />
    <glyph glyph-name="dollar" unicode="$" horiz-adv-x="637" 
d="M276 696v134h103v-134h-103zM379 20v-129h-103v129h103zM341 -9q-136 0 -216.5 62.5t-94.5 176.5h125q9 -66 59 -102.5t131 -36.5q67 0 102.5 24.5t35.5 68.5q0 39 -22 63t-74 39l-130 39q-99 30 -145.5 79t-46.5 123q0 62 32 108t90.5 71t136.5 25q120 0 191.5 -58.5
t81.5 -158.5h-125q-11 60 -50 88.5t-105 28.5q-58 0 -92 -23t-34 -63q0 -33 20.5 -56t76.5 -40l132 -40q99 -29 144 -79t45 -127q0 -102 -70.5 -157t-197.5 -55z" />
    <glyph glyph-name="Euro" unicode="&#x20ac;" horiz-adv-x="715" 
d="M404 -10q-72 0 -132 27.5t-103.5 77.5t-67.5 118t-24 149t23.5 148t67 116.5t103.5 76.5t132 27t129.5 -24.5t96.5 -69.5t54 -107h-134q-13 47 -51 71.5t-96 24.5q-57 0 -101 -32.5t-68 -91t-24 -138.5q0 -81 24.5 -141.5t68.5 -93.5t101 -33t94.5 24t50.5 71h136
q-16 -62 -55 -107t-96.5 -69t-128.5 -24zM0 389l15 88h483l-16 -88h-482zM0 245l15 88h458l-16 -88h-457z" />
    <glyph glyph-name="sterling" unicode="&#xa3;" horiz-adv-x="600" 
d="M43 0v104q45 58 62 99.5t17 74.5t-11.5 59.5t-26.5 53.5t-26.5 57.5t-11.5 70.5q0 62 29.5 109.5t86 74.5t135.5 27t136.5 -27.5t91.5 -76t40 -112.5h-124q-8 57 -42.5 85t-95.5 28q-63 0 -95 -29.5t-32 -78.5q0 -30 11 -57t24.5 -53.5t24.5 -56t11 -65.5
q0 -41 -21.5 -93.5t-79.5 -121.5l-12 37h406v-109h-497zM14 288v108h450v-108h-450z" />
    <glyph glyph-name="yen" unicode="&#xa5;" horiz-adv-x="640" 
d="M255 0v303l-240 417h157l200 -389h-90l199 389h144l-240 -417v-303h-130zM45 245v88h550v-88h-550zM278 389h-233v88h187zM432 477h163v-88h-211z" />
    <glyph glyph-name="cent.ss12" horiz-adv-x="552" 
d="M288 -10q-77 0 -135.5 34t-92 94.5t-33.5 137.5t33.5 136.5t92 93.5t135.5 34q63 0 114 -23.5t84 -66t42 -98.5h-115q-10 45 -42 69t-81 24q-66 0 -102.5 -45t-36.5 -124q0 -80 36.5 -125.5t102.5 -45.5q48 0 80.5 23.5t43.5 69.5h114q-9 -56 -42.5 -98.5t-84 -66
t-113.5 -23.5zM238 -109v142l3 27v395l-3 30v131h103v-135l-4 -24v-395l4 -25v-146h-103z" />
    <glyph glyph-name="dollar.ss12" horiz-adv-x="637" 
d="M341 -9q-136 0 -216.5 62.5t-94.5 176.5h125q9 -66 59 -102.5t131 -36.5q67 0 102.5 24.5t35.5 68.5q0 39 -22 63t-74 39l-130 39q-99 30 -145.5 79t-46.5 123q0 62 32 108t90.5 71t136.5 25q120 0 191.5 -58.5t81.5 -158.5h-125q-11 60 -50 88.5t-105 28.5
q-58 0 -92 -23t-34 -63q0 -33 20.5 -56t76.5 -40l132 -40q99 -29 144 -79t45 -127q0 -102 -70.5 -157t-197.5 -55zM276 -109v142l4 27v609l-4 30v131h103v-135l-3 -24v-609l3 -25v-146h-103z" />
    <glyph glyph-name="plus" unicode="+" horiz-adv-x="544" 
d="M224 140v463h98v-463h-98zM53 324v94h438v-94h-438z" />
    <glyph glyph-name="minus" unicode="&#x2212;" horiz-adv-x="544" 
d="M53 324v94h438v-94h-438z" />
    <glyph glyph-name="multiply" unicode="&#xd7;" horiz-adv-x="544" 
d="M422 154l-368 367l69 69l368 -368zM123 154l-69 68l368 368l69 -69z" />
    <glyph glyph-name="divide" unicode="&#xf7;" horiz-adv-x="544" 
d="M53 324v94h438v-94h-438zM273 479q-30 0 -50 19t-20 50q0 30 20 49t50 19q27 0 47.5 -19t20.5 -49q0 -31 -20.5 -50t-47.5 -19zM273 126q-30 0 -50 19.5t-20 50.5q0 29 20 48.5t50 19.5q27 0 47.5 -19t20.5 -49q0 -32 -20.5 -51t-47.5 -19z" />
    <glyph glyph-name="equal" unicode="=" horiz-adv-x="544" 
d="M53 424v94h438v-94h-438zM53 224v94h438v-94h-438z" />
    <glyph glyph-name="greater" unicode="&#x3e;" horiz-adv-x="544" 
d="M53 165v101l343 116v-23l-343 114v100l438 -150v-104z" />
    <glyph glyph-name="less" unicode="&#x3c;" horiz-adv-x="544" 
d="M491 577v-101l-343 -116v23l343 -114v-100l-438 150v104z" />
    <glyph glyph-name="asciitilde" unicode="~" horiz-adv-x="544" 
d="M390 277q42 0 74.5 16.5t53.5 50t25 84.5h-84q-6 -26 -24 -39t-46 -13q-26 0 -51 9.5t-52.5 22t-60 21.5t-71.5 9q-41 0 -73.5 -16.5t-53 -50t-25.5 -84.5h84q7 26 24.5 39t45.5 13q27 0 52 -9.5t51.5 -22t58.5 -21.5t72 -9z" />
    <glyph glyph-name="asciicircum" unicode="^" horiz-adv-x="544" 
d="M162 491h-96l153 249h107l153 -249h-96l-147 208h73z" />
    <glyph glyph-name="percent" unicode="%" horiz-adv-x="786" 
d="M78 0l530 720h105l-530 -720h-105zM587 -10q-42 0 -79 20t-60 61t-23 104t22.5 103.5t59.5 60.5t80 20q45 0 82.5 -20t59.5 -60.5t22 -103.5t-23 -104t-60.5 -61t-80.5 -20zM587 66q34 0 57 28t23 82q0 52 -22.5 79.5t-57.5 27.5t-56.5 -27.5t-21.5 -79.5q0 -54 21.5 -82
t56.5 -28zM197 361q-43 0 -80 20t-59.5 61t-22.5 104t22.5 103.5t59.5 60.5t80 20q45 0 82 -20t59 -60.5t22 -103.5t-23 -104t-60 -61t-80 -20zM197 437q34 0 57 28t23 82q0 52 -22.5 79.5t-57.5 27.5t-56.5 -27t-21.5 -80q0 -54 21.5 -82t56.5 -28z" />
    <glyph glyph-name="perthousand" unicode="&#x2030;" horiz-adv-x="830" 
d="M171 361q-37 0 -69.5 20t-52 61t-19.5 104t19.5 103.5t51.5 60.5t70 20q59 0 100.5 -45t41.5 -139q0 -63 -20 -104t-52 -61t-70 -20zM171 431q29 0 48 29.5t19 86.5q0 55 -19 84t-48 29q-30 0 -48 -29t-18 -84q0 -57 18 -86.5t48 -29.5zM67 0l448 720h94l-447 -720h-95z
M493 -10q-32 0 -62.5 20.5t-49.5 61.5t-19 103t19 102.5t49 61t63 20.5q51 0 83 -43.5t32 -140.5t-33 -141t-82 -44zM493 60q24 0 40.5 29.5t16.5 86.5q0 55 -16 84t-41 29t-40.5 -29t-15.5 -84q0 -57 15 -86.5t41 -29.5zM668 60q25 0 41 29.5t16 86.5q0 55 -15.5 84
t-41.5 29q-25 0 -40.5 -29t-15.5 -84q0 -57 16 -86.5t40 -29.5zM668 -10q-49 0 -81.5 44t-32.5 141t32.5 140.5t81.5 43.5q34 0 64 -20.5t49 -61t19 -102.5t-19.5 -103t-49.5 -61.5t-63 -20.5z" />
    <glyph glyph-name="plus.tf" horiz-adv-x="600" 
d="M251 140v463h99v-463h-99zM67 324v94h466v-94h-466z" />
    <glyph glyph-name="minus.tf" horiz-adv-x="600" 
d="M67 324v94h466v-94h-466z" />
    <glyph glyph-name="multiply.tf" horiz-adv-x="600" 
d="M463 154l-396 367l69 69l396 -368zM136 154l-69 68l396 368l69 -69z" />
    <glyph glyph-name="divide.tf" horiz-adv-x="600" 
d="M67 324v94h466v-94h-466zM301 479q-31 0 -51.5 19t-20.5 50q0 30 20.5 49t51.5 19q28 0 49 -19t21 -49q0 -31 -21.5 -50t-48.5 -19zM301 126q-31 0 -51.5 19.5t-20.5 50.5q0 29 20.5 48.5t51.5 19.5q28 0 49 -19t21 -49q0 -32 -21.5 -51t-48.5 -19z" />
    <glyph glyph-name="equal.tf" horiz-adv-x="600" 
d="M67 424v94h466v-94h-466zM67 224v94h466v-94h-466z" />
    <glyph glyph-name="greater.tf" horiz-adv-x="600" 
d="M67 165v101l374 116v-23l-374 114v100l466 -150v-104z" />
    <glyph glyph-name="less.tf" horiz-adv-x="600" 
d="M491 577v-101l-343 -116v23l343 -114v-100l-438 150v104z" />
    <glyph glyph-name="percent.tf" horiz-adv-x="600" 
d="M24 0l466 720h89l-465 -720h-90zM443 -10q-36 0 -68 20t-52 61.5t-20 103.5q0 63 20 103.5t52 60.5t68 20q37 0 69.5 -20t52 -60.5t19.5 -103.5q0 -62 -20 -103.5t-52.5 -61.5t-68.5 -20zM443 58q20 0 37.5 26t17.5 92q0 65 -16.5 90t-38.5 25q-21 0 -37.5 -24.5
t-16.5 -90.5t16 -92t38 -26zM156 361q-36 0 -68 20t-52 61.5t-20 103.5q0 63 20 103.5t52 60.5t68 20q37 0 69.5 -20t52 -60.5t19.5 -103.5q0 -62 -20 -103.5t-52.5 -61.5t-68.5 -20zM156 429q20 0 37.5 26t17.5 92q0 65 -16.5 90t-38.5 25q-21 0 -37.5 -24.5t-16.5 -90.5
t16 -92t38 -26z" />
    <glyph glyph-name="perthousand.tf" horiz-adv-x="600" 
d="M57 279l-21 67l494 150l21 -67zM260 -10q-51 0 -85.5 42t-34.5 113t34 113t86 42q53 0 87 -41.5t34 -113.5q0 -71 -35 -113t-86 -42zM260 52q21 0 35 25t14 69q0 43 -13.5 67.5t-35.5 24.5q-23 0 -35.5 -24.5t-12.5 -67.5t12.5 -68.5t35.5 -25.5zM449 -10q-51 0 -85.5 42
t-34.5 113t34 113t86 42q53 0 87 -41.5t34 -113.5q0 -71 -35 -113t-86 -42zM449 52q21 0 35 25t14 69q0 43 -13.5 67.5t-35.5 24.5q-23 0 -35.5 -24.5t-12.5 -67.5t12.5 -68.5t35.5 -25.5zM150 420q-51 0 -85.5 42t-34.5 114q0 70 34 112t86 42q53 0 87 -41.5t34 -112.5
q0 -72 -35 -114t-86 -42zM150 482q21 0 35 25.5t14 69.5q0 42 -13.5 66.5t-35.5 24.5q-23 0 -35.5 -24.5t-12.5 -66.5q0 -44 12.5 -69.5t35.5 -25.5z" />
    <glyph glyph-name="arrowup" unicode="&#x2191;" horiz-adv-x="807" 
d="M345 0v649l50 -73l-335 -335v161l343 341l344 -342v-160l-336 335l51 73v-649h-117z" />
    <glyph glyph-name="uni2197" unicode="&#x2197;" horiz-adv-x="721" 
d="M93 173l459 458l-16 -87h-474l114 114l484 -2l1 -484l-113 -114v475l87 15l-459 -458z" />
    <glyph glyph-name="arrowright" unicode="&#x2192;" horiz-adv-x="863" 
d="M60 419h649l-73 -51l-335 335h161l341 -343l-342 -343h-160l335 335l73 -51h-649v118z" />
    <glyph glyph-name="uni2198" unicode="&#x2198;" horiz-adv-x="721" 
d="M176 628l459 -459l-87 15v474l113 -113l-1 -484l-485 -1l-113 113h474l16 -87l-459 459z" />
    <glyph glyph-name="arrowdown" unicode="&#x2193;" horiz-adv-x="807" 
d="M345 720h117v-649l-51 73l336 335v-160l-344 -342l-343 341v161l335 -335l-50 -73v649z" />
    <glyph glyph-name="uni2199" unicode="&#x2199;" horiz-adv-x="721" 
d="M628 544l-459 -458l16 87h474l-114 -114l-484 2l-1 484l113 114v-474l-87 -16l459 458z" />
    <glyph glyph-name="arrowleft" unicode="&#x2190;" horiz-adv-x="863" 
d="M803 301h-648l72 51l335 -335h-160l-342 343l342 343h161l-336 -335l-72 51h648v-118z" />
    <glyph glyph-name="uni2196" unicode="&#x2196;" horiz-adv-x="721" 
d="M545 92l-458 459l87 -15v-474l-114 113l2 484l484 1l114 -113h-475l-15 87l458 -459z" />
    <glyph glyph-name="arrowboth" unicode="&#x2194;" horiz-adv-x="1153" 
d="M402 17l-342 343l342 343h160l-284 -284h598l-285 284h161l341 -343l-342 -343h-160l285 284h-598l285 -284h-161z" />
    <glyph glyph-name="arrowupdn" unicode="&#x2195;" horiz-adv-x="807" 
d="M403 -157l-343 342v161l285 -285v598l-285 -285v161l343 342l344 -342v-161l-285 285v-598l285 285v-161z" />
    <glyph glyph-name="uni0308" unicode="&#x308;" horiz-adv-x="0" 
d="M290 593v140h137v-140h-137zM60 593v140h137v-140h-137z" />
    <glyph glyph-name="uni0307" unicode="&#x307;" horiz-adv-x="0" 
d="M60 594v139h137v-139h-137z" />
    <glyph glyph-name="gravecomb" unicode="&#x300;" horiz-adv-x="0" 
d="M223 583l-163 157h173l104 -157h-114z" />
    <glyph glyph-name="acutecomb" unicode="&#x301;" horiz-adv-x="0" 
d="M173 583h-113l104 157h173z" />
    <glyph glyph-name="uni030B" unicode="&#x30b;" horiz-adv-x="0" 
d="M157 583h-97l57 157h144zM370 583h-97l57 157h144z" />
    <glyph glyph-name="uni030C.alt" horiz-adv-x="0" 
d="M143 490h-83v230h109z" />
    <glyph glyph-name="uni0302" unicode="&#x302;" horiz-adv-x="0" 
d="M60 583l131 157h133l131 -157h-108l-144 130h109l-144 -130h-108z" />
    <glyph glyph-name="uni030C" unicode="&#x30c;" horiz-adv-x="0" 
d="M191 583l-131 157h108l144 -130h-109l144 130h108l-131 -157h-133z" />
    <glyph glyph-name="uni0306" unicode="&#x306;" horiz-adv-x="0" 
d="M231 576q-50 0 -88.5 20.5t-60.5 58t-22 85.5h88q0 -34 22 -53.5t61 -19.5t60.5 19.5t21.5 53.5h89q0 -48 -22.5 -85t-60.5 -58t-88 -21z" />
    <glyph glyph-name="uni030A" unicode="&#x30a;" horiz-adv-x="0" 
d="M168 561q-46 0 -77 31.5t-31 76.5q0 44 31 75.5t77 31.5t76.5 -31.5t30.5 -75.5q0 -45 -30.5 -76.5t-76.5 -31.5zM168 627q17 0 28.5 12.5t11.5 29.5t-11.5 29t-28.5 12q-18 0 -29.5 -12t-11.5 -29t11.5 -29.5t29.5 -12.5z" />
    <glyph glyph-name="tildecomb" unicode="&#x303;" horiz-adv-x="0" 
d="M340 592q-28 0 -48.5 8.5t-38 20t-34 20t-34.5 8.5q-21 0 -33.5 -14t-12.5 -37h-79q0 38 15.5 69t45 49.5t70.5 18.5q29 0 50 -8.5t37 -20t31.5 -20t33.5 -8.5q22 0 34.5 14t12.5 37h79q0 -38 -15.5 -69t-44.5 -49.5t-69 -18.5z" />
    <glyph glyph-name="uni0304" unicode="&#x304;" horiz-adv-x="0" 
d="M60 625v92h360v-92h-360z" />
    <glyph glyph-name="uni0312" unicode="&#x312;" horiz-adv-x="0" 
d="M67 583v104q0 64 36 106.5t101 47.5v-58q-34 -4 -51.5 -25t-17.5 -58l-45 10h114v-127h-137z" />
    <glyph glyph-name="uni0326" unicode="&#x326;" horiz-adv-x="0" 
d="M67 -332v58q34 4 51.5 25t17.5 58l45 -10h-114v127h137v-104q0 -64 -36 -106t-101 -48z" />
    <glyph glyph-name="uni0327" unicode="&#x327;" horiz-adv-x="0" 
d="M191 -215q-59 0 -94 25t-37 69h84q2 -16 14.5 -23.5t31.5 -7.5q15 0 26.5 6.5t11.5 18.5q0 15 -18.5 24t-70.5 12l26 103h75l-13 -47q45 -10 66.5 -33.5t21.5 -57.5q0 -39 -33 -64t-91 -25z" />
    <glyph glyph-name="uni0328" unicode="&#x328;" horiz-adv-x="0" 
d="M166 -216q-51 0 -78.5 24t-27.5 62q0 44 35 80.5t92 66.5l49 -17q-47 -36 -68 -62.5t-21 -51.5q0 -16 9 -25t22 -9q22 0 38 14l29 -60q-14 -11 -33 -16.5t-46 -5.5z" />
    <glyph glyph-name="uni0308.ss01" horiz-adv-x="0" 
d="M135 590q-31 0 -53 22.5t-22 54.5q0 33 22 54.5t53 21.5q32 0 53.5 -21.5t21.5 -54.5q0 -32 -21.5 -54.5t-53.5 -22.5zM365 590q-31 0 -53 22.5t-22 54.5q0 33 22 54.5t53 21.5q32 0 53.5 -21.5t21.5 -54.5q0 -32 -21.5 -54.5t-53.5 -22.5z" />
    <glyph glyph-name="uni0307.ss01" horiz-adv-x="0" 
d="M143 577q-34 0 -58.5 24t-24.5 59q0 38 24.5 60.5t58.5 22.5q33 0 57 -22.5t24 -60.5q0 -35 -24 -59t-57 -24z" />
    <glyph glyph-name="uni0312.ss01" horiz-adv-x="0" 
d="M139 576q-33 0 -56 24t-23 75q0 43 16.5 79.5t47 59.5t72.5 27v-58q-34 -4 -51 -25t-17 -58h-38q10 7 22 12t24 5q31 0 53 -20.5t22 -50.5t-21 -50t-51 -20z" />
    <glyph glyph-name="uni0326.ss01" horiz-adv-x="0" 
d="M75 -332v58q34 4 51 25t17 58h38q-9 -7 -21.5 -12t-24.5 -5q-31 0 -53 20.5t-22 50.5t21 50t51 20q34 0 56.5 -24t22.5 -75q0 -42 -16.5 -78.5t-47 -60t-72.5 -27.5z" />
    <glyph glyph-name="dieresis" unicode="&#xa8;" horiz-adv-x="487" 
d="M290 593v140h137v-140h-137zM60 593v140h137v-140h-137z" />
    <glyph glyph-name="dotaccent" unicode="&#x2d9;" horiz-adv-x="257" 
d="M60 594v139h137v-139h-137z" />
    <glyph glyph-name="grave" unicode="`" horiz-adv-x="354" 
d="M223 583l-163 157h173l104 -157h-114z" />
    <glyph glyph-name="acute" unicode="&#xb4;" horiz-adv-x="354" 
d="M173 583h-113l104 157h173z" />
    <glyph glyph-name="hungarumlaut" unicode="&#x2dd;" horiz-adv-x="414" 
d="M157 583h-97l57 157h144zM370 583h-97l57 157h144z" />
    <glyph glyph-name="circumflex" unicode="&#x2c6;" horiz-adv-x="433" 
d="M60 583l131 157h133l131 -157h-108l-144 130h109l-144 -130h-108z" />
    <glyph glyph-name="caron" unicode="&#x2c7;" horiz-adv-x="433" 
d="M191 583l-131 157h108l144 -130h-109l144 130h108l-131 -157h-133z" />
    <glyph glyph-name="breve" unicode="&#x2d8;" horiz-adv-x="408" 
d="M231 576q-50 0 -88.5 20.5t-60.5 58t-22 85.5h88q0 -34 22 -53.5t61 -19.5t60.5 19.5t21.5 53.5h89q0 -48 -22.5 -85t-60.5 -58t-88 -21z" />
    <glyph glyph-name="ring" unicode="&#x2da;" horiz-adv-x="335" 
d="M168 561q-46 0 -77 31.5t-31 76.5q0 44 31 75.5t77 31.5t76.5 -31.5t30.5 -75.5q0 -45 -30.5 -76.5t-76.5 -31.5zM168 627q17 0 28.5 12.5t11.5 29.5t-11.5 29t-28.5 12q-18 0 -29.5 -12t-11.5 -29t11.5 -29.5t29.5 -12.5z" />
    <glyph glyph-name="tilde" unicode="&#x2dc;" horiz-adv-x="452" 
d="M340 592q-28 0 -48.5 8.5t-38 20t-34 20t-34.5 8.5q-21 0 -33.5 -14t-12.5 -37h-79q0 38 15.5 69t45 49.5t70.5 18.5q29 0 50 -8.5t37 -20t31.5 -20t33.5 -8.5q22 0 34.5 14t12.5 37h79q0 -38 -15.5 -69t-44.5 -49.5t-69 -18.5z" />
    <glyph glyph-name="macron" unicode="&#xaf;" horiz-adv-x="411" 
d="M60 625v92h360v-92h-360z" />
    <glyph glyph-name="cedilla" unicode="&#xb8;" horiz-adv-x="301" 
d="M191 -215q-59 0 -94 25t-37 69h84q2 -16 14.5 -23.5t31.5 -7.5q15 0 26.5 6.5t11.5 18.5q0 15 -18.5 24t-70.5 12l26 103h75l-13 -47q45 -10 66.5 -33.5t21.5 -57.5q0 -39 -33 -64t-91 -25z" />
    <glyph glyph-name="ogonek" unicode="&#x2db;" horiz-adv-x="269" 
d="M166 -216q-51 0 -78.5 24t-27.5 62q0 44 35 80.5t92 66.5l49 -17q-47 -36 -68 -62.5t-21 -51.5q0 -16 9 -25t22 -9q22 0 38 14l29 -60q-14 -11 -33 -16.5t-46 -5.5z" />
    <glyph glyph-name="dieresis.ss01" horiz-adv-x="500" 
d="M135 590q-31 0 -53 22.5t-22 54.5q0 33 22 54.5t53 21.5q32 0 53.5 -21.5t21.5 -54.5q0 -32 -21.5 -54.5t-53.5 -22.5zM365 590q-31 0 -53 22.5t-22 54.5q0 33 22 54.5t53 21.5q32 0 53.5 -21.5t21.5 -54.5q0 -32 -21.5 -54.5t-53.5 -22.5z" />
    <glyph glyph-name="dotaccent.ss01" horiz-adv-x="284" 
d="M143 577q-34 0 -58.5 24t-24.5 59q0 38 24.5 60.5t58.5 22.5q33 0 57 -22.5t24 -60.5q0 -35 -24 -59t-57 -24z" />
    </font>
</defs>
</svg>
